<svg width="16" height="16" viewBox="0 0 16 16" fill="none" xmlns="http://www.w3.org/2000/svg">
<path d="M8 2C4.41 2 1.5 4.31 1.5 7.15333C1.5 8.95 2.66667 10.53 4.43 11.45L3.84333 13.8033C3.8358 13.8327 3.83716 13.8637 3.84722 13.8923C3.85728 13.9209 3.8756 13.9459 3.89987 13.9641C3.92413 13.9823 3.95324 13.9929 3.98353 13.9945C4.01381 13.9962 4.0439 13.9888 4.07 13.9733L7 12.2333C7.33161 12.2764 7.6656 12.2987 8 12.3C11.59 12.3 14.5 9.99667 14.5 7.15333C14.5 4.31 11.59 2 8 2Z" fill="white"/>
<path d="M7.96998 8.05667C8.46888 8.05667 8.87332 7.65223 8.87332 7.15333C8.87332 6.65444 8.46888 6.25 7.96998 6.25C7.47109 6.25 7.06665 6.65444 7.06665 7.15333C7.06665 7.65223 7.47109 8.05667 7.96998 8.05667Z" fill="#3C1D1E"/>
<path d="M11.2167 8.05667C11.7156 8.05667 12.12 7.65223 12.12 7.15333C12.12 6.65444 11.7156 6.25 11.2167 6.25C10.7178 6.25 10.3134 6.65444 10.3134 7.15333C10.3134 7.65223 10.7178 8.05667 11.2167 8.05667Z" fill="#3C1D1E"/>
<path d="M4.7267 8.05667C5.22559 8.05667 5.63003 7.65223 5.63003 7.15333C5.63003 6.65444 5.22559 6.25 4.7267 6.25C4.2278 6.25 3.82336 6.65444 3.82336 7.15333C3.82336 7.65223 4.2278 8.05667 4.7267 8.05667Z" fill="#3C1D1E"/>
</svg>
