<svg width="16" height="16" viewBox="0 0 16 16" fill="none" xmlns="http://www.w3.org/2000/svg">
<path d="M8 2C4.41 2 1.5 4.31 1.5 7.15333C1.5 8.95 2.66667 10.53 4.43 11.45L3.84333 13.8033C3.8358 13.8327 3.83716 13.8637 3.84722 13.8923C3.85728 13.9209 3.8756 13.9459 3.89987 13.9641C3.92413 13.9823 3.95324 13.9929 3.98353 13.9945C4.01381 13.9962 4.0439 13.9888 4.07 13.9733L7 12.2333C7.33161 12.2764 7.6656 12.2987 8 12.3C11.59 12.3 14.5 9.99667 14.5 7.15333C14.5 4.31 11.59 2 8 2Z" fill="#3C1D1E"/>
</svg>
