<svg width="24" height="24" viewBox="0 0 24 24" fill="none" xmlns="http://www.w3.org/2000/svg">
<g id="Home">
<path id="Vector 46" d="M8.5 20H5C4.44772 20 4 19.5523 4 19L4 10.1218C4 9.80694 4.14829 9.51047 4.40023 9.32163L10.9002 4.44956C11.2557 4.18312 11.7443 4.18312 12.0998 4.44956L18.5998 9.32163C18.8517 9.51047 19 9.80694 19 10.1218V19C19 19.5523 18.5523 20 18 20H14.5M8.5 20V14.5C8.5 13.9477 8.94772 13.5 9.5 13.5H13.5C14.0523 13.5 14.5 13.9477 14.5 14.5V20M8.5 20H11.5H14.5" stroke="#242424" stroke-width="2"/>
</g>
</svg>
