<svg width="40" height="40" viewBox="0 0 40 40" fill="none" xmlns="http://www.w3.org/2000/svg">
<path d="M16.5 28H13C12.4477 28 12 27.5523 12 27L12 18.1218C12 17.8069 12.1483 17.5105 12.4002 17.3216L18.9002 12.4496C19.2557 12.1831 19.7443 12.1831 20.0998 12.4496L26.5998 17.3216C26.8517 17.5105 27 17.8069 27 18.1218V27C27 27.5523 26.5523 28 26 28H22.5M16.5 28V22.5C16.5 21.9477 16.9477 21.5 17.5 21.5H21.5C22.0523 21.5 22.5 21.9477 22.5 22.5V28M16.5 28H19.5H22.5" stroke="#242424" stroke-width="2"/>
</svg>
