<svg width="24" height="24" viewBox="0 0 24 24" fill="none" xmlns="http://www.w3.org/2000/svg">
<path d="M18 8C18.3549 8 18.6424 8.28767 18.6426 8.64258C18.6426 10.2017 17.9497 11.5831 16.8408 12.6055L16.8428 12.6074L18.1279 14.834C18.3054 15.1415 18.2001 15.5344 17.8926 15.7119C17.5851 15.8894 17.1922 15.784 17.0146 15.4766L15.8047 13.3828C14.8838 13.9421 13.7996 14.3024 12.6426 14.4004V16.3574C12.6424 16.7123 12.3549 17 12 17C11.6451 17 11.3576 16.7123 11.3574 16.3574V14.4004C10.3321 14.3136 9.3638 14.021 8.51562 13.5664L7.41406 15.4766C7.23657 15.784 6.84359 15.8893 6.53613 15.7119C6.22866 15.5344 6.12326 15.1415 6.30078 14.834L7.44336 12.8525C6.16955 11.8115 5.35742 10.3311 5.35742 8.64258C5.35757 8.28767 5.64505 8 6 8C6.35495 8 6.64243 8.28767 6.64258 8.64258C6.64258 11.0385 8.94479 13.1426 12 13.1426C15.0552 13.1426 17.3574 11.0385 17.3574 8.64258C17.3576 8.28767 17.6451 8 18 8Z" fill="#767676"/>
</svg>
