<svg width="24" height="24" viewBox="0 0 24 24" fill="none" xmlns="http://www.w3.org/2000/svg">
<path d="M14.5 14C14.5 12.6193 13.3807 11.5 12 11.5C10.6193 11.5 9.5 12.6193 9.5 14C9.5 15.3807 10.6193 16.5 12 16.5V18C9.79086 18 8 16.2091 8 14C8 11.7909 9.79086 10 12 10C14.2091 10 16 11.7909 16 14C16 16.2091 14.2091 18 12 18V16.5C13.3807 16.5 14.5 15.3807 14.5 14Z" fill="#767676"/>
<path d="M18.6286 13.2941C18.6286 10.131 15.7497 7.41176 12 7.41176C8.25027 7.41176 5.37143 10.131 5.37143 13.2941C5.37143 13.684 5.06442 14 4.68571 14C4.307 14 4 13.684 4 13.2941C4 9.1801 7.67059 6 12 6C16.3294 6 20 9.1801 20 13.2941C20 13.684 19.693 14 19.3143 14C18.9356 14 18.6286 13.684 18.6286 13.2941Z" fill="#767676"/>
</svg>
