<svg width="48" height="48" viewBox="0 0 48 48" fill="none" xmlns="http://www.w3.org/2000/svg">
<rect x="0.25" y="0.25" width="47.5" height="47.5" rx="5.75" fill="white" stroke="#E2E2E2" stroke-width="0.5"/>
<path d="M37.1616 23.7217H39.2516" stroke="#27B6E2" stroke-miterlimit="10" stroke-linecap="round"/>
<path d="M36.1016 19.1816L38.0216 18.4216" stroke="#27B6E2" stroke-miterlimit="10" stroke-linecap="round"/>
<path d="M36.1016 28.2117L38.0216 28.9717" stroke="#27B6E2" stroke-miterlimit="10" stroke-linecap="round"/>
<path d="M16.4516 7.05149C14.6716 4.75149 11.3616 4.32149 9.05159 6.10149C6.74159 7.88149 6.32159 11.1915 8.10159 13.5015C8.37159 13.8515 8.87159 13.9115 9.22159 13.6415L16.3116 8.16149C16.6616 7.89149 16.7216 7.39149 16.4516 7.04149V7.05149Z" fill="#27B6E2"/>
<path d="M32.6916 7.05159C34.4716 4.74159 37.7816 4.32159 40.0916 6.10159C42.4016 7.88159 42.8216 11.1916 41.0416 13.5016C40.7716 13.8516 40.2716 13.9116 39.9216 13.6416L32.8316 8.16159C32.4816 7.89159 32.4216 7.39159 32.6916 7.04159V7.05159Z" fill="#27B6E2"/>
<g style="mix-blend-mode:multiply">
<path d="M12.7616 33.8417C12.3516 34.1917 11.7316 34.1417 11.3916 33.7217C8.95159 30.6217 7.75159 26.7517 8.04159 22.8417C8.36159 18.6117 10.4016 14.6717 13.7116 11.9017C17.0216 9.13168 21.3316 7.74168 25.7016 8.05168C29.7216 8.33168 33.4716 10.0317 36.2716 12.8017C36.6716 13.2017 36.6216 13.8517 36.1916 14.2117L33.9816 16.0617C33.5716 16.4117 32.9516 16.3617 32.5616 15.9917C30.6216 14.1517 28.0616 13.0317 25.3416 12.8417C22.2816 12.6217 19.2716 13.5917 16.9516 15.5317C14.6316 17.4717 13.2016 20.2317 12.9816 23.1917C12.7816 25.8117 13.5416 28.4117 15.1116 30.5317C15.4516 30.9817 15.4016 31.6317 14.9716 31.9917L12.7616 33.8417Z" fill="#27B6E2"/>
</g>
<g style="mix-blend-mode:multiply">
<path d="M37.4616 32.1816C37.9416 32.4816 38.0716 33.1216 37.7316 33.5616C36.6516 34.9716 35.3316 36.2016 33.8316 37.1916C32.0416 38.3816 30.0316 39.2116 27.9116 39.6516C25.7916 40.0916 23.6016 40.1116 21.4716 39.7316C19.3416 39.3516 17.3116 38.5616 15.4916 37.4116C13.6716 36.2616 12.1116 34.7816 10.8816 33.0516C9.65159 31.3216 8.79159 29.3716 8.34159 27.3116C7.89159 25.2516 7.86159 23.1316 8.26159 21.0716C8.60159 19.3216 9.23159 17.6416 10.1316 16.1016C10.4016 15.6316 11.0116 15.5116 11.4716 15.8016L13.9316 17.3516C14.4116 17.6516 14.5416 18.2816 14.2716 18.7816C13.7316 19.7816 13.3416 20.8516 13.1316 21.9616C12.8516 23.4116 12.8716 24.8916 13.1916 26.3316C13.5016 27.7716 14.1116 29.1316 14.9716 30.3516C15.8316 31.5616 16.9216 32.6016 18.2016 33.4016C19.4716 34.2016 20.8916 34.7516 22.3816 35.0216C23.8716 35.2916 25.4016 35.2716 26.8916 34.9716C28.3716 34.6716 29.7816 34.0816 31.0316 33.2516C32.0116 32.6016 32.8716 31.8116 33.6016 30.9116C33.9416 30.4916 34.5416 30.3616 35.0016 30.6516L37.4616 32.2016V32.1816Z" fill="#27B6E2"/>
</g>
<path d="M24.3516 17.5917C24.3516 18.0617 23.9716 18.4417 23.5016 18.4417C23.0316 18.4417 22.6516 18.0617 22.6516 17.5917C22.6516 17.1217 23.0316 16.7417 23.5016 16.7417C23.9716 16.7417 24.3516 17.1217 24.3516 17.5917Z" fill="black" stroke="black"/>
<path d="M24.0016 24.5017L36.0016 14.5017L24.0016 24.5017Z" fill="black"/>
<path d="M24.0016 24.5017L36.0016 14.5017" stroke="black" stroke-width="3" stroke-miterlimit="10" stroke-linecap="round"/>
<path d="M24.0016 24.5715L31.6516 28.9715L24.0016 24.5715Z" fill="black"/>
<path d="M24.0016 24.5715L31.6516 28.9715" stroke="black" stroke-width="3" stroke-miterlimit="10" stroke-linecap="round"/>
<path d="M15.6216 36.5716L12.1216 40.0716C11.5016 40.6916 11.5516 41.7516 12.2316 42.4316C12.9116 43.1116 13.9716 43.1616 14.5916 42.5416L18.0916 39.0416C18.7116 38.4216 18.6616 37.3616 17.9816 36.6816C17.3016 36.0016 16.2416 35.9516 15.6216 36.5716Z" fill="#27B6E2"/>
<path d="M30.2916 38.8216L33.7916 42.3216C34.4116 42.9416 35.4716 42.8916 36.1516 42.2116C36.8316 41.5316 36.8816 40.4716 36.2616 39.8516L32.7616 36.3516C32.1416 35.7316 31.0816 35.7816 30.4016 36.4616C29.7216 37.1416 29.6716 38.2016 30.2916 38.8216Z" fill="#27B6E2"/>
</svg>
