<svg width="179" height="46" viewBox="0 0 179 46" fill="none" xmlns="http://www.w3.org/2000/svg">
<g filter="url(#filter0_d_166_22)">
<path d="M124.43 32.08C124.13 32.38 123.78 32.52 123.36 32.52H103.09C102.5 32.52 102.14 32.16 102 31.43V26.76C102 26.17 102.36 25.81 103.09 25.67H120.43C120.34 25.14 120.08 24.88 119.64 24.88H103.52C103.1 24.88 102.75 24.73 102.45 24.44C102.15 24.14 102.01 23.79 102.01 23.37C102.01 22.95 102.16 22.6 102.45 22.3C102.74 22 103.1 21.86 103.52 21.86H120.93C122.03 21.86 122.96 22.25 123.73 23.03C124.5 23.81 124.88 24.74 124.88 25.81V27.62C124.88 28.21 124.52 28.57 123.79 28.71H106.45V29.5H123.36C123.78 29.5 124.13 29.65 124.43 29.94C124.73 30.24 124.87 30.59 124.87 31.01C124.87 31.43 124.72 31.78 124.43 32.08Z" fill="black"/>
<path d="M125.53 17.94C125.16 17.57 124.71 17.38 124.18 17.38H115.82V16.23H122.8C123.3 16.23 123.74 16.05 124.1 15.69C124.46 15.33 124.64 14.9 124.64 14.39V8.42999C124.64 7.74999 124.4 7.16999 123.93 6.69999C123.46 6.22999 122.89 5.98999 122.24 5.98999C121.59 5.98999 120.98 6.22999 120.51 6.69999C120.04 7.16999 119.8 7.74999 119.8 8.42999H106.57C106.57 7.74999 106.33 7.16999 105.86 6.69999C105.39 6.22999 104.82 5.98999 104.17 5.98999C103.52 5.98999 102.95 6.22999 102.47 6.69999C101.99 7.16999 101.76 7.74999 101.76 8.42999V11.82C101.76 13.05 102.19 14.09 103.04 14.95C103.9 15.81 104.93 16.23 106.13 16.23H111.03V17.38H102.67C102.14 17.38 101.69 17.57 101.32 17.94C100.95 18.31 100.76 18.76 100.76 19.29C100.76 19.82 100.95 20.27 101.32 20.66C101.69 21.04 102.14 21.24 102.67 21.24H124.16C124.69 21.24 125.14 21.05 125.51 20.66C125.88 20.28 126.07 19.82 126.07 19.29C126.07 18.76 125.88 18.31 125.51 17.94H125.53ZM107.67 12.68C106.95 12.55 106.58 12.18 106.58 11.56H119.81V12.68H107.67Z" fill="black"/>
<path d="M129.91 10.8401C129.32 10.8401 128.81 10.6301 128.4 10.2101C127.98 9.79006 127.77 9.30006 127.77 8.73006C127.77 8.16006 127.98 7.63006 128.4 7.22006C128.82 6.81006 129.32 6.60006 129.91 6.60006H138.6C140.27 6.60006 141.69 7.19006 142.86 8.38006C144.03 9.57006 144.62 10.9901 144.62 12.6601V29.7001C144.62 30.2901 144.42 30.8001 144.01 31.2101C143.6 31.6301 143.1 31.8301 142.51 31.8301C141.92 31.8301 141.41 31.6201 141 31.2101C140.59 30.8001 140.37 30.2901 140.37 29.7001V13.0401C140.37 12.4301 140.16 11.9101 139.73 11.4801C139.3 11.0501 138.78 10.8401 138.17 10.8401H137.41V29.6901C137.41 30.2801 137.2 30.7901 136.79 31.2001C136.37 31.6201 135.87 31.8201 135.28 31.8201C134.69 31.8201 134.22 31.6101 133.8 31.2001C133.38 30.7801 133.18 30.2801 133.18 29.6901V10.8401H129.92H129.91ZM151.3 19.8501V29.4901C151.3 30.1501 151.06 30.7101 150.59 31.1701C150.12 31.6301 149.55 31.8601 148.89 31.8601C148.23 31.8601 147.67 31.6301 147.21 31.1701C146.75 30.7101 146.52 30.1501 146.52 29.4901V8.47006C146.52 7.81006 146.75 7.25006 147.21 6.77006C147.67 6.30006 148.23 6.06006 148.89 6.06006C149.55 6.06006 150.11 6.30006 150.59 6.77006C151.06 7.24006 151.3 7.81006 151.3 8.47006V15.6101" fill="black"/>
<path d="M166.4 7.96997C168.64 7.96997 170.55 8.75997 172.13 10.34C173.71 11.92 174.5 13.82 174.5 16.03C174.5 18.05 173.85 19.8 172.56 21.28C171.27 22.76 169.63 23.68 167.66 24.03V24.16C167.66 24.8 167.43 25.33 166.99 25.77C166.54 26.21 166 26.43 165.36 26.43C164.72 26.43 164.21 26.21 163.76 25.77C163.31 25.33 163.09 24.79 163.09 24.16V21.82C163.09 21.18 163.31 20.65 163.76 20.21C164.21 19.77 164.74 19.55 165.36 19.55H166.41C167.38 19.55 168.2 19.2 168.89 18.51C169.58 17.82 169.93 16.99 169.93 16.03C169.93 15.07 169.58 14.24 168.89 13.56C168.2 12.88 167.37 12.54 166.41 12.54H164.34C163.37 12.54 162.55 12.88 161.86 13.56C161.17 14.24 160.82 15.06 160.82 16.03C160.82 16.67 160.6 17.21 160.15 17.66C159.7 18.11 159.17 18.33 158.55 18.33C157.93 18.33 157.37 18.11 156.92 17.66C156.47 17.21 156.25 16.67 156.25 16.03C156.25 13.82 157.04 11.92 158.62 10.34C160.2 8.75997 162.11 7.96997 164.35 7.96997H166.42H166.4ZM165.35 27.22C166.01 27.22 166.56 27.44 167.01 27.89C167.46 28.34 167.68 28.89 167.68 29.55C167.68 30.21 167.46 30.73 167.01 31.18C166.56 31.63 166.01 31.85 165.35 31.85C164.69 31.85 164.17 31.63 163.72 31.18C163.27 30.73 163.05 30.19 163.05 29.55C163.05 28.91 163.27 28.34 163.72 27.89C164.17 27.44 164.71 27.22 165.35 27.22Z" fill="black"/>
<path d="M65.41 11.66V8.67002C65.41 8.01002 65.64 7.45002 66.1 6.98002C66.56 6.51002 67.12 6.27002 67.78 6.27002C68.44 6.27002 69 6.51002 69.48 6.98002C69.95 7.45002 70.19 8.02002 70.19 8.67002V22.49C70.19 23.15 69.95 23.71 69.48 24.18C69.01 24.65 68.44 24.89 67.78 24.89C67.12 24.89 66.56 24.65 66.1 24.18C65.64 23.71 65.41 23.14 65.41 22.49V15.91" fill="black"/>
<path d="M70.64 30.58C70.64 31.22 70.43 31.74 70.02 32.16C69.6 32.58 69.1 32.78 68.51 32.78H51.1C49.89 32.78 48.86 32.35 48.01 31.5C47.16 30.65 46.73 29.6 46.73 28.37V27.44C46.73 26.78 46.97 26.22 47.44 25.75C47.91 25.28 48.48 25.04 49.14 25.04C49.8 25.04 50.36 25.28 50.83 25.75C51.3 26.22 51.54 26.79 51.54 27.44V27.41C51.54 28.02 51.9 28.4 52.63 28.53H68.42C69.01 28.53 69.52 28.72 69.95 29.11C70.38 29.49 70.61 29.98 70.66 30.57L70.64 30.58Z" fill="black"/>
<path d="M74.4 24.23C74.99 22.56 76.08 21.39 77.66 20.71V11.17H75.03C74.46 11.17 73.97 10.96 73.55 10.55C73.13 10.14 72.93 9.63003 72.93 9.04003C72.93 8.45003 73.14 7.94003 73.55 7.53003C73.96 7.12003 74.46 6.91003 75.03 6.91003H84.84C85.43 6.91003 85.93 7.12003 86.34 7.53003C86.75 7.95003 86.95 8.45003 86.95 9.04003C86.95 9.63003 86.75 10.14 86.34 10.55C85.93 10.97 85.43 11.17 84.84 11.17H82.24V20.71C83.8 21.39 84.87 22.56 85.46 24.23L87.01 28.8C87.29 30.07 86.84 30.97 85.66 31.5C85.44 31.57 85.22 31.6 85 31.6C84.54 31.6 84.13 31.47 83.77 31.22C83.41 30.97 83.14 30.61 82.96 30.15L81.45 25.58C81.12 24.86 80.62 24.49 79.94 24.49C79.26 24.49 78.76 24.85 78.43 25.58L76.92 30.15C76.39 31.33 75.49 31.78 74.22 31.5C73.04 30.97 72.59 30.07 72.87 28.8L74.42 24.23H74.4Z" fill="black"/>
<path d="M88.35 16.1V8.50001C88.35 7.93001 88.56 7.44001 88.97 7.02001C89.38 6.60001 89.88 6.39001 90.45 6.39001C91.02 6.39001 91.55 6.60001 91.96 7.02001C92.37 7.44001 92.59 7.93001 92.59 8.50001V29.99C92.59 30.58 92.38 31.09 91.96 31.5C91.54 31.91 91.04 32.12 90.45 32.12C89.86 32.12 89.39 31.91 88.97 31.5C88.55 31.09 88.35 30.58 88.35 29.99V20.35" fill="black"/>
<path d="M95.82 6.39001C96.41 6.39001 96.91 6.60001 97.32 7.02001C97.73 7.44001 97.93 7.93001 97.93 8.50001V29.99C97.93 30.58 97.73 31.09 97.32 31.5C96.91 31.92 96.41 32.12 95.82 32.12C95.23 32.12 94.72 31.91 94.31 31.5C93.89 31.08 93.69 30.58 93.69 29.99V8.50001C93.69 7.93001 93.9 7.44001 94.31 7.02001C94.73 6.60001 95.23 6.39001 95.82 6.39001Z" fill="black"/>
<path d="M56.45 16.51L61.46 20.43C62.03 20.88 62.1 21.74 61.56 22.23C59.86 23.78 57.61 24.67 55.25 24.67C50.18 24.67 46 20.56 46 15.58C46 10.6 50.18 6.47998 55.26 6.47998C57.55 6.47998 59.74 7.30998 61.42 8.78998C61.99 9.28998 62 10.18 61.4 10.65L56.44 14.62C55.84 15.1 55.84 16.03 56.45 16.5V16.51Z" fill="#27B6E2"/>
<path d="M64.34 18.98C65.7704 18.98 66.93 17.8205 66.93 16.39C66.93 14.9596 65.7704 13.8 64.34 13.8C62.9096 13.8 61.75 14.9596 61.75 16.39C61.75 17.8205 62.9096 18.98 64.34 18.98Z" fill="#27B6E2"/>
<path d="M88.35 18.98C89.7804 18.98 90.94 17.8205 90.94 16.39C90.94 14.9596 89.7804 13.8 88.35 13.8C86.9196 13.8 85.76 14.9596 85.76 16.39C85.76 17.8205 86.9196 18.98 88.35 18.98Z" fill="#27B6E2"/>
<path d="M113.44 18.98C114.87 18.98 116.03 17.8205 116.03 16.39C116.03 14.9596 114.87 13.8 113.44 13.8C112.01 13.8 110.85 14.9596 110.85 16.39C110.85 17.8205 112.01 18.98 113.44 18.98Z" fill="#27B6E2"/>
<path d="M151.3 18.98C152.73 18.98 153.89 17.8205 153.89 16.39C153.89 14.9596 152.73 13.8 151.3 13.8C149.87 13.8 148.71 14.9596 148.71 16.39C148.71 17.8205 149.87 18.98 151.3 18.98Z" fill="#27B6E2"/>
<path d="M34.1601 18.72H36.2501" stroke="#27B6E2" stroke-miterlimit="10" stroke-linecap="round"/>
<path d="M33.1001 14.18L35.0201 13.42" stroke="#27B6E2" stroke-miterlimit="10" stroke-linecap="round"/>
<path d="M33.1001 23.21L35.0201 23.97" stroke="#27B6E2" stroke-miterlimit="10" stroke-linecap="round"/>
<path d="M22.6601 21.2L31.2601 27.68V27.7C28.7301 30.7 24.8901 32.45 20.8301 32.45C13.5101 32.45 7.49011 26.75 7.49011 19.83C7.49011 12.91 13.5101 7.20996 20.8301 7.20996C24.8401 7.20996 28.6401 8.91996 31.1701 11.85L22.6401 18.43C21.7301 19.13 21.7401 20.51 22.6601 21.2Z" fill="white"/>
<path d="M13.4501 2.05002C11.6701 -0.249979 8.36013 -0.679979 6.05013 1.10002C3.74013 2.88002 3.32013 6.19002 5.10013 8.50002C5.37013 8.85002 5.87013 8.91002 6.22013 8.64002L13.3101 3.16002C13.6601 2.89002 13.7201 2.39002 13.4501 2.04002V2.05002Z" fill="#27B6E2"/>
<path d="M29.6901 2.05C31.4701 -0.259995 34.7801 -0.679995 37.0901 1.1C39.4001 2.88 39.8201 6.19 38.0401 8.5C37.7701 8.85 37.2701 8.91001 36.9201 8.64001L29.8301 3.16C29.4801 2.89 29.4201 2.39 29.6901 2.04V2.05Z" fill="#27B6E2"/>
<g style="mix-blend-mode:multiply">
<path d="M9.76012 28.84C9.35012 29.19 8.73012 29.14 8.39012 28.72C5.95012 25.62 4.75012 21.75 5.04012 17.84C5.36012 13.61 7.40012 9.66997 10.7101 6.89997C14.0201 4.12997 18.3301 2.73997 22.7001 3.04997C26.7201 3.32997 30.4701 5.02997 33.2701 7.79997C33.6701 8.19997 33.6201 8.84997 33.1901 9.20997L30.9801 11.06C30.5701 11.41 29.9501 11.36 29.5601 10.99C27.6201 9.14997 25.0601 8.02997 22.3401 7.83997C19.2801 7.61997 16.2701 8.58997 13.9501 10.53C11.6301 12.47 10.2001 15.23 9.98012 18.19C9.78012 20.81 10.5401 23.41 12.1101 25.53C12.4501 25.98 12.4001 26.63 11.9701 26.99L9.76012 28.84Z" fill="#27B6E2"/>
</g>
<g style="mix-blend-mode:multiply">
<path d="M34.4601 27.18C34.9401 27.48 35.0701 28.12 34.7301 28.56C33.6501 29.97 32.3301 31.2 30.8301 32.19C29.0401 33.38 27.0301 34.21 24.9101 34.65C22.7901 35.09 20.6001 35.11 18.4701 34.73C16.3401 34.35 14.3101 33.56 12.4901 32.41C10.6701 31.26 9.11013 29.78 7.88013 28.05C6.65013 26.32 5.79013 24.37 5.34013 22.31C4.89013 20.25 4.86013 18.13 5.26013 16.07C5.60013 14.32 6.23013 12.64 7.13013 11.1C7.40013 10.63 8.01013 10.51 8.47013 10.8L10.9301 12.35C11.4101 12.65 11.5401 13.28 11.2701 13.78C10.7301 14.78 10.3401 15.85 10.1301 16.96C9.85013 18.41 9.87013 19.89 10.1901 21.33C10.5001 22.77 11.1101 24.13 11.9701 25.35C12.8301 26.56 13.9201 27.6 15.2001 28.4C16.4701 29.2 17.8901 29.75 19.3801 30.02C20.8701 30.29 22.4001 30.27 23.8901 29.97C25.3701 29.67 26.7801 29.08 28.0301 28.25C29.0101 27.6 29.8701 26.81 30.6001 25.91C30.9401 25.49 31.5401 25.36 32.0001 25.65L34.4601 27.2V27.18Z" fill="#27B6E2"/>
</g>
<path d="M21.3501 12.59C21.3501 13.06 20.9701 13.44 20.5001 13.44C20.0301 13.44 19.6501 13.06 19.6501 12.59C19.6501 12.12 20.0301 11.74 20.5001 11.74C20.9701 11.74 21.3501 12.12 21.3501 12.59Z" fill="black" stroke="black"/>
<path d="M21.0001 19.5L33.0001 9.5" stroke="black" stroke-width="3" stroke-miterlimit="10" stroke-linecap="round"/>
<path d="M21.0001 19.5699L28.6501 23.9699" stroke="black" stroke-width="3" stroke-miterlimit="10" stroke-linecap="round"/>
<path d="M12.6201 31.57L9.12014 35.07C8.50014 35.69 8.55014 36.75 9.23014 37.43C9.91014 38.11 10.9701 38.16 11.5901 37.54L15.0901 34.04C15.7101 33.42 15.6601 32.36 14.9801 31.68C14.3001 31 13.2401 30.95 12.6201 31.57Z" fill="#27B6E2"/>
<path d="M27.2901 33.82L30.7901 37.32C31.4101 37.94 32.4701 37.89 33.1501 37.21C33.8301 36.53 33.8801 35.47 33.2601 34.85L29.7601 31.35C29.1401 30.73 28.0801 30.78 27.4001 31.46C26.7201 32.14 26.6701 33.2 27.2901 33.82Z" fill="#27B6E2"/>
</g>
<defs>
<filter id="filter0_d_166_22" x="-0.00146484" y="-0.00158691" width="178.501" height="45.976" filterUnits="userSpaceOnUse" color-interpolation-filters="sRGB">
<feFlood flood-opacity="0" result="BackgroundImageFix"/>
<feColorMatrix in="SourceAlpha" type="matrix" values="0 0 0 0 0 0 0 0 0 0 0 0 0 0 0 0 0 0 127 0" result="hardAlpha"/>
<feOffset dy="4"/>
<feGaussianBlur stdDeviation="2"/>
<feComposite in2="hardAlpha" operator="out"/>
<feColorMatrix type="matrix" values="0 0 0 0 0 0 0 0 0 0 0 0 0 0 0 0 0 0 0.25 0"/>
<feBlend mode="normal" in2="BackgroundImageFix" result="effect1_dropShadow_166_22"/>
<feBlend mode="normal" in="SourceGraphic" in2="effect1_dropShadow_166_22" result="shape"/>
</filter>
</defs>
</svg>
