<svg width="36" height="38" viewBox="0 0 36 38" fill="none" xmlns="http://www.w3.org/2000/svg">
<g clip-path="url(#clip0_166_2)">
<path d="M30.1601 18.72H32.2501" stroke="#27B6E2" stroke-miterlimit="10" stroke-linecap="round"/>
<path d="M29.1001 14.18L31.0201 13.42" stroke="#27B6E2" stroke-miterlimit="10" stroke-linecap="round"/>
<path d="M29.1001 23.21L31.0201 23.97" stroke="#27B6E2" stroke-miterlimit="10" stroke-linecap="round"/>
<path d="M18.6601 21.2L27.2601 27.68V27.7C24.7301 30.7 20.8901 32.45 16.8301 32.45C9.51011 32.45 3.49011 26.75 3.49011 19.83C3.49011 12.91 9.51011 7.20996 16.8301 7.20996C20.8401 7.20996 24.6401 8.91996 27.1701 11.85L18.6401 18.43C17.7301 19.13 17.7401 20.51 18.6601 21.2Z" fill="white"/>
<path d="M9.45013 2.05002C7.67013 -0.249979 4.36013 -0.679979 2.05013 1.10002C-0.259873 2.88002 -0.679873 6.19002 1.10013 8.50002C1.37013 8.85002 1.87013 8.91002 2.22013 8.64002L9.31013 3.16002C9.66013 2.89002 9.72013 2.39002 9.45013 2.04002V2.05002Z" fill="#27B6E2"/>
<path d="M25.6901 2.05C27.4701 -0.259995 30.7801 -0.679995 33.0901 1.1C35.4001 2.88 35.8201 6.19 34.0401 8.5C33.7701 8.85 33.2701 8.91001 32.9201 8.64001L25.8301 3.16C25.4801 2.89 25.4201 2.39 25.6901 2.04V2.05Z" fill="#27B6E2"/>
<g style="mix-blend-mode:multiply">
<path d="M5.76012 28.84C5.35012 29.19 4.73012 29.14 4.39012 28.72C1.95012 25.62 0.750124 21.75 1.04012 17.84C1.36012 13.61 3.40012 9.66997 6.71012 6.89997C10.0201 4.12997 14.3301 2.73997 18.7001 3.04997C22.7201 3.32997 26.4701 5.02997 29.2701 7.79997C29.6701 8.19997 29.6201 8.84997 29.1901 9.20997L26.9801 11.06C26.5701 11.41 25.9501 11.36 25.5601 10.99C23.6201 9.14997 21.0601 8.02997 18.3401 7.83997C15.2801 7.61997 12.2701 8.58997 9.95012 10.53C7.63012 12.47 6.20012 15.23 5.98012 18.19C5.78012 20.81 6.54012 23.41 8.11012 25.53C8.45012 25.98 8.40012 26.63 7.97012 26.99L5.76012 28.84Z" fill="#27B6E2"/>
</g>
<g style="mix-blend-mode:multiply">
<path d="M30.4601 27.18C30.9401 27.48 31.0701 28.12 30.7301 28.56C29.6501 29.97 28.3301 31.2 26.8301 32.19C25.0401 33.38 23.0301 34.21 20.9101 34.65C18.7901 35.09 16.6001 35.11 14.4701 34.73C12.3401 34.35 10.3101 33.56 8.49013 32.41C6.67013 31.26 5.11013 29.78 3.88013 28.05C2.65013 26.32 1.79013 24.37 1.34013 22.31C0.890126 20.25 0.860126 18.13 1.26013 16.07C1.60013 14.32 2.23013 12.64 3.13013 11.1C3.40013 10.63 4.01013 10.51 4.47013 10.8L6.93013 12.35C7.41013 12.65 7.54013 13.28 7.27013 13.78C6.73013 14.78 6.34013 15.85 6.13013 16.96C5.85013 18.41 5.87013 19.89 6.19013 21.33C6.50013 22.77 7.11013 24.13 7.97013 25.35C8.83013 26.56 9.92013 27.6 11.2001 28.4C12.4701 29.2 13.8901 29.75 15.3801 30.02C16.8701 30.29 18.4001 30.27 19.8901 29.97C21.3701 29.67 22.7801 29.08 24.0301 28.25C25.0101 27.6 25.8701 26.81 26.6001 25.91C26.9401 25.49 27.5401 25.36 28.0001 25.65L30.4601 27.2V27.18Z" fill="#27B6E2"/>
</g>
<path d="M17.3501 12.59C17.3501 13.06 16.9701 13.44 16.5001 13.44C16.0301 13.44 15.6501 13.06 15.6501 12.59C15.6501 12.12 16.0301 11.74 16.5001 11.74C16.9701 11.74 17.3501 12.12 17.3501 12.59Z" fill="black" stroke="black"/>
<path d="M17.0001 19.5L29.0001 9.5" stroke="black" stroke-width="3" stroke-miterlimit="10" stroke-linecap="round"/>
<path d="M17.0001 19.5699L24.6501 23.9699" stroke="black" stroke-width="3" stroke-miterlimit="10" stroke-linecap="round"/>
<path d="M8.62014 31.57L5.12014 35.07C4.50014 35.69 4.55014 36.75 5.23014 37.43C5.91014 38.11 6.97014 38.16 7.59014 37.54L11.0901 34.04C11.7101 33.42 11.6601 32.36 10.9801 31.68C10.3001 31 9.24014 30.95 8.62014 31.57Z" fill="#27B6E2"/>
<path d="M23.2901 33.82L26.7901 37.32C27.4101 37.94 28.4701 37.89 29.1501 37.21C29.8301 36.53 29.8801 35.47 29.2601 34.85L25.7601 31.35C25.1401 30.73 24.0801 30.78 23.4001 31.46C22.7201 32.14 22.6701 33.2 23.2901 33.82Z" fill="#27B6E2"/>
</g>
<defs>
<clipPath id="clip0_166_2">
<rect width="35.14" height="37.98" fill="white"/>
</clipPath>
</defs>
</svg>
