<svg width="20" height="20" viewBox="0 0 20 20" fill="none" xmlns="http://www.w3.org/2000/svg">
<path d="M16.6666 15.8333C16.6666 14.5754 15.4298 13.5054 13.7036 13.1088M12.2221 15.8333C12.2221 14.2378 10.2323 12.9444 7.7777 12.9444C5.3231 12.9444 3.33325 14.2378 3.33325 15.8333M12.2221 10.7778C13.8585 10.7778 15.1851 9.48438 15.1851 7.88889C15.1851 6.2934 13.8585 5 12.2221 5M7.7777 10.7778C6.1413 10.7778 4.81473 9.48438 4.81473 7.88889C4.81473 6.2934 6.1413 5 7.7777 5C9.4141 5 10.7407 6.2934 10.7407 7.88889C10.7407 9.48438 9.4141 10.7778 7.7777 10.7778Z" stroke="#242424" stroke-width="1.5" stroke-linecap="round" stroke-linejoin="round"/>
</svg>
