<svg width="395" height="832" viewBox="0 0 395 832" fill="none" xmlns="http://www.w3.org/2000/svg">
<rect x="386" y="350" width="9" height="52" rx="3" fill="white"/>
<rect x="386" y="206" width="9" height="102" rx="3" fill="white"/>
<g filter="url(#filter0_ii_1078_1610)">
<rect width="392" height="832" rx="48" fill="white"/>
</g>
<g clip-path="url(#clip0_1078_1610)">
<rect x="16" y="16" width="360" height="800" rx="34" fill="white"/>
<rect width="360" height="800" transform="translate(16 16)" fill="#FBFBFB"/>
<path d="M124.191 222.664C126.965 222.684 129.699 224.324 129.719 229.5C129.719 234.383 127.512 237.195 124.035 237.195C121.301 237.195 119.426 235.496 119.113 233.152H121.633C121.887 234.266 122.746 234.988 124.035 234.988C126.086 234.988 127.238 233.172 127.258 230.145H127.102C126.379 231.375 125.031 232.098 123.469 232.098C120.949 232.098 118.996 230.184 118.977 227.508C118.977 224.734 121.047 222.645 124.191 222.664ZM124.211 224.715C122.629 224.715 121.438 225.945 121.457 227.449C121.457 228.973 122.59 230.164 124.172 230.164C125.734 230.164 126.965 228.895 126.945 227.43C126.945 225.984 125.793 224.715 124.211 224.715ZM145.547 221.102V231.395H143.359V230.672H140.059V229.344H143.359V221.102H145.547ZM130.723 227.469C134.141 227.469 138.398 227.43 142.188 227.059L142.305 228.426C140.693 228.65 139.033 228.787 137.402 228.855V231.414H135.254V228.953C133.74 228.992 132.285 229.002 130.957 228.992L130.723 227.469ZM145.547 231.941V235.906H135.508V237.039H146.016V238.582H133.379V234.48H143.398V233.426H133.301V231.941H145.547ZM136.426 221.375C139.043 221.375 140.84 222.43 140.84 224.031C140.84 225.672 139.043 226.668 136.426 226.668C133.75 226.668 131.973 225.672 131.973 224.031C131.973 222.43 133.75 221.375 136.426 221.375ZM136.426 222.82C134.941 222.82 134.023 223.289 134.043 224.031C134.023 224.773 134.941 225.223 136.426 225.223C137.871 225.223 138.809 224.773 138.809 224.031C138.809 223.289 137.871 222.82 136.426 222.82ZM167.887 229.539V231.277H151.773V229.539H158.766V227.859H153.746V221.883H165.934V223.582H155.914V226.141H166.031V227.859H160.895V229.539H167.887ZM159.801 232.293C163.609 232.293 165.895 233.445 165.914 235.516C165.895 237.566 163.609 238.738 159.801 238.738C155.953 238.738 153.648 237.566 153.648 235.516C153.648 233.445 155.953 232.293 159.801 232.293ZM159.801 233.953C157.223 233.953 155.836 234.5 155.855 235.516C155.836 236.531 157.223 237.059 159.801 237.059C162.32 237.059 163.727 236.531 163.746 235.516C163.727 234.5 162.32 233.953 159.801 233.953ZM173.305 222.371C175.961 222.371 177.875 224.793 177.895 228.602C177.875 232.449 175.961 234.852 173.305 234.852C170.629 234.852 168.695 232.449 168.715 228.602C168.695 224.793 170.629 222.371 173.305 222.371ZM173.305 224.324C171.82 224.324 170.805 225.906 170.805 228.602C170.805 231.316 171.82 232.898 173.305 232.898C174.809 232.898 175.805 231.316 175.805 228.602C175.805 225.906 174.809 224.324 173.305 224.324ZM182.387 221.082V227.859H185.102V229.695H182.387V238.738H180.219V221.082H182.387ZM200.051 221.082V238.758H197.902V221.082H200.051ZM194.621 222.625V229.246H188.547V232.801C191.33 232.781 193.732 232.645 196.477 232.176L196.672 233.953C193.664 234.48 191.027 234.578 187.863 234.578H186.32V227.527H192.414V224.383H186.301V222.625H194.621ZM221.16 221.082V231.57H218.992V227.254H215.984V225.477H218.992V221.082H221.16ZM215.184 232.02C218.934 232.02 221.219 233.25 221.219 235.379C221.219 237.508 218.934 238.738 215.184 238.738C211.453 238.738 209.168 237.508 209.188 235.379C209.168 233.25 211.453 232.02 215.184 232.02ZM215.184 233.68C212.723 233.68 211.336 234.266 211.336 235.379C211.336 236.473 212.723 237.059 215.184 237.059C217.645 237.059 219.051 236.473 219.051 235.379C219.051 234.266 217.645 233.68 215.184 233.68ZM212.859 224.109C212.859 226.258 214.285 228.426 217.02 229.344L215.926 231.062C213.963 230.398 212.566 229.051 211.805 227.391C211.023 229.275 209.549 230.779 207.449 231.531L206.316 229.812C209.148 228.836 210.652 226.453 210.652 224.129V223.992H206.98V222.234H216.512V223.992H212.859V224.109ZM237.906 221.082V238.738H235.719V221.082H237.906ZM232.633 222.957C232.633 228.211 230.602 232.684 224.41 235.613L223.277 233.875C227.896 231.678 230.045 228.689 230.426 224.676H224.176V222.957H232.633ZM254.652 221.082V238.738H252.484V221.082H254.652ZM240.023 233.836C241.43 233.826 243.021 233.826 244.691 233.777V232.156C242.699 231.844 241.41 230.623 241.41 228.953C241.41 226.961 243.168 225.633 245.746 225.633C248.344 225.633 250.141 226.961 250.141 228.953C250.141 230.613 248.842 231.824 246.859 232.137V233.699C248.412 233.631 249.975 233.504 251.449 233.309L251.605 234.93C247.719 235.594 243.52 235.633 240.336 235.633L240.023 233.836ZM251.137 223.113V224.832H240.395V223.113H244.691V221.141H246.859V223.113H251.137ZM245.746 227.293C244.418 227.312 243.461 227.918 243.48 228.953C243.461 229.969 244.418 230.574 245.746 230.555C247.133 230.574 248.051 229.969 248.051 228.953C248.051 227.918 247.133 227.312 245.746 227.293ZM262.453 222.312C265.246 222.293 267.297 224.07 267.316 226.57C267.297 229.09 265.246 230.848 262.453 230.848C259.68 230.848 257.609 229.09 257.609 226.57C257.609 224.07 259.68 222.293 262.453 222.312ZM262.453 224.188C260.91 224.188 259.758 225.105 259.758 226.57C259.758 228.055 260.91 228.953 262.453 228.953C264.016 228.953 265.188 228.055 265.188 226.57C265.188 225.105 264.016 224.188 262.453 224.188ZM271.438 221.082V238.758H269.27V221.082H271.438ZM256.809 233.289C259.992 233.289 264.406 233.25 268.215 232.703L268.391 234.285C264.426 235.047 260.188 235.066 257.082 235.066L256.809 233.289Z" fill="#444444"/>
<path d="M35.9736 23.6816C37.6621 23.6943 39.4395 24.71 39.4395 28.0742C39.4395 31.2988 38.0557 33.127 35.8467 33.127C34.1582 33.127 32.9648 32.0859 32.749 30.5879H34.1328C34.3232 31.3623 34.9199 31.9082 35.8467 31.9082C37.2686 31.9082 38.0938 30.6641 38.1064 28.5693H37.9922C37.4971 29.3438 36.6338 29.8135 35.6436 29.8135C33.9932 29.8135 32.6729 28.5566 32.6729 26.792C32.6729 25.04 33.9805 23.6689 35.9736 23.6816ZM35.9736 24.8496C34.8564 24.8496 34.0312 25.7129 34.0312 26.7666C34.0312 27.833 34.8311 28.6709 35.9482 28.6709C37.0527 28.6709 37.916 27.7695 37.916 26.7539C37.916 25.7637 37.1035 24.8496 35.9736 24.8496ZM41.4885 31.8193C40.9934 31.8193 40.5744 31.4131 40.5871 30.918C40.5744 30.4229 40.9934 30.0166 41.4885 30.0166C41.9709 30.0166 42.3898 30.4229 42.3898 30.918C42.3898 31.4131 41.9709 31.8193 41.4885 31.8193ZM41.4885 26.8047C40.9934 26.8047 40.5744 26.3984 40.5871 25.9033C40.5744 25.4082 40.9934 25.002 41.4885 25.002C41.9709 25.002 42.3898 25.4082 42.3898 25.9033C42.3898 26.3984 41.9709 26.8047 41.4885 26.8047ZM43.4867 31.21V30.0801L47.5492 23.8086H49.2758V30.0293H50.5326V31.21H49.2758V33H47.9555V31.21H43.4867ZM44.9594 30.0293H47.9555V25.4717H47.8539L44.9594 29.9531V30.0293ZM54.816 33.127C52.6832 33.127 51.4391 31.4131 51.4391 28.4043C51.4391 25.4209 52.7086 23.6816 54.816 23.6816C56.9234 23.6816 58.193 25.4209 58.193 28.4043C58.193 31.4131 56.9361 33.127 54.816 33.127ZM54.816 31.9209C56.0602 31.9209 56.7965 30.7021 56.7965 28.4043C56.7965 26.1191 56.0475 24.8623 54.816 24.8623C53.5846 24.8623 52.8355 26.1191 52.8355 28.4043C52.8355 30.7021 53.5719 31.9209 54.816 31.9209Z" fill="#444444"/>
<path d="M357.333 32.1133L357.333 31L358.667 31L358.667 27L357.333 27L357.333 25.8867C357.333 25.6515 357.24 25.426 357.074 25.2597C356.907 25.0934 356.682 25 356.447 25L346.22 25C345.733 25 345.333 25.4 345.333 25.8867L345.333 32.1133C345.333 32.3485 345.427 32.574 345.593 32.7403C345.759 32.9066 345.985 33 346.22 33L356.447 33C356.933 33 357.333 32.6 357.333 32.1133Z" fill="#444444"/>
<path fill-rule="evenodd" clip-rule="evenodd" d="M338.245 24.5556C338.245 24.1138 337.886 23.7556 337.445 23.7556C337.003 23.7556 336.645 24.1138 336.645 24.5556V33.4445C336.645 33.8863 337.003 34.2445 337.445 34.2445C337.886 34.2445 338.245 33.8863 338.245 33.4445V24.5556ZM332.289 29.2666C332.289 28.8247 331.931 28.4666 331.489 28.4666C331.047 28.4666 330.689 28.8247 330.689 29.2666V33.4443C330.689 33.8862 331.047 34.2443 331.489 34.2443C331.931 34.2443 332.289 33.8862 332.289 33.4443V29.2666ZM328.556 30.8667C328.997 30.8667 329.356 31.2249 329.356 31.6667V33.4445C329.356 33.8863 328.997 34.2445 328.556 34.2445C328.114 34.2445 327.756 33.8863 327.756 33.4445V31.6667C327.756 31.2249 328.114 30.8667 328.556 30.8667ZM335.311 26.9556C335.311 26.5137 334.953 26.1556 334.511 26.1556C334.069 26.1556 333.711 26.5137 333.711 26.9556V33.4445C333.711 33.8863 334.069 34.2445 334.511 34.2445C334.953 34.2445 335.311 33.8863 335.311 33.4445V26.9556Z" fill="#222227"/>
<path fill-rule="evenodd" clip-rule="evenodd" d="M311.866 25.6511C312.833 25.2493 313.871 25.0431 314.918 25.0444L314.919 25.0444C317.122 25.0444 319.115 25.939 320.557 27.3864C320.834 27.6647 321.284 27.6657 321.562 27.3885C321.84 27.1114 321.841 26.6612 321.564 26.3829C319.867 24.6784 317.516 23.6223 314.92 23.6222L314.92 23.6222L314.919 24.3333V23.6222L314.92 23.6222C313.684 23.6207 312.461 23.8638 311.32 24.3377C310.179 24.8117 309.144 25.507 308.273 26.3835C307.996 26.6622 307.998 27.1124 308.277 27.3892C308.555 27.6659 309.006 27.6644 309.282 27.3858C310.02 26.6426 310.899 26.053 311.866 25.6511ZM312.842 28.1344C313.498 27.8542 314.205 27.7102 314.918 27.7111H314.92C315.634 27.7102 316.34 27.8542 316.996 28.1344C317.653 28.4146 318.245 28.8252 318.738 29.3412C319.01 29.6252 319.46 29.6355 319.744 29.3642C320.028 29.0929 320.038 28.6427 319.767 28.3588C319.141 27.7035 318.388 27.1822 317.555 26.8264C316.722 26.4707 315.825 26.2879 314.919 26.2889L314.92 26.2889L314.919 27L314.918 26.2889L314.919 26.2889C314.013 26.2879 313.117 26.4707 312.283 26.8264C311.45 27.1822 310.698 27.7035 310.072 28.3588C309.8 28.6427 309.811 29.0929 310.095 29.3642C310.379 29.6355 310.829 29.6252 311.1 29.3412C311.593 28.8252 312.186 28.4146 312.842 28.1344ZM313.836 30.6109C314.176 30.4568 314.545 30.3773 314.918 30.3778L314.919 30.3778C315.705 30.3778 316.41 30.7229 316.891 31.2716C317.15 31.5669 317.6 31.5962 317.895 31.3372C318.19 31.0782 318.219 30.6289 317.96 30.3336C317.22 29.4905 316.132 28.9556 314.919 28.9555L314.92 28.9555L314.919 29.6666V28.9555H314.919C314.343 28.9549 313.774 29.0777 313.249 29.3155C312.724 29.5533 312.257 29.9008 311.877 30.3345C311.619 30.6301 311.649 31.0793 311.944 31.3379C312.24 31.5965 312.689 31.5664 312.948 31.2708C313.193 30.9899 313.496 30.7649 313.836 30.6109ZM315.889 32.7333C315.889 33.2242 315.491 33.6222 315 33.6222C314.509 33.6222 314.111 33.2242 314.111 32.7333C314.111 32.2424 314.509 31.8444 315 31.8444C315.491 31.8444 315.889 32.2424 315.889 32.7333Z" fill="#222227"/>
<g filter="url(#filter1_d_1078_1610)">
<rect x="40" y="258" width="312" height="258" rx="12" fill="white"/>
<rect x="40.5" y="258.5" width="311" height="257" rx="11.5" stroke="#444444"/>
<rect x="140" y="452" width="112" height="40" rx="6" fill="#242424"/>
<path d="M177.179 468.4C177.179 469.74 178.177 471.053 180.119 471.586L179.421 472.762C178 472.379 176.988 471.545 176.441 470.479C175.894 471.654 174.862 472.563 173.392 472.98L172.668 471.805C174.623 471.258 175.662 469.877 175.662 468.4V468.373H173.078V467.17H175.662V465.803H177.193V467.17H179.763V468.373H177.179V468.4ZM182.484 465.857V468.838H184.207V470.096H182.484V473.131H180.966V465.857H182.484ZM182.484 473.65V478.066H174.5V473.65H182.484ZM176.004 474.854V476.836H180.98V474.854H176.004ZM187.862 466.76C188.984 466.76 189.906 467.382 190.46 468.469H193.345V465.857H194.849V478.23H193.345V473.555H190.57C190.036 474.785 189.059 475.496 187.862 475.496C186.003 475.496 184.691 473.814 184.691 471.121C184.691 468.455 186.003 466.76 187.862 466.76ZM187.862 468.127C186.837 468.127 186.14 469.234 186.154 471.121C186.14 473.021 186.837 474.129 187.862 474.129C188.888 474.129 189.571 473.021 189.585 471.121C189.571 469.234 188.888 468.127 187.862 468.127ZM190.884 469.713C190.973 470.144 191.021 470.615 191.021 471.121C191.021 471.552 190.987 471.948 190.925 472.324H193.345V469.713H190.884ZM205.915 465.857V470.779H207.815V472.037H205.915V478.217H204.411V465.857H205.915ZM203.454 467.758V468.975H196.167V467.758H199.093V466.035H200.61V467.758H203.454ZM199.858 469.781C201.636 469.781 202.962 470.984 202.962 472.693C202.962 474.402 201.636 475.592 199.858 475.592C198.054 475.592 196.727 474.402 196.741 472.693C196.727 470.984 198.054 469.781 199.858 469.781ZM199.858 471.025C198.887 471.025 198.19 471.682 198.19 472.693C198.19 473.705 198.887 474.348 199.858 474.334C200.802 474.348 201.499 473.705 201.512 472.693C201.499 471.682 200.802 471.025 199.858 471.025ZM218.307 465.857V478.217H216.776V465.857H218.307ZM214.616 467.17C214.616 470.848 213.194 473.979 208.86 476.029L208.067 474.812C211.3 473.274 212.804 471.183 213.071 468.373H208.696V467.17H214.616Z" fill="white"/>
<rect x="72.5" y="306.5" width="247" height="39" rx="5.5" fill="white"/>
<rect x="72.5" y="306.5" width="247" height="39" rx="5.5" stroke="#E0E0E0"/>
<path d="M90.9316 320.678C90.9316 323.822 88.7031 326.023 85.0801 326.98L84.5605 325.955C87.5137 325.189 89.3047 323.658 89.5371 321.717H85.2441V320.678H90.9316ZM94.6094 319.926V326.816H93.3105V319.926H94.6094ZM94.6094 327.363V331.998H86.584V327.363H94.6094ZM87.8691 328.402V330.959H93.3379V328.402H87.8691ZM102.408 320.992V326.707H96.6793V320.992H102.408ZM97.9508 322.045V325.682H101.136V322.045H97.9508ZM105.826 319.898V323.562H107.603V324.656H105.826V328.881H104.527V319.898H105.826ZM106.345 330.85V331.902H98.0602V328.02H99.359V330.85H106.345ZM119.394 324.725V325.791H117.493V332.148H116.195V319.912H117.493V324.725H119.394ZM109.7 321.102V327.992C111.409 327.992 113.194 327.849 115.142 327.445L115.292 328.539C113.2 328.963 111.259 329.072 109.427 329.072H108.415V321.102H109.7Z" fill="#444444"/>
<rect x="72.5" y="384.5" width="247" height="39" rx="5.5" fill="white"/>
<rect x="72.5" y="384.5" width="247" height="39" rx="5.5" stroke="#E0E0E0"/>
<path d="M87.9785 404.666H86.9395L87.0215 402.629L85.2988 403.723L84.7793 402.82L86.5977 401.891L84.7793 400.947L85.2988 400.045L87.0215 401.139L86.9395 399.102H87.9785L87.8828 401.139L89.6055 400.045L90.1387 400.947L88.3203 401.891L90.1387 402.82L89.6055 403.723L87.8828 402.629L87.9785 404.666ZM94.5465 404.666H93.5074L93.5895 402.629L91.8668 403.723L91.3473 402.82L93.1656 401.891L91.3473 400.947L91.8668 400.045L93.5895 401.139L93.5074 399.102H94.5465L94.4508 401.139L96.1734 400.045L96.7066 400.947L94.8883 401.891L96.7066 402.82L96.1734 403.723L94.4508 402.629L94.5465 404.666ZM101.114 404.666H100.075L100.157 402.629L98.4348 403.723L97.9152 402.82L99.7336 401.891L97.9152 400.947L98.4348 400.045L100.157 401.139L100.075 399.102H101.114L101.019 401.139L102.741 400.045L103.275 400.947L101.456 401.891L103.275 402.82L102.741 403.723L101.019 402.629L101.114 404.666ZM107.682 404.666H106.643L106.725 402.629L105.003 403.723L104.483 402.82L106.302 401.891L104.483 400.947L105.003 400.045L106.725 401.139L106.643 399.102H107.682L107.587 401.139L109.309 400.045L109.843 400.947L108.024 401.891L109.843 402.82L109.309 403.723L107.587 402.629L107.682 404.666Z" fill="#444444"/>
<path d="M76.1602 288.629C76.1602 289.777 77.0156 290.902 78.6797 291.359L78.082 292.367C76.8633 292.039 75.9961 291.324 75.5273 290.41C75.0586 291.418 74.1738 292.197 72.9141 292.555L72.293 291.547C73.9688 291.078 74.8594 289.895 74.8594 288.629V288.605H72.6445V287.574H74.8594V286.402H76.1719V287.574H78.375V288.605H76.1602V288.629ZM80.707 286.449V289.004H82.1836V290.082H80.707V292.684H79.4062V286.449H80.707ZM80.707 293.129V296.914H73.8633V293.129H80.707ZM75.1523 294.16V295.859H79.418V294.16H75.1523ZM85.3172 287.223C86.2781 287.223 87.0691 287.756 87.5437 288.688H90.0164V286.449H91.3055V297.055H90.0164V293.047H87.6375C87.1805 294.102 86.3426 294.711 85.3172 294.711C83.7234 294.711 82.5984 293.27 82.5984 290.961C82.5984 288.676 83.7234 287.223 85.3172 287.223ZM85.3172 288.395C84.4383 288.395 83.8406 289.344 83.8523 290.961C83.8406 292.59 84.4383 293.539 85.3172 293.539C86.1961 293.539 86.782 292.59 86.7937 290.961C86.782 289.344 86.1961 288.395 85.3172 288.395ZM87.907 289.754C87.9832 290.123 88.0242 290.527 88.0242 290.961C88.0242 291.33 87.9949 291.67 87.9422 291.992H90.0164V289.754H87.907ZM96.2906 289.461C96.2906 291.102 97.2633 292.965 98.9391 293.738L98.2125 294.77C97.0172 294.207 96.1324 293.07 95.6578 291.746C95.1773 293.199 94.2516 294.441 93.0328 295.027L92.2711 294.008C93.9586 293.211 94.9781 291.219 94.9898 289.461V288.57H92.6812V287.492H98.5055V288.57H96.2906V289.461ZM100.791 286.449V290.574H102.42V291.664H100.791V297.043H99.4898V286.449H100.791ZM113.925 286.449V297.055H112.612V286.449H113.925ZM108.218 287.223C109.812 287.223 110.972 288.676 110.984 290.961C110.972 293.27 109.812 294.711 108.218 294.711C106.612 294.711 105.452 293.27 105.452 290.961C105.452 288.676 106.612 287.223 108.218 287.223ZM108.218 288.395C107.316 288.395 106.706 289.344 106.706 290.961C106.706 292.59 107.316 293.539 108.218 293.539C109.109 293.539 109.718 292.59 109.718 290.961C109.718 289.344 109.109 288.395 108.218 288.395ZM124.852 291.84V292.871H115.172V291.84H124.852ZM123.656 286.672V289.391H117.691V290.152H123.867V291.148H116.402V288.441H122.355V287.691H116.367V286.672H123.656ZM123.691 293.633V296.914H116.438V293.633H123.691ZM117.715 294.664V295.859H122.402V294.664H117.715Z" fill="#444444"/>
<path d="M81.4922 364.449V375.043H80.2383V369.664H79.1836V374.504H77.9531V364.648H79.1836V368.598H80.2383V364.449H81.4922ZM77.3438 365.703V366.758H76.582V371.316C76.8984 371.293 77.1973 371.264 77.4844 371.223L77.5547 372.172C75.9023 372.512 73.7227 372.547 72.3867 372.547L72.2344 371.469L73.2188 371.457V366.758H72.4453V365.703H77.3438ZM74.3906 371.434L75.3984 371.398V366.758H74.3906V371.434ZM87.8953 365.902C87.8953 367.543 89.5008 369.184 91.7156 369.57L91.1297 370.66C89.3543 370.285 87.9012 369.213 87.2156 367.789C86.5125 369.201 85.0594 370.279 83.2898 370.66L82.7156 369.57C84.907 369.172 86.5008 367.531 86.5125 365.902V365.117H87.8953V365.902ZM92.1023 372.617V373.695H82.4227V372.617H92.1023ZM101.435 364.461V375.031H100.111V372.605H97.8609V371.621H100.111V364.461H101.435ZM92.4469 369.898C94.4391 369.898 97.0875 369.887 99.3844 369.57L99.4664 370.531C98.4937 370.701 97.4918 370.801 96.5133 370.859V374.715H95.2008V370.93C94.275 370.959 93.3961 370.965 92.6109 370.965L92.4469 369.898ZM95.9273 364.918C97.4859 364.918 98.6227 365.797 98.6227 367.062C98.6227 368.352 97.4859 369.195 95.9273 369.195C94.3336 369.195 93.2086 368.352 93.2086 367.062C93.2086 365.797 94.3336 364.918 95.9273 364.918ZM95.9273 365.914C95.0367 365.914 94.4391 366.371 94.4391 367.062C94.4391 367.777 95.0367 368.199 95.9273 368.199C96.7711 368.199 97.3805 367.777 97.3805 367.062C97.3805 366.371 96.7711 365.914 95.9273 365.914ZM111.166 369.418V370.461H103.737V365.375H111.084V366.43H105.026V369.418H111.166ZM112.245 372.617V373.695H102.565V372.617H112.245Z" fill="#444444"/>
</g>
<path fill-rule="evenodd" clip-rule="evenodd" d="M353.293 82.7071C353.683 83.0976 354.317 83.0976 354.707 82.7071C355.098 82.3166 355.098 81.6834 354.707 81.2929L349.414 76L354.707 70.7071C355.098 70.3166 355.098 69.6834 354.707 69.2929C354.317 68.9024 353.683 68.9024 353.293 69.2929L348 74.5858L342.707 69.2929C342.317 68.9024 341.683 68.9024 341.293 69.2929C340.902 69.6834 340.902 70.3166 341.293 70.7071L346.586 76L341.293 81.2929C340.902 81.6834 340.902 82.3166 341.293 82.7071C341.683 83.0976 342.317 83.0976 342.707 82.7071L348 77.4142L353.293 82.7071Z" fill="#242424"/>
</g>
<defs>
<filter id="filter0_ii_1078_1610" x="0" y="-4" width="392" height="836" filterUnits="userSpaceOnUse" color-interpolation-filters="sRGB">
<feFlood flood-opacity="0" result="BackgroundImageFix"/>
<feBlend mode="normal" in="SourceGraphic" in2="BackgroundImageFix" result="shape"/>
<feColorMatrix in="SourceAlpha" type="matrix" values="0 0 0 0 0 0 0 0 0 0 0 0 0 0 0 0 0 0 127 0" result="hardAlpha"/>
<feMorphology radius="2" operator="erode" in="SourceAlpha" result="effect1_innerShadow_1078_1610"/>
<feOffset dy="-4"/>
<feGaussianBlur stdDeviation="8"/>
<feComposite in2="hardAlpha" operator="arithmetic" k2="-1" k3="1"/>
<feColorMatrix type="matrix" values="0 0 0 0 0.716667 0 0 0 0 0.716667 0 0 0 0 0.716667 0 0 0 0.72 0"/>
<feBlend mode="normal" in2="shape" result="effect1_innerShadow_1078_1610"/>
<feColorMatrix in="SourceAlpha" type="matrix" values="0 0 0 0 0 0 0 0 0 0 0 0 0 0 0 0 0 0 127 0" result="hardAlpha"/>
<feOffset dy="-2"/>
<feGaussianBlur stdDeviation="1"/>
<feComposite in2="hardAlpha" operator="arithmetic" k2="-1" k3="1"/>
<feColorMatrix type="matrix" values="0 0 0 0 0.841667 0 0 0 0 0.841667 0 0 0 0 0.841667 0 0 0 0.72 0"/>
<feBlend mode="normal" in2="effect1_innerShadow_1078_1610" result="effect2_innerShadow_1078_1610"/>
</filter>
<filter id="filter1_d_1078_1610" x="40" y="258" width="313" height="259" filterUnits="userSpaceOnUse" color-interpolation-filters="sRGB">
<feFlood flood-opacity="0" result="BackgroundImageFix"/>
<feColorMatrix in="SourceAlpha" type="matrix" values="0 0 0 0 0 0 0 0 0 0 0 0 0 0 0 0 0 0 127 0" result="hardAlpha"/>
<feOffset dx="1" dy="1"/>
<feComposite in2="hardAlpha" operator="out"/>
<feColorMatrix type="matrix" values="0 0 0 0 0.266667 0 0 0 0 0.266667 0 0 0 0 0.266667 0 0 0 1 0"/>
<feBlend mode="normal" in2="BackgroundImageFix" result="effect1_dropShadow_1078_1610"/>
<feBlend mode="normal" in="SourceGraphic" in2="effect1_dropShadow_1078_1610" result="shape"/>
</filter>
<clipPath id="clip0_1078_1610">
<rect x="16" y="16" width="360" height="800" rx="34" fill="white"/>
</clipPath>
</defs>
</svg>
