<svg width="395" height="832" viewBox="0 0 395 832" fill="none" xmlns="http://www.w3.org/2000/svg">
<rect x="386" y="350" width="9" height="52" rx="3" fill="white"/>
<rect x="386" y="206" width="9" height="102" rx="3" fill="white"/>
<g filter="url(#filter0_ii_1195_1067)">
<rect width="392" height="832" rx="48" fill="white"/>
</g>
<g clip-path="url(#clip0_1195_1067)">
<rect x="16" y="16" width="360" height="800" rx="34" fill="white"/>
<g clip-path="url(#clip1_1195_1067)">
<rect width="360" height="878" transform="translate(16 16)" fill="white"/>
<path d="M56.6667 713.833C56.6667 712.575 55.43 711.505 53.7037 711.109M52.2223 713.833C52.2223 712.238 50.2324 710.944 47.7778 710.944C45.3232 710.944 43.3334 712.238 43.3334 713.833M52.2223 708.778C53.8587 708.778 55.1852 707.484 55.1852 705.889C55.1852 704.293 53.8587 703 52.2223 703M47.7778 708.778C46.1414 708.778 44.8149 707.484 44.8149 705.889C44.8149 704.293 46.1414 703 47.7778 703C49.4142 703 50.7408 704.293 50.7408 705.889C50.7408 707.484 49.4142 708.778 47.7778 708.778Z" stroke="#242424" stroke-width="1.5" stroke-linecap="round" stroke-linejoin="round"/>
<path d="M68.7441 704.441C68.7441 705.863 69.8516 707.176 71.7246 707.709L71.123 708.721C69.708 708.304 68.6621 707.442 68.1152 706.328C67.582 707.559 66.5088 708.509 65.0527 708.953L64.4238 707.941C66.2969 707.395 67.459 705.986 67.459 704.441V704.318H64.793V703.279H67.459V701.857H68.7578V703.279H71.4102V704.318H68.7441V704.441ZM74.0762 701.912V704.947H75.8535V706.027H74.0762V709.145H72.7773V701.912H74.0762ZM74.0762 709.691V714.012H66.2559V709.691H74.0762ZM67.5273 710.717V712.959H72.791V710.717H67.5273ZM79.523 702.828C80.6373 702.828 81.5602 703.471 82.107 704.578H85.1285V701.912H86.4137V714.189H85.1285V709.486H82.1891C81.6627 710.717 80.6988 711.428 79.523 711.428C77.691 711.428 76.4059 709.76 76.4195 707.121C76.4059 704.496 77.691 702.828 79.523 702.828ZM79.523 703.99C78.4156 703.99 77.65 705.193 77.65 707.121C77.65 709.062 78.4156 710.266 79.523 710.266C80.6305 710.266 81.3961 709.062 81.3961 707.121C81.3961 705.193 80.6305 703.99 79.523 703.99ZM82.4762 705.645C82.565 706.096 82.6266 706.588 82.6266 707.121C82.6266 707.586 82.5855 708.017 82.5035 708.42H85.1285V705.645H82.4762ZM98.1086 701.926V710.826H96.8098V701.926H98.1086ZM98.4777 712.85V713.902H90.0969V709.924H91.4094V712.85H98.4777ZM91.4641 702.746C93.3098 702.746 94.718 704.004 94.718 705.781C94.718 707.586 93.3098 708.83 91.4641 708.83C89.6184 708.83 88.1965 707.586 88.1965 705.781C88.1965 704.004 89.6184 702.746 91.4641 702.746ZM91.4641 703.881C90.3156 703.881 89.468 704.66 89.468 705.781C89.468 706.93 90.3156 707.695 91.4641 707.695C92.5852 707.695 93.4465 706.93 93.4465 705.781C93.4465 704.66 92.5852 703.881 91.4641 703.881ZM109.886 701.926V711.209H108.587V710.033H106.126V709.117H108.587V701.926H109.886ZM110.186 712.85V713.902H101.341V710.307H102.626V712.85H110.186ZM99.6453 707.518C101.915 707.504 104.964 707.477 107.575 707.148L107.657 708.078C106.611 708.249 105.511 708.365 104.43 708.434V710.826H103.132V708.502C101.942 708.557 100.801 708.563 99.8094 708.557L99.6453 707.518ZM103.651 702.391C105.442 702.391 106.686 703.252 106.686 704.551C106.686 705.85 105.442 706.684 103.651 706.684C101.833 706.684 100.602 705.85 100.602 704.551C100.602 703.252 101.833 702.391 103.651 702.391ZM103.651 703.361C102.557 703.348 101.819 703.812 101.833 704.551C101.819 705.275 102.557 705.727 103.651 705.727C104.704 705.727 105.442 705.275 105.456 704.551C105.442 703.812 104.704 703.348 103.651 703.361Z" fill="#242424"/>
<path d="M330.748 713.137C328.875 713.137 327.467 711.988 327.398 710.416H328.861C328.943 711.264 329.75 711.879 330.748 711.879C331.951 711.879 332.812 711.004 332.812 709.828C332.812 708.625 331.924 707.75 330.68 707.736C329.887 707.736 329.285 707.996 328.943 708.611H327.521L328.164 703.102H333.77V704.387H329.408L329.08 707.162H329.176C329.586 706.766 330.283 706.492 331.035 706.492C332.895 706.492 334.275 707.873 334.275 709.787C334.275 711.742 332.812 713.137 330.748 713.137Z" fill="#242424"/>
<path d="M346.564 701.912V709.145H345.266V707.326H342.6V708.324H336.912V702.828H342.6V703.84H345.266V701.912H346.564ZM338.197 703.867V707.285H341.328V703.867H338.197ZM342.463 709.486C345.033 709.486 346.605 710.334 346.605 711.824C346.605 713.301 345.033 714.148 342.463 714.135C339.893 714.148 338.307 713.301 338.32 711.824C338.307 710.334 339.893 709.486 342.463 709.486ZM342.463 710.484C340.672 710.498 339.605 710.963 339.605 711.824C339.605 712.645 340.672 713.137 342.463 713.137C344.254 713.137 345.32 712.645 345.32 711.824C345.32 710.963 344.254 710.498 342.463 710.484ZM342.6 706.273H345.266V704.879H342.6V706.273Z" fill="#242424"/>
<line x1="40" y1="727.5" x2="356" y2="727.5" stroke="#F2F2F2"/>
<path d="M59.1459 746.609C59.1459 749.822 56.9721 752.051 53.2943 752.994L52.6928 751.818C55.5707 751.073 57.2592 749.617 57.5189 747.812H53.4037V746.609H59.1459ZM62.9057 745.871V752.789H61.3744V745.871H62.9057ZM62.9057 753.322V758.053H54.7436V753.322H62.9057ZM56.2475 754.525V756.85H61.4154V754.525H56.2475ZM70.6357 746.924V752.762H64.7842V746.924H70.6357ZM66.2744 748.141V751.559H69.1455V748.141H66.2744ZM74.1084 745.857V749.48H75.8311V750.752H74.1084V754.881H72.5908V745.857H74.1084ZM74.6006 756.74V757.971H66.1924V754.006H67.71V756.74H74.6006ZM87.6217 750.629V751.873H85.7896V758.189H84.2721V745.857H85.7896V750.629H87.6217ZM78.0514 747.061V753.883C79.6988 753.855 81.4557 753.712 83.315 753.322L83.4791 754.607C81.401 755.018 79.4186 755.141 77.5865 755.141H76.5475V747.061H78.0514Z" fill="#242424"/>
<path d="M126.796 745.912V758.189H125.497V745.912H126.796ZM120.247 746.828C122.066 746.828 123.406 748.496 123.406 751.121C123.406 753.76 122.066 755.428 120.247 755.428C118.402 755.428 117.076 753.76 117.076 751.121C117.076 748.496 118.402 746.828 120.247 746.828ZM120.247 747.99C119.113 747.99 118.333 749.193 118.333 751.121C118.333 753.062 119.113 754.266 120.247 754.266C121.369 754.266 122.148 753.062 122.148 751.121C122.148 749.193 121.369 747.99 120.247 747.99ZM138.614 745.926V754.922H137.315V750.328H134.923C134.643 751.805 133.378 752.803 131.792 752.803C129.946 752.803 128.579 751.531 128.579 749.74C128.579 747.949 129.946 746.691 131.792 746.691C133.419 746.691 134.704 747.73 134.95 749.262H137.315V745.926H138.614ZM138.942 756.85V757.902H130.657V754.006H131.956V756.85H138.942ZM131.792 747.826C130.657 747.826 129.823 748.592 129.823 749.74C129.823 750.889 130.657 751.682 131.792 751.682C132.899 751.682 133.733 750.889 133.733 749.74C133.733 748.592 132.899 747.826 131.792 747.826ZM150.665 745.912V758.162H149.421V745.912H150.665ZM148.176 746.172V757.547H146.946V751.312H145.046V750.246H146.946V746.172H148.176ZM143.842 749.33C143.842 751.422 144.69 753.514 146.413 754.512L145.633 755.469C144.464 754.771 143.658 753.534 143.241 752.051C142.796 753.65 141.962 755.011 140.766 755.756L139.973 754.785C141.71 753.732 142.598 751.504 142.598 749.33V748.346H140.342V747.293H145.948V748.346H143.842V749.33Z" fill="#585858"/>
<path d="M186.23 746.199C188.869 746.199 190.578 747.156 190.578 748.674C190.578 750.191 188.869 751.135 186.23 751.135C183.605 751.135 181.869 750.191 181.869 748.674C181.869 747.156 183.605 746.199 186.23 746.199ZM186.23 747.238C184.439 747.238 183.249 747.785 183.263 748.674C183.249 749.562 184.439 750.096 186.23 750.109C188.035 750.096 189.21 749.562 189.21 748.674C189.21 747.785 188.035 747.238 186.23 747.238ZM191.835 751.982V753.035H189.06V755.469H187.761V753.035H185.833V755.469H184.521V753.035H180.652V751.982H191.835ZM190.701 756.85V757.902H181.992V754.416H183.304V756.85H190.701ZM195.149 746.104V747.17H200.823V746.104H202.122V750.164H198.595V751.23H203.571V752.27H192.401V751.23H197.323V750.164H193.864V746.104H195.149ZM195.149 749.18H200.823V748.127H195.149V749.18ZM202.163 753.158V756.016H195.026V757.041H202.505V758.039H193.755V755.086H200.878V754.129H193.741V753.158H202.163ZM213.885 745.912V750.889H215.663V751.955H213.885V758.162H212.587V745.912H213.885ZM207.842 747.225C207.842 750.287 207.282 753.076 205.067 755.441L204.042 754.717C205.833 752.857 206.482 750.745 206.612 748.291H204.479V747.225H207.842ZM211.219 747.225C211.219 750.328 210.837 753.582 208.581 756.248L207.542 755.537C209.36 753.411 209.907 750.909 210.003 748.291H208.239V747.225H211.219Z" fill="#585858"/>
<path d="M254.277 745.912V749.043H256.054V750.109H254.277V753.295H252.978V745.912H254.277ZM254.277 753.91V758.162H252.978V754.963H246.183V753.91H254.277ZM246.402 746.678V748.51H249.615V746.678H250.9V752.516H245.13V746.678H246.402ZM246.402 751.477H249.615V749.535H246.402V751.477ZM260.913 749.521C260.913 751.572 262.253 753.691 264.14 754.498L263.429 755.51C261.986 754.874 260.838 753.527 260.271 751.887C259.703 753.637 258.548 755.127 257.126 755.824L256.374 754.799C258.22 753.938 259.587 751.627 259.601 749.521V748.223H256.798V747.143H263.702V748.223H260.913V749.521ZM266.546 745.912V758.162H265.247V745.912H266.546ZM277.94 746.527V747.457C277.94 748.421 277.94 749.515 277.626 750.998H279.362V752.064H268.151V750.998H276.313C276.641 749.569 276.655 748.523 276.655 747.594H269.559V746.527H277.94ZM277.954 753.623V758.012H269.518V753.623H277.954ZM270.79 754.648V756.959H276.669V754.648H270.79Z" fill="#585858"/>
<path d="M318.865 745.912V753.199H317.566V750.096H315.283V749.029H317.566V745.912H318.865ZM314.763 753.541C317.333 753.541 318.906 754.389 318.906 755.852C318.906 757.314 317.333 758.148 314.763 758.162C312.193 758.148 310.607 757.314 310.621 755.852C310.607 754.389 312.193 753.541 314.763 753.541ZM314.763 754.553C312.972 754.553 311.906 755.018 311.906 755.852C311.906 756.672 312.972 757.15 314.763 757.137C316.554 757.15 317.621 756.672 317.621 755.852C317.621 755.018 316.554 754.553 314.763 754.553ZM313.04 748.072C313.04 749.631 314.148 751.135 315.994 751.764L315.324 752.789C313.95 752.311 312.938 751.333 312.412 750.123C311.871 751.497 310.798 752.598 309.335 753.131L308.652 752.092C310.552 751.436 311.714 749.781 311.714 748.086V747.812H309.062V746.76H315.665V747.812H313.04V748.072ZM329.944 745.912V750.656H331.913V751.75H329.944V758.162H328.646V745.912H329.944ZM322.151 746.938V750.082H325.392V746.938H326.677V755.25H320.866V746.938H322.151ZM322.151 754.184H325.392V751.107H322.151V754.184ZM343.362 755.605V756.699H332.151V755.605H337.087V753.459H333.518V749.562H340.71V747.84H333.491V746.773H341.995V750.602H334.803V752.393H342.282V753.459H338.372V755.605H343.362Z" fill="#585858"/>
<rect width="360" height="500" transform="translate(16 180)" fill="#FBFBFB"/>
<path d="M49.5742 226.117C47.6875 226.117 46.6094 224.535 46.6094 221.758C46.6094 219.004 47.7109 217.398 49.5742 217.398C51.4375 217.398 52.5391 219.004 52.5391 221.758C52.5391 224.535 51.4492 226.117 49.5742 226.117ZM49.5742 225.18C50.793 225.18 51.5078 223.949 51.5078 221.758C51.5078 219.566 50.793 218.312 49.5742 218.312C48.3555 218.312 47.6289 219.566 47.6289 221.758C47.6289 223.949 48.3438 225.18 49.5742 225.18ZM56.4695 217.398C57.9344 217.41 59.5516 218.289 59.5516 221.418C59.5516 224.43 58.3211 226.117 56.3289 226.117C54.8406 226.117 53.7859 225.203 53.575 223.855H54.618C54.8055 224.617 55.3797 225.18 56.3289 225.18C57.7117 225.18 58.5555 223.984 58.5672 221.922H58.45C57.9578 222.625 57.1844 223.047 56.282 223.047C54.7586 223.047 53.5047 221.887 53.5047 220.246C53.5047 218.664 54.6648 217.387 56.4695 217.398ZM56.4695 218.324C55.3562 218.324 54.5242 219.191 54.5359 220.234C54.5359 221.289 55.3211 222.121 56.4344 222.121C57.5359 222.121 58.4031 221.207 58.4031 220.211C58.4031 219.238 57.5945 218.324 56.4695 218.324ZM64.0328 219.332C64.0211 221.23 65.3219 223.152 66.857 223.844L66.2945 224.57C65.1109 223.99 64.0855 222.766 63.5875 221.277C63.1012 222.854 62.0758 224.166 60.857 224.781L60.2711 224.008C61.818 223.293 63.107 221.312 63.1187 219.332V217.434H64.0328V219.332ZM68.9195 216.531V226.973H67.9937V216.531H68.9195Z" fill="#767676"/>
<path d="M49.7969 245.516V254H48.7305V246.617H48.6836L46.6211 247.988V246.922L48.7305 245.516H49.7969ZM54.5359 254.117C52.6492 254.117 51.5711 252.535 51.5711 249.758C51.5711 247.004 52.6727 245.398 54.5359 245.398C56.3992 245.398 57.5008 247.004 57.5008 249.758C57.5008 252.535 56.4109 254.117 54.5359 254.117ZM54.5359 253.18C55.7547 253.18 56.4695 251.949 56.4695 249.758C56.4695 247.566 55.7547 246.312 54.5359 246.312C53.3172 246.312 52.5906 247.566 52.5906 249.758C52.5906 251.949 53.3055 253.18 54.5359 253.18ZM61.9352 247.332C61.9234 249.23 63.2242 251.152 64.7594 251.844L64.1969 252.57C63.0133 251.99 61.9879 250.766 61.4898 249.277C61.0035 250.854 59.9781 252.166 58.7594 252.781L58.1734 252.008C59.7203 251.293 61.0094 249.312 61.0211 247.332V245.434H61.9352V247.332ZM66.8219 244.531V254.973H65.8961V244.531H66.8219Z" fill="#767676"/>
<path d="M49.7969 273.516V282H48.7305V274.617H48.6836L46.6211 275.988V274.922L48.7305 273.516H49.7969ZM54.7586 273.516V282H53.6922V274.617H53.6453L51.5828 275.988V274.922L53.6922 273.516H54.7586ZM60.0484 275.332C60.0367 277.23 61.3375 279.152 62.8727 279.844L62.3102 280.57C61.1266 279.99 60.1012 278.766 59.6031 277.277C59.1168 278.854 58.0914 280.166 56.8727 280.781L56.2867 280.008C57.8336 279.293 59.1227 277.312 59.1344 275.332V273.434H60.0484V275.332ZM64.9352 272.531V282.973H64.0094V272.531H64.9352Z" fill="#767676"/>
<path d="M49.7969 301.516V310H48.7305V302.617H48.6836L46.6211 303.988V302.922L48.7305 301.516H49.7969ZM51.7586 310L51.7469 309.227L54.6414 306.18C55.6492 305.113 56.1297 304.539 56.1297 303.754C56.1297 302.887 55.3914 302.312 54.4422 302.312C53.4344 302.312 52.7898 302.957 52.7898 303.906H51.7937C51.782 302.406 52.9422 301.398 54.4773 301.398C56.0125 301.398 57.1141 302.43 57.1141 303.754C57.1141 304.703 56.6687 305.441 55.1687 306.988L53.2234 308.992V309.062H57.2664V310H51.7586ZM61.8297 303.332C61.818 305.23 63.1187 307.152 64.6539 307.844L64.0914 308.57C62.9078 307.99 61.8824 306.766 61.3844 305.277C60.898 306.854 59.8727 308.166 58.6539 308.781L58.068 308.008C59.6148 307.293 60.9039 305.312 60.9156 303.332V301.434H61.8297V303.332ZM66.7164 300.531V310.973H65.7906V300.531H66.7164Z" fill="#767676"/>
<path d="M49.7969 329.516V338H48.7305V330.617H48.6836L46.6211 331.988V330.922L48.7305 329.516H49.7969ZM54.6883 338.117C53.0008 338.117 51.7937 337.215 51.7352 335.867H52.8016C52.8602 336.676 53.6687 337.18 54.6766 337.18C55.7898 337.18 56.6102 336.57 56.6102 335.691C56.6102 334.766 55.8719 334.109 54.5477 334.109H53.8562V333.184H54.5477C55.5789 333.184 56.2937 332.609 56.2937 331.73C56.2937 330.887 55.6727 330.312 54.7117 330.312C53.8094 330.312 52.9773 330.816 52.9305 331.648H51.9109C51.9695 330.301 53.2117 329.398 54.7234 329.398C56.3406 329.398 57.325 330.453 57.3133 331.672C57.325 332.633 56.7625 333.348 55.8719 333.594V333.652C56.9734 333.828 57.6531 334.613 57.6414 335.691C57.6531 337.086 56.3758 338.117 54.6883 338.117ZM62.193 331.332C62.1812 333.23 63.482 335.152 65.0172 335.844L64.4547 336.57C63.2711 335.99 62.2457 334.766 61.7477 333.277C61.2613 334.854 60.2359 336.166 59.0172 336.781L58.4312 336.008C59.9781 335.293 61.2672 333.312 61.2789 331.332V329.434H62.193V331.332ZM67.0797 328.531V338.973H66.1539V328.531H67.0797Z" fill="#767676"/>
<path d="M49.7969 357.516V366H48.7305V358.617H48.6836L46.6211 359.988V358.922L48.7305 357.516H49.7969ZM51.5477 364.266V363.398L55.368 357.516H56.6687V363.34H57.8523V364.266H56.6687V366H55.6609V364.266H51.5477ZM52.6844 363.34H55.6609V358.852H55.5555L52.6844 363.27V363.34ZM62.275 359.332C62.2633 361.23 63.5641 363.152 65.0992 363.844L64.5367 364.57C63.3531 363.99 62.3277 362.766 61.8297 361.277C61.3434 362.854 60.318 364.166 59.0992 364.781L58.5133 364.008C60.0602 363.293 61.3492 361.312 61.3609 359.332V357.434H62.275V359.332ZM67.1617 356.531V366.973H66.2359V356.531H67.1617Z" fill="#767676"/>
<path d="M49.7969 385.516V394H48.7305V386.617H48.6836L46.6211 387.988V386.922L48.7305 385.516H49.7969ZM54.5242 394.117C52.9891 394.117 51.8289 393.168 51.7703 391.867H52.7898C52.8719 392.629 53.6102 393.191 54.5242 393.191C55.6258 393.191 56.4227 392.383 56.4227 391.316C56.4227 390.215 55.5906 389.406 54.4539 389.395C53.7391 389.383 53.1883 389.605 52.8719 390.156H51.8523L52.45 385.516H57.0437V386.453H53.3289L53.0125 388.938H53.0945C53.4695 388.645 54.0437 388.445 54.6414 388.445C56.2586 388.445 57.4539 389.641 57.4539 391.293C57.4539 392.934 56.2117 394.117 54.5242 394.117ZM61.9469 387.332C61.9352 389.23 63.2359 391.152 64.7711 391.844L64.2086 392.57C63.025 391.99 61.9996 390.766 61.5016 389.277C61.0152 390.854 59.9898 392.166 58.7711 392.781L58.1852 392.008C59.732 391.293 61.0211 389.312 61.0328 387.332V385.434H61.9469V387.332ZM66.8336 384.531V394.973H65.9078V384.531H66.8336Z" fill="#767676"/>
<path d="M49.7969 413.516V422H48.7305V414.617H48.6836L46.6211 415.988V414.922L48.7305 413.516H49.7969ZM54.7117 422.117C53.2352 422.094 51.618 421.227 51.618 418.086C51.618 415.086 52.8484 413.398 54.8406 413.398C56.3289 413.398 57.3719 414.312 57.5945 415.648H56.5516C56.3523 414.898 55.7898 414.336 54.8406 414.336C53.4461 414.336 52.6141 415.531 52.6141 417.57H52.7195C53.2117 416.867 53.9852 416.445 54.8992 416.445C56.4109 416.445 57.6648 417.617 57.6648 419.258C57.6648 420.852 56.493 422.129 54.7117 422.117ZM54.7117 421.191C55.8133 421.191 56.6336 420.324 56.6453 419.27C56.6336 418.227 55.8484 417.371 54.7352 417.371C53.6219 417.371 52.7664 418.273 52.7547 419.281C52.7547 420.277 53.575 421.191 54.7117 421.191ZM62.1461 415.332C62.1344 417.23 63.4352 419.152 64.9703 419.844L64.4078 420.57C63.2242 419.99 62.1988 418.766 61.7008 417.277C61.2145 418.854 60.1891 420.166 58.9703 420.781L58.3844 420.008C59.9312 419.293 61.2203 417.312 61.232 415.332V413.434H62.1461V415.332ZM67.0328 412.531V422.973H66.107V412.531H67.0328Z" fill="#767676"/>
<path d="M49.7969 441.516V450H48.7305V442.617H48.6836L46.6211 443.988V442.922L48.7305 441.516H49.7969ZM52.0281 450L55.9187 442.512V442.453H51.4305V441.516H57.0086V442.5L53.1297 450H52.0281ZM61.4078 443.332C61.3961 445.23 62.6969 447.152 64.232 447.844L63.6695 448.57C62.4859 447.99 61.4605 446.766 60.9625 445.277C60.4762 446.854 59.4508 448.166 58.232 448.781L57.6461 448.008C59.193 447.293 60.482 445.312 60.4937 443.332V441.434H61.4078V443.332ZM66.2945 440.531V450.973H65.3687V440.531H66.2945Z" fill="#767676"/>
<path d="M49.7969 469.516V478H48.7305V470.617H48.6836L46.6211 471.988V470.922L48.7305 469.516H49.7969ZM54.5945 478.117C52.8133 478.117 51.5711 477.133 51.5828 475.75C51.5711 474.648 52.3328 473.746 53.3055 473.594V473.547C52.4617 473.348 51.9109 472.574 51.9109 471.648C51.9109 470.348 53.0477 469.398 54.5945 469.398C56.1414 469.398 57.2781 470.348 57.2898 471.648C57.2781 472.574 56.7156 473.348 55.8836 473.547V473.594C56.8445 473.746 57.6062 474.648 57.618 475.75C57.6062 477.133 56.3641 478.117 54.5945 478.117ZM54.5945 477.191C55.8133 477.191 56.5633 476.582 56.5633 475.691C56.5633 474.754 55.7312 474.062 54.5945 474.062C53.4578 474.062 52.6141 474.754 52.6375 475.691C52.6141 476.582 53.3758 477.191 54.5945 477.191ZM54.5945 473.172C55.5555 473.172 56.2586 472.586 56.2586 471.73C56.2586 470.887 55.5906 470.312 54.5945 470.312C53.5867 470.312 52.9305 470.887 52.9305 471.73C52.9305 472.586 53.6219 473.172 54.5945 473.172ZM62.0641 471.332C62.0523 473.23 63.3531 475.152 64.8883 475.844L64.3258 476.57C63.1422 475.99 62.1168 474.766 61.6187 473.277C61.1324 474.854 60.107 476.166 58.8883 476.781L58.3023 476.008C59.8492 475.293 61.1383 473.312 61.15 471.332V469.434H62.0641V471.332ZM66.9508 468.531V478.973H66.025V468.531H66.9508Z" fill="#767676"/>
<path d="M49.7969 497.516V506H48.7305V498.617H48.6836L46.6211 499.988V498.922L48.7305 497.516H49.7969ZM54.5828 497.398C56.0477 497.41 57.6648 498.289 57.6648 501.418C57.6648 504.43 56.4344 506.117 54.4422 506.117C52.9539 506.117 51.8992 505.203 51.6883 503.855H52.7312C52.9187 504.617 53.493 505.18 54.4422 505.18C55.825 505.18 56.6687 503.984 56.6805 501.922H56.5633C56.0711 502.625 55.2977 503.047 54.3953 503.047C52.8719 503.047 51.618 501.887 51.618 500.246C51.618 498.664 52.7781 497.387 54.5828 497.398ZM54.5828 498.324C53.4695 498.324 52.6375 499.191 52.6492 500.234C52.6492 501.289 53.4344 502.121 54.5477 502.121C55.6492 502.121 56.5164 501.207 56.5164 500.211C56.5164 499.238 55.7078 498.324 54.5828 498.324ZM62.1461 499.332C62.1344 501.23 63.4352 503.152 64.9703 503.844L64.4078 504.57C63.2242 503.99 62.1988 502.766 61.7008 501.277C61.2145 502.854 60.1891 504.166 58.9703 504.781L58.3844 504.008C59.9312 503.293 61.2203 501.312 61.232 499.332V497.434H62.1461V499.332ZM67.0328 496.531V506.973H66.107V496.531H67.0328Z" fill="#767676"/>
<path d="M49.7969 553.516V562H48.7305V554.617H48.6836L46.6211 555.988V554.922L48.7305 553.516H49.7969ZM54.5828 553.398C56.0477 553.41 57.6648 554.289 57.6648 557.418C57.6648 560.43 56.4344 562.117 54.4422 562.117C52.9539 562.117 51.8992 561.203 51.6883 559.855H52.7312C52.9187 560.617 53.493 561.18 54.4422 561.18C55.825 561.18 56.6687 559.984 56.6805 557.922H56.5633C56.0711 558.625 55.2977 559.047 54.3953 559.047C52.8719 559.047 51.618 557.887 51.618 556.246C51.618 554.664 52.7781 553.387 54.5828 553.398ZM54.5828 554.324C53.4695 554.324 52.6375 555.191 52.6492 556.234C52.6492 557.289 53.4344 558.121 54.5477 558.121C55.6492 558.121 56.5164 557.207 56.5164 556.211C56.5164 555.238 55.7078 554.324 54.5828 554.324ZM62.1461 555.332C62.1344 557.23 63.4352 559.152 64.9703 559.844L64.4078 560.57C63.2242 559.99 62.1988 558.766 61.7008 557.277C61.2145 558.854 60.1891 560.166 58.9703 560.781L58.3844 560.008C59.9312 559.293 61.2203 557.312 61.232 555.332V553.434H62.1461V555.332ZM67.0328 552.531V562.973H66.107V552.531H67.0328Z" fill="#767676"/>
<path d="M46.7969 534L46.7852 533.227L49.6797 530.18C50.6875 529.113 51.168 528.539 51.168 527.754C51.168 526.887 50.4297 526.312 49.4805 526.312C48.4727 526.312 47.8281 526.957 47.8281 527.906H46.832C46.8203 526.406 47.9805 525.398 49.5156 525.398C51.0508 525.398 52.1523 526.43 52.1523 527.754C52.1523 528.703 51.707 529.441 50.207 530.988L48.2617 532.992V533.062H52.3047V534H46.7969ZM56.3172 534.117C54.4305 534.117 53.3523 532.535 53.3523 529.758C53.3523 527.004 54.4539 525.398 56.3172 525.398C58.1805 525.398 59.282 527.004 59.282 529.758C59.282 532.535 58.1922 534.117 56.3172 534.117ZM56.3172 533.18C57.5359 533.18 58.2508 531.949 58.2508 529.758C58.2508 527.566 57.5359 526.312 56.3172 526.312C55.0984 526.312 54.3719 527.566 54.3719 529.758C54.3719 531.949 55.0867 533.18 56.3172 533.18ZM63.7164 527.332C63.7047 529.23 65.0055 531.152 66.5406 531.844L65.9781 532.57C64.7945 531.99 63.7691 530.766 63.2711 529.277C62.7848 530.854 61.7594 532.166 60.5406 532.781L59.9547 532.008C61.5016 531.293 62.7906 529.312 62.8023 527.332V525.434H63.7164V527.332ZM68.6031 524.531V534.973H67.6773V524.531H68.6031Z" fill="#767676"/>
<path d="M46.7969 590L46.7852 589.227L49.6797 586.18C50.6875 585.113 51.168 584.539 51.168 583.754C51.168 582.887 50.4297 582.312 49.4805 582.312C48.4727 582.312 47.8281 582.957 47.8281 583.906H46.832C46.8203 582.406 47.9805 581.398 49.5156 581.398C51.0508 581.398 52.1523 582.43 52.1523 583.754C52.1523 584.703 51.707 585.441 50.207 586.988L48.2617 588.992V589.062H52.3047V590H46.7969ZM56.3172 590.117C54.4305 590.117 53.3523 588.535 53.3523 585.758C53.3523 583.004 54.4539 581.398 56.3172 581.398C58.1805 581.398 59.282 583.004 59.282 585.758C59.282 588.535 58.1922 590.117 56.3172 590.117ZM56.3172 589.18C57.5359 589.18 58.2508 587.949 58.2508 585.758C58.2508 583.566 57.5359 582.312 56.3172 582.312C55.0984 582.312 54.3719 583.566 54.3719 585.758C54.3719 587.949 55.0867 589.18 56.3172 589.18ZM63.7164 583.332C63.7047 585.23 65.0055 587.152 66.5406 587.844L65.9781 588.57C64.7945 587.99 63.7691 586.766 63.2711 585.277C62.7848 586.854 61.7594 588.166 60.5406 588.781L59.9547 588.008C61.5016 587.293 62.7906 585.312 62.8023 583.332V581.434H63.7164V583.332ZM68.6031 580.531V590.973H67.6773V580.531H68.6031Z" fill="#767676"/>
<rect x="40.5" y="620.5" width="311" height="39" rx="7.5" fill="white"/>
<rect x="40.5" y="620.5" width="311" height="39" rx="7.5" stroke="#CFCFCF"/>
<path d="M162.457 636.4C162.457 637.74 163.455 639.053 165.397 639.586L164.7 640.762C163.278 640.379 162.266 639.545 161.719 638.479C161.172 639.654 160.14 640.563 158.67 640.98L157.946 639.805C159.901 639.258 160.94 637.877 160.94 636.4V636.373H158.356V635.17H160.94V633.803H162.471V635.17H165.041V636.373H162.457V636.4ZM167.762 633.857V636.838H169.485V638.096H167.762V641.131H166.245V633.857H167.762ZM167.762 641.65V646.066H159.778V641.65H167.762ZM161.282 642.854V644.836H166.258V642.854H161.282ZM173.141 634.76C174.262 634.76 175.185 635.382 175.738 636.469H178.623V633.857H180.127V646.23H178.623V641.555H175.848C175.314 642.785 174.337 643.496 173.141 643.496C171.281 643.496 169.969 641.814 169.969 639.121C169.969 636.455 171.281 634.76 173.141 634.76ZM173.141 636.127C172.115 636.127 171.418 637.234 171.432 639.121C171.418 641.021 172.115 642.129 173.141 642.129C174.166 642.129 174.85 641.021 174.863 639.121C174.85 637.234 174.166 636.127 173.141 636.127ZM176.162 637.713C176.251 638.144 176.299 638.615 176.299 639.121C176.299 639.552 176.265 639.948 176.203 640.324H178.623V637.713H176.162ZM189.161 636.824C189.148 639.094 190.337 641.363 192.347 642.225L191.445 643.441C190.023 642.785 188.977 641.473 188.409 639.859C187.842 641.603 186.782 643.024 185.279 643.729L184.349 642.457C186.413 641.568 187.616 639.203 187.616 636.824V634.855H189.161V636.824ZM194.767 633.857V646.23H193.236V633.857H194.767ZM205.983 633.857V637.412H207.706V638.684H205.983V642.771H204.438V633.857H205.983ZM202.62 634.801C202.62 638.082 200.487 640.42 196.823 641.486L196.194 640.283C199.017 639.47 200.699 637.932 200.966 636.045H196.714V634.801H202.62ZM206.448 644.74V645.971H198.04V641.855H199.585V644.74H206.448ZM217.396 634.883C217.396 636.441 219.133 638.014 221.771 638.355L221.17 639.586C219.071 639.271 217.403 638.239 216.604 636.838C215.79 638.239 214.129 639.271 212.051 639.586L211.449 638.355C214.061 638.014 215.797 636.441 215.797 634.883V634.254H217.396V634.883ZM222.223 640.652V641.91H217.314V646.217H215.811V641.91H210.957V640.652H222.223ZM233.056 633.857V641.199H231.539V638.178H229.433V636.934H231.539V633.857H233.056ZM228.873 641.514C231.498 641.514 233.097 642.375 233.097 643.865C233.097 645.355 231.498 646.217 228.873 646.217C226.261 646.217 224.662 645.355 224.675 643.865C224.662 642.375 226.261 641.514 228.873 641.514ZM228.873 642.676C227.15 642.676 226.179 643.086 226.179 643.865C226.179 644.631 227.15 645.041 228.873 645.041C230.595 645.041 231.58 644.631 231.58 643.865C231.58 643.086 230.595 642.676 228.873 642.676ZM227.246 635.977C227.246 637.48 228.244 638.998 230.158 639.641L229.392 640.844C228.018 640.379 227.041 639.436 226.507 638.273C225.961 639.593 224.928 640.646 223.459 641.172L222.666 639.969C224.648 639.285 225.701 637.617 225.701 635.99V635.895H223.13V634.664H229.802V635.895H227.246V635.977Z" fill="#444444"/>
<rect x="82" y="208" width="44" height="28" fill="#D1EAFF"/>
<rect x="82" y="208" width="44" height="28" stroke="#A3D5FF"/>
<rect x="82" y="236" width="44" height="28" fill="#D1EAFF"/>
<rect x="82" y="236" width="44" height="28" stroke="#A3D5FF"/>
<rect x="82" y="432" width="44" height="28" fill="white"/>
<rect x="82" y="432" width="44" height="28" stroke="#E0E0E0"/>
<rect x="82" y="292" width="44" height="28" fill="white"/>
<rect x="82" y="292" width="44" height="28" stroke="#E0E0E0"/>
<rect x="82" y="460" width="44" height="28" fill="white"/>
<rect x="82" y="460" width="44" height="28" stroke="#E0E0E0"/>
<rect x="82" y="320" width="44" height="28" fill="white"/>
<rect x="82" y="320" width="44" height="28" stroke="#E0E0E0"/>
<rect x="82" y="488" width="44" height="28" fill="white"/>
<rect x="82" y="488" width="44" height="28" stroke="#E0E0E0"/>
<rect x="82" y="516" width="44" height="28" fill="white"/>
<rect x="82" y="516" width="44" height="28" stroke="#E0E0E0"/>
<rect x="82" y="544" width="44" height="28" fill="white"/>
<rect x="82" y="544" width="44" height="28" stroke="#E0E0E0"/>
<rect x="82" y="404" width="44" height="28" fill="white"/>
<rect x="82" y="404" width="44" height="28" stroke="#E0E0E0"/>
<rect x="82" y="572" width="44" height="28" fill="white"/>
<rect x="82" y="572" width="44" height="28" stroke="#E0E0E0"/>
<rect x="170" y="208" width="44" height="28" fill="#D1EAFF"/>
<rect x="170" y="208" width="44" height="28" stroke="#A3D5FF"/>
<rect x="170" y="432" width="44" height="28" fill="white"/>
<rect x="170" y="432" width="44" height="28" stroke="#E0E0E0"/>
<rect x="170" y="292" width="44" height="28" fill="white"/>
<rect x="170" y="292" width="44" height="28" stroke="#E0E0E0"/>
<rect x="170" y="460" width="44" height="28" fill="white"/>
<rect x="170" y="460" width="44" height="28" stroke="#E0E0E0"/>
<rect x="170" y="236" width="44" height="28" fill="#D1EAFF"/>
<rect x="170" y="236" width="44" height="28" stroke="#A3D5FF"/>
<rect x="170" y="320" width="44" height="28" fill="#A3D5FF"/>
<rect x="170" y="320" width="44" height="28" stroke="#76C0FF"/>
<rect x="170" y="488" width="44" height="28" fill="white"/>
<rect x="170" y="488" width="44" height="28" stroke="#E0E0E0"/>
<rect x="170" y="516" width="44" height="28" fill="white"/>
<rect x="170" y="516" width="44" height="28" stroke="#E0E0E0"/>
<rect x="170" y="544" width="44" height="28" fill="white"/>
<rect x="170" y="544" width="44" height="28" stroke="#E0E0E0"/>
<rect x="170" y="404" width="44" height="28" fill="white"/>
<rect x="170" y="404" width="44" height="28" stroke="#E0E0E0"/>
<rect x="170" y="572" width="44" height="28" fill="white"/>
<rect x="170" y="572" width="44" height="28" stroke="#E0E0E0"/>
<rect x="258" y="264" width="44" height="28" fill="white"/>
<rect x="258" y="264" width="44" height="28" stroke="#E0E0E0"/>
<rect x="258" y="432" width="44" height="28" fill="white"/>
<rect x="258" y="432" width="44" height="28" stroke="#E0E0E0"/>
<rect x="258" y="208" width="44" height="28" fill="#D1EAFF"/>
<rect x="258" y="208" width="44" height="28" stroke="#A3D5FF"/>
<rect x="258" y="292" width="44" height="28" fill="white"/>
<rect x="258" y="292" width="44" height="28" stroke="#E0E0E0"/>
<rect x="258" y="460" width="44" height="28" fill="white"/>
<rect x="258" y="460" width="44" height="28" stroke="#E0E0E0"/>
<rect x="258" y="236" width="44" height="28" fill="#A3D5FF"/>
<rect x="258" y="236" width="44" height="28" stroke="#76C0FF"/>
<rect x="214" y="264" width="44" height="28" fill="white"/>
<rect x="214" y="264" width="44" height="28" stroke="#E0E0E0"/>
<rect x="214" y="432" width="44" height="28" fill="white"/>
<rect x="214" y="432" width="44" height="28" stroke="#E0E0E0"/>
<rect x="258" y="320" width="44" height="28" fill="#76C0FF"/>
<rect x="258" y="320" width="44" height="28" stroke="#30A0FF"/>
<rect x="258" y="488" width="44" height="28" fill="white"/>
<rect x="258" y="488" width="44" height="28" stroke="#E0E0E0"/>
<rect x="258" y="516" width="44" height="28" fill="white"/>
<rect x="258" y="516" width="44" height="28" stroke="#E0E0E0"/>
<rect x="258" y="376" width="44" height="28" fill="white"/>
<rect x="258" y="376" width="44" height="28" stroke="#E0E0E0"/>
<rect x="258" y="544" width="44" height="28" fill="white"/>
<rect x="258" y="544" width="44" height="28" stroke="#E0E0E0"/>
<rect x="258" y="404" width="44" height="28" fill="white"/>
<rect x="258" y="404" width="44" height="28" stroke="#E0E0E0"/>
<rect x="258" y="572" width="44" height="28" fill="white"/>
<rect x="258" y="572" width="44" height="28" stroke="#E0E0E0"/>
<rect x="214" y="292" width="44" height="28" fill="white"/>
<rect x="214" y="292" width="44" height="28" stroke="#E0E0E0"/>
<rect x="214" y="460" width="44" height="28" fill="white"/>
<rect x="214" y="460" width="44" height="28" stroke="#E0E0E0"/>
<rect x="214" y="208" width="44" height="28" fill="#D1EAFF"/>
<rect x="214" y="208" width="44" height="28" stroke="#A3D5FF"/>
<rect x="126" y="432" width="44" height="28" fill="white"/>
<rect x="126" y="432" width="44" height="28" stroke="#E0E0E0"/>
<rect x="214" y="236" width="44" height="28" fill="#A3D5FF"/>
<rect x="214" y="236" width="44" height="28" stroke="#76C0FF"/>
<rect x="126" y="292" width="44" height="28" fill="white"/>
<rect x="126" y="292" width="44" height="28" stroke="#E0E0E0"/>
<rect x="126" y="460" width="44" height="28" fill="white"/>
<rect x="126" y="460" width="44" height="28" stroke="#E0E0E0"/>
<rect x="214" y="320" width="44" height="28" fill="#76C0FF"/>
<rect x="214" y="320" width="44" height="28" stroke="#30A0FF"/>
<rect x="214" y="488" width="44" height="28" fill="white"/>
<rect x="214" y="488" width="44" height="28" stroke="#E0E0E0"/>
<rect x="214" y="516" width="44" height="28" fill="white"/>
<rect x="214" y="516" width="44" height="28" stroke="#E0E0E0"/>
<rect x="214" y="376" width="44" height="28" fill="white"/>
<rect x="214" y="376" width="44" height="28" stroke="#E0E0E0"/>
<rect x="214" y="544" width="44" height="28" fill="white"/>
<rect x="214" y="544" width="44" height="28" stroke="#E0E0E0"/>
<rect x="214" y="404" width="44" height="28" fill="white"/>
<rect x="214" y="404" width="44" height="28" stroke="#E0E0E0"/>
<rect x="214" y="572" width="44" height="28" fill="white"/>
<rect x="214" y="572" width="44" height="28" stroke="#E0E0E0"/>
<rect x="302" y="264" width="44" height="28" fill="white"/>
<rect x="302" y="264" width="44" height="28" stroke="#E0E0E0"/>
<rect x="302" y="432" width="44" height="28" fill="white"/>
<rect x="302" y="432" width="44" height="28" stroke="#E0E0E0"/>
<rect x="302" y="292" width="44" height="28" fill="white"/>
<rect x="302" y="292" width="44" height="28" stroke="#E0E0E0"/>
<rect x="302" y="460" width="44" height="28" fill="white"/>
<rect x="302" y="460" width="44" height="28" stroke="#E0E0E0"/>
<rect x="126" y="208" width="44" height="28" fill="#D1EAFF"/>
<rect x="126" y="208" width="44" height="28" stroke="#A3D5FF"/>
<rect x="126" y="236" width="44" height="28" fill="#D1EAFF"/>
<rect x="126" y="236" width="44" height="28" stroke="#A3D5FF"/>
<rect x="126" y="320" width="44" height="28" fill="#A3D5FF"/>
<rect x="126" y="320" width="44" height="28" stroke="#76C0FF"/>
<rect x="126" y="488" width="44" height="28" fill="white"/>
<rect x="126" y="488" width="44" height="28" stroke="#E0E0E0"/>
<rect x="126" y="516" width="44" height="28" fill="white"/>
<rect x="126" y="516" width="44" height="28" stroke="#E0E0E0"/>
<rect x="126" y="544" width="44" height="28" fill="white"/>
<rect x="126" y="544" width="44" height="28" stroke="#E0E0E0"/>
<rect x="126" y="404" width="44" height="28" fill="white"/>
<rect x="126" y="404" width="44" height="28" stroke="#E0E0E0"/>
<rect x="126" y="572" width="44" height="28" fill="white"/>
<rect x="126" y="572" width="44" height="28" stroke="#E0E0E0"/>
<rect x="302" y="208" width="44" height="28" fill="#D1EAFF"/>
<rect x="302" y="208" width="44" height="28" stroke="#A3D5FF"/>
<rect x="302" y="236" width="44" height="28" fill="#A3D5FF"/>
<rect x="302" y="236" width="44" height="28" stroke="#76C0FF"/>
<rect x="302" y="320" width="44" height="28" fill="#76C0FF"/>
<rect x="302" y="320" width="44" height="28" stroke="#30A0FF"/>
<rect x="302" y="488" width="44" height="28" fill="white"/>
<rect x="302" y="488" width="44" height="28" stroke="#E0E0E0"/>
<rect x="302" y="516" width="44" height="28" fill="white"/>
<rect x="302" y="516" width="44" height="28" stroke="#E0E0E0"/>
<rect x="302" y="376" width="44" height="28" fill="white"/>
<rect x="302" y="376" width="44" height="28" stroke="#E0E0E0"/>
<rect x="302" y="544" width="44" height="28" fill="white"/>
<rect x="302" y="544" width="44" height="28" stroke="#E0E0E0"/>
<rect x="302" y="404" width="44" height="28" fill="white"/>
<rect x="302" y="404" width="44" height="28" stroke="#E0E0E0"/>
<rect x="302" y="572" width="44" height="28" fill="white"/>
<rect x="302" y="572" width="44" height="28" stroke="#E0E0E0"/>
<rect x="82" y="264" width="44" height="28" fill="#A3D5FF"/>
<rect x="82" y="264" width="44" height="28" stroke="#76C0FF"/>
<rect x="170" y="264" width="44" height="28" fill="#A3D5FF"/>
<rect x="170" y="264" width="44" height="28" stroke="#76C0FF"/>
<rect x="126" y="264" width="44" height="28" fill="#A3D5FF"/>
<rect x="126" y="264" width="44" height="28" stroke="#76C0FF"/>
<rect x="170" y="348" width="44" height="28" fill="#FAD1FF"/>
<rect x="170" y="348" width="44" height="28" stroke="#C66FD1"/>
<rect x="258" y="348" width="44" height="28" fill="#FAD1FF"/>
<rect x="258" y="348" width="44" height="28" stroke="#C66FD1"/>
<rect x="214" y="348" width="44" height="28" fill="#FAD1FF"/>
<rect x="214" y="348" width="44" height="28" stroke="#C66FD1"/>
<rect x="126" y="348" width="44" height="28" fill="#FAD1FF"/>
<rect x="126" y="348" width="44" height="28" stroke="#C66FD1"/>
<rect x="302" y="348" width="44" height="28" fill="#FAD1FF"/>
<rect x="302" y="348" width="44" height="28" stroke="#C66FD1"/>
<rect x="82" y="348" width="44" height="28" fill="#FAD1FF"/>
<rect x="82" y="348" width="44" height="28" stroke="#C66FD1"/>
<rect x="82" y="376" width="44" height="28" fill="#FAD1FF"/>
<rect x="82" y="376" width="44" height="28" stroke="#C66FD1"/>
<rect x="170" y="376" width="44" height="28" fill="#FAD1FF"/>
<rect x="170" y="376" width="44" height="28" stroke="#C66FD1"/>
<rect x="126" y="376" width="44" height="28" fill="#FAD1FF"/>
<rect x="126" y="376" width="44" height="28" stroke="#C66FD1"/>
<rect width="430" height="40" transform="translate(16 140)" fill="white"/>
<line x1="16" y1="179.5" x2="446" y2="179.5" stroke="#CFCFCF"/>
<path d="M48.2793 154.965C50.0977 154.979 52.0117 156.072 52.0117 159.695C52.0117 163.168 50.5215 165.137 48.1426 165.137C46.3242 165.137 45.0391 164.016 44.8066 162.402H46.2969C46.502 163.236 47.1445 163.824 48.1426 163.824C49.6738 163.824 50.5625 162.484 50.5762 160.229H50.4531C49.9199 161.062 48.9902 161.568 47.9238 161.568C46.1465 161.568 44.7246 160.215 44.7246 158.314C44.7246 156.428 46.1328 154.951 48.2793 154.965ZM48.2793 156.223C47.0762 156.223 46.1875 157.152 46.1875 158.287C46.1875 159.436 47.0488 160.338 48.252 160.338C49.4414 160.338 50.3711 159.367 50.3711 158.273C50.3711 157.207 49.4961 156.223 48.2793 156.223Z" fill="#242424"/>
<path d="M57.6621 154.637L54.4766 166.49H53.1777L56.3633 154.637H57.6621Z" fill="#242424"/>
<path d="M62.6348 155.102V165H61.1172V156.605H61.0625L58.6973 158.15V156.715L61.1582 155.102H62.6348ZM68.2457 165.137C65.9488 165.137 64.609 163.291 64.609 160.051C64.609 156.838 65.9762 154.965 68.2457 154.965C70.5152 154.965 71.8824 156.838 71.8824 160.051C71.8824 163.291 70.5289 165.137 68.2457 165.137ZM68.2457 163.838C69.5855 163.838 70.3785 162.525 70.3785 160.051C70.3785 157.59 69.5719 156.236 68.2457 156.236C66.9195 156.236 66.1129 157.59 66.1129 160.051C66.1129 162.525 66.9059 163.838 68.2457 163.838Z" fill="#242424"/>
<path d="M74.1895 161.227C74.2031 158.656 74.9277 156.51 76.2129 154.678H77.5527C76.6094 156.031 75.707 158.793 75.707 161.227C75.707 163.674 76.6094 166.422 77.5527 167.789H76.2129C74.9277 165.957 74.2031 163.811 74.1895 161.227Z" fill="#242424"/>
<path d="M89.0488 153.912V159.039H90.8945V160.133H89.0488V166.162H87.75V153.912H89.0488ZM79.3008 162.826C80.2646 162.826 81.3857 162.826 82.5547 162.785V161.541C81.1738 161.35 80.2715 160.516 80.2852 159.326C80.2715 157.945 81.4609 157.029 83.2109 157.029C84.9473 157.029 86.1504 157.945 86.1641 159.326C86.1504 160.516 85.2344 161.356 83.8535 161.555V162.73C84.9404 162.689 86.0342 162.601 87.0527 162.457L87.1348 163.414C84.4824 163.893 81.6113 163.906 79.5059 163.906L79.3008 162.826ZM86.875 155.361V156.4H79.5332V155.361H82.5547V153.939H83.8535V155.361H86.875ZM83.2109 158.041C82.1855 158.041 81.502 158.547 81.502 159.326C81.502 160.105 82.1855 160.584 83.2109 160.584C84.2363 160.584 84.9199 160.105 84.9199 159.326C84.9199 158.547 84.2363 158.041 83.2109 158.041Z" fill="#242424"/>
<path d="M95.8145 161.227C95.8008 163.811 95.0762 165.957 93.791 167.789H92.4512C93.3945 166.422 94.2969 163.674 94.2969 161.227C94.2969 158.793 93.3945 156.031 92.4512 154.678H93.791C95.0762 156.51 95.8008 158.656 95.8145 161.227Z" fill="#242424"/>
<path d="M128.834 154.965C130.775 154.979 132.689 156.127 132.703 159.75C132.703 163.168 131.158 165.137 128.725 165.137C126.811 165.137 125.498 163.947 125.279 162.307H127.043C127.221 163.086 127.822 163.592 128.725 163.592C130.16 163.592 130.967 162.32 130.98 160.201H130.871C130.365 161.062 129.422 161.568 128.328 161.568C126.564 161.568 125.197 160.229 125.184 158.355C125.184 156.414 126.633 154.951 128.834 154.965ZM128.848 156.4C127.74 156.4 126.906 157.262 126.92 158.314C126.92 159.381 127.713 160.215 128.82 160.215C129.914 160.215 130.775 159.326 130.762 158.301C130.762 157.289 129.955 156.4 128.848 156.4Z" fill="#242424"/>
<path d="M138.367 154.637L135.182 166.49H133.65L136.85 154.637H138.367Z" fill="#242424"/>
<path d="M144.34 155.102V165H142.549V156.838H142.494L140.184 158.314V156.688L142.631 155.102H144.34ZM150.416 155.102V165H148.625V156.838H148.57L146.259 158.314V156.688L148.707 155.102H150.416Z" fill="#242424"/>
<path d="M153.648 161.227C153.648 158.656 154.414 156.51 155.699 154.678H157.34C156.396 156.031 155.453 158.779 155.453 161.227C155.453 163.674 156.396 166.422 157.34 167.789H155.699C154.414 165.943 153.648 163.811 153.648 161.227Z" fill="#242424"/>
<path d="M165.35 154.883C165.35 156.441 167.086 158.014 169.725 158.355L169.123 159.586C167.024 159.271 165.356 158.239 164.557 156.838C163.743 158.239 162.082 159.271 160.004 159.586L159.402 158.355C162.014 158.014 163.75 156.441 163.75 154.883V154.254H165.35V154.883ZM170.176 160.652V161.91H165.268V166.217H163.764V161.91H158.91V160.652H170.176Z" fill="#242424"/>
<path d="M175.588 161.227C175.588 163.811 174.822 165.943 173.537 167.789H171.896C172.84 166.422 173.783 163.674 173.783 161.227C173.783 158.779 172.84 156.031 171.896 154.678H173.537C174.822 156.51 175.588 158.656 175.588 161.227Z" fill="#242424"/>
<path d="M208.279 154.965C210.098 154.979 212.012 156.072 212.012 159.695C212.012 163.168 210.521 165.137 208.143 165.137C206.324 165.137 205.039 164.016 204.807 162.402H206.297C206.502 163.236 207.145 163.824 208.143 163.824C209.674 163.824 210.562 162.484 210.576 160.229H210.453C209.92 161.062 208.99 161.568 207.924 161.568C206.146 161.568 204.725 160.215 204.725 158.314C204.725 156.428 206.133 154.951 208.279 154.965ZM208.279 156.223C207.076 156.223 206.188 157.152 206.188 158.287C206.188 159.436 207.049 160.338 208.252 160.338C209.441 160.338 210.371 159.367 210.371 158.273C210.371 157.207 209.496 156.223 208.279 156.223Z" fill="#242424"/>
<path d="M217.662 154.637L214.477 166.49H213.178L216.363 154.637H217.662Z" fill="#242424"/>
<path d="M222.635 155.102V165H221.117V156.605H221.062L218.697 158.15V156.715L221.158 155.102H222.635ZM228.259 165.137C226.113 165.137 224.609 163.975 224.623 162.361C224.609 161.09 225.525 160.051 226.687 159.873V159.818C225.675 159.586 224.992 158.684 224.992 157.604C224.992 156.086 226.373 154.965 228.259 154.965C230.132 154.965 231.5 156.086 231.513 157.604C231.5 158.684 230.816 159.586 229.818 159.818V159.873C230.966 160.051 231.882 161.09 231.896 162.361C231.882 163.975 230.379 165.137 228.259 165.137ZM228.259 163.893C229.545 163.893 230.365 163.223 230.365 162.252C230.365 161.227 229.476 160.488 228.259 160.488C227.029 160.488 226.127 161.227 226.154 162.252C226.127 163.223 226.947 163.893 228.259 163.893ZM228.259 159.299C229.298 159.299 230.037 158.67 230.037 157.74C230.037 156.824 229.312 156.195 228.259 156.195C227.166 156.195 226.455 156.811 226.455 157.74C226.455 158.67 227.207 159.299 228.259 159.299Z" fill="#242424"/>
<path d="M234.189 161.227C234.203 158.656 234.928 156.51 236.213 154.678H237.553C236.609 156.031 235.707 158.793 235.707 161.227C235.707 163.674 236.609 166.422 237.553 167.789H236.213C234.928 165.957 234.203 163.811 234.189 161.227Z" fill="#242424"/>
<path d="M245.727 154.992C245.713 156.619 247.709 158.15 250.115 158.465L249.609 159.531C247.606 159.21 245.843 158.171 245.057 156.729C244.25 158.178 242.493 159.21 240.504 159.531L239.984 158.465C242.391 158.15 244.359 156.633 244.373 154.992V154.322H245.727V154.992ZM250.621 160.734V161.801H245.645V166.162H244.373V161.801H239.451V160.734H250.621Z" fill="#242424"/>
<path d="M255.814 161.227C255.801 163.811 255.076 165.957 253.791 167.789H252.451C253.395 166.422 254.297 163.674 254.297 161.227C254.297 158.793 253.395 156.031 252.451 154.678H253.791C255.076 156.51 255.801 158.656 255.814 161.227Z" fill="#242424"/>
<path d="M288.279 154.965C290.098 154.979 292.012 156.072 292.012 159.695C292.012 163.168 290.521 165.137 288.143 165.137C286.324 165.137 285.039 164.016 284.807 162.402H286.297C286.502 163.236 287.145 163.824 288.143 163.824C289.674 163.824 290.562 162.484 290.576 160.229H290.453C289.92 161.062 288.99 161.568 287.924 161.568C286.146 161.568 284.725 160.215 284.725 158.314C284.725 156.428 286.133 154.951 288.279 154.965ZM288.279 156.223C287.076 156.223 286.188 157.152 286.188 158.287C286.188 159.436 287.049 160.338 288.252 160.338C289.441 160.338 290.371 159.367 290.371 158.273C290.371 157.207 289.496 156.223 288.279 156.223Z" fill="#242424"/>
<path d="M297.662 154.637L294.477 166.49H293.178L296.363 154.637H297.662Z" fill="#242424"/>
<path d="M302.635 155.102V165H301.117V156.605H301.062L298.697 158.15V156.715L301.158 155.102H302.635ZM308.205 154.965C310.023 154.979 311.937 156.072 311.937 159.695C311.937 163.168 310.447 165.137 308.068 165.137C306.25 165.137 304.964 164.016 304.732 162.402H306.222C306.427 163.236 307.07 163.824 308.068 163.824C309.599 163.824 310.488 162.484 310.502 160.229H310.379C309.845 161.062 308.916 161.568 307.849 161.568C306.072 161.568 304.65 160.215 304.65 158.314C304.65 156.428 306.058 154.951 308.205 154.965ZM308.205 156.223C307.002 156.223 306.113 157.152 306.113 158.287C306.113 159.436 306.974 160.338 308.177 160.338C309.367 160.338 310.296 159.367 310.296 158.273C310.296 157.207 309.421 156.223 308.205 156.223Z" fill="#242424"/>
<path d="M314.189 161.227C314.203 158.656 314.928 156.51 316.213 154.678H317.553C316.609 156.031 315.707 158.793 315.707 161.227C315.707 163.674 316.609 166.422 317.553 167.789H316.213C314.928 165.957 314.203 163.811 314.189 161.227Z" fill="#242424"/>
<path d="M329.199 154.418V158.615H325.672V160.037H330.621V161.09H319.451V160.037H324.387V158.615H320.873V154.418H329.199ZM322.145 155.443V157.576H327.914V155.443H322.145ZM329.254 162.252V166.162H327.941V163.277H320.695V162.252H329.254Z" fill="#242424"/>
<path d="M335.814 161.227C335.801 163.811 335.076 165.957 333.791 167.789H332.451C333.395 166.422 334.297 163.674 334.297 161.227C334.297 158.793 333.395 156.031 332.451 154.678H333.791C335.076 156.51 335.801 158.656 335.814 161.227Z" fill="#242424"/>
<path d="M367.279 154.965C369.098 154.979 371.012 156.072 371.012 159.695C371.012 163.168 369.521 165.137 367.143 165.137C365.324 165.137 364.039 164.016 363.807 162.402H365.297C365.502 163.236 366.145 163.824 367.143 163.824C368.674 163.824 369.562 162.484 369.576 160.229H369.453C368.92 161.062 367.99 161.568 366.924 161.568C365.146 161.568 363.725 160.215 363.725 158.314C363.725 156.428 365.133 154.951 367.279 154.965ZM367.279 156.223C366.076 156.223 365.188 157.152 365.188 158.287C365.188 159.436 366.049 160.338 367.252 160.338C368.441 160.338 369.371 159.367 369.371 158.273C369.371 157.207 368.496 156.223 367.279 156.223Z" fill="#242424"/>
<path d="M376.662 154.637L373.477 166.49H372.178L375.363 154.637H376.662Z" fill="#242424"/>
<path d="M114 179L188 179" stroke="#242424" stroke-width="2" stroke-linecap="round"/>
<path d="M44.5 124H41C40.4477 124 40 123.552 40 123L40 114.122C40 113.807 40.1483 113.51 40.4002 113.322L46.9002 108.45C47.2557 108.183 47.7443 108.183 48.0998 108.45L54.5998 113.322C54.8517 113.51 55 113.807 55 114.122V123C55 123.552 54.5523 124 54 124H50.5M44.5 124V118.5C44.5 117.948 44.9477 117.5 45.5 117.5H49.5C50.0523 117.5 50.5 117.948 50.5 118.5V124M44.5 124H47.5H50.5" stroke="#242424" stroke-width="2"/>
<path d="M74.1914 108.664C76.9648 108.684 79.6992 110.324 79.7188 115.5C79.7188 120.383 77.5117 123.195 74.0352 123.195C71.3008 123.195 69.4258 121.496 69.1133 119.152H71.6328C71.8867 120.266 72.7461 120.988 74.0352 120.988C76.0859 120.988 77.2383 119.172 77.2578 116.145H77.1016C76.3789 117.375 75.0312 118.098 73.4688 118.098C70.9492 118.098 68.9961 116.184 68.9766 113.508C68.9766 110.734 71.0469 108.645 74.1914 108.664ZM74.2109 110.715C72.6289 110.715 71.4375 111.945 71.457 113.449C71.457 114.973 72.5898 116.164 74.1719 116.164C75.7344 116.164 76.9648 114.895 76.9453 113.43C76.9453 111.984 75.793 110.715 74.2109 110.715ZM95.5469 107.102V117.395H93.3594V116.672H90.0586V115.344H93.3594V107.102H95.5469ZM80.7227 113.469C84.1406 113.469 88.3984 113.43 92.1875 113.059L92.3047 114.426C90.6934 114.65 89.0332 114.787 87.4023 114.855V117.414H85.2539V114.953C83.7402 114.992 82.2852 115.002 80.957 114.992L80.7227 113.469ZM95.5469 117.941V121.906H85.5078V123.039H96.0156V124.582H83.3789V120.48H93.3984V119.426H83.3008V117.941H95.5469ZM86.4258 107.375C89.043 107.375 90.8398 108.43 90.8398 110.031C90.8398 111.672 89.043 112.668 86.4258 112.668C83.75 112.668 81.9727 111.672 81.9727 110.031C81.9727 108.43 83.75 107.375 86.4258 107.375ZM86.4258 108.82C84.9414 108.82 84.0234 109.289 84.043 110.031C84.0234 110.773 84.9414 111.223 86.4258 111.223C87.8711 111.223 88.8086 110.773 88.8086 110.031C88.8086 109.289 87.8711 108.82 86.4258 108.82ZM117.887 115.539V117.277H101.773V115.539H108.766V113.859H103.746V107.883H115.934V109.582H105.914V112.141H116.031V113.859H110.895V115.539H117.887ZM109.801 118.293C113.609 118.293 115.895 119.445 115.914 121.516C115.895 123.566 113.609 124.738 109.801 124.738C105.953 124.738 103.648 123.566 103.648 121.516C103.648 119.445 105.953 118.293 109.801 118.293ZM109.801 119.953C107.223 119.953 105.836 120.5 105.855 121.516C105.836 122.531 107.223 123.059 109.801 123.059C112.32 123.059 113.727 122.531 113.746 121.516C113.727 120.5 112.32 119.953 109.801 119.953ZM123.305 108.371C125.961 108.371 127.875 110.793 127.895 114.602C127.875 118.449 125.961 120.852 123.305 120.852C120.629 120.852 118.695 118.449 118.715 114.602C118.695 110.793 120.629 108.371 123.305 108.371ZM123.305 110.324C121.82 110.324 120.805 111.906 120.805 114.602C120.805 117.316 121.82 118.898 123.305 118.898C124.809 118.898 125.805 117.316 125.805 114.602C125.805 111.906 124.809 110.324 123.305 110.324ZM132.387 107.082V113.859H135.102V115.695H132.387V124.738H130.219V107.082H132.387ZM150.051 107.082V124.758H147.902V107.082H150.051ZM144.621 108.625V115.246H138.547V118.801C141.33 118.781 143.732 118.645 146.477 118.176L146.672 119.953C143.664 120.48 141.027 120.578 137.863 120.578H136.32V113.527H142.414V110.383H136.301V108.625H144.621ZM171.16 107.082V117.57H168.992V113.254H165.984V111.477H168.992V107.082H171.16ZM165.184 118.02C168.934 118.02 171.219 119.25 171.219 121.379C171.219 123.508 168.934 124.738 165.184 124.738C161.453 124.738 159.168 123.508 159.188 121.379C159.168 119.25 161.453 118.02 165.184 118.02ZM165.184 119.68C162.723 119.68 161.336 120.266 161.336 121.379C161.336 122.473 162.723 123.059 165.184 123.059C167.645 123.059 169.051 122.473 169.051 121.379C169.051 120.266 167.645 119.68 165.184 119.68ZM162.859 110.109C162.859 112.258 164.285 114.426 167.02 115.344L165.926 117.062C163.963 116.398 162.566 115.051 161.805 113.391C161.023 115.275 159.549 116.779 157.449 117.531L156.316 115.812C159.148 114.836 160.652 112.453 160.652 110.129V109.992H156.98V108.234H166.512V109.992H162.859V110.109ZM187.906 107.082V124.738H185.719V107.082H187.906ZM182.633 108.957C182.633 114.211 180.602 118.684 174.41 121.613L173.277 119.875C177.896 117.678 180.045 114.689 180.426 110.676H174.176V108.957H182.633ZM204.652 107.082V124.738H202.484V107.082H204.652ZM190.023 119.836C191.43 119.826 193.021 119.826 194.691 119.777V118.156C192.699 117.844 191.41 116.623 191.41 114.953C191.41 112.961 193.168 111.633 195.746 111.633C198.344 111.633 200.141 112.961 200.141 114.953C200.141 116.613 198.842 117.824 196.859 118.137V119.699C198.412 119.631 199.975 119.504 201.449 119.309L201.605 120.93C197.719 121.594 193.52 121.633 190.336 121.633L190.023 119.836ZM201.137 109.113V110.832H190.395V109.113H194.691V107.141H196.859V109.113H201.137ZM195.746 113.293C194.418 113.312 193.461 113.918 193.48 114.953C193.461 115.969 194.418 116.574 195.746 116.555C197.133 116.574 198.051 115.969 198.051 114.953C198.051 113.918 197.133 113.312 195.746 113.293ZM212.453 108.312C215.246 108.293 217.297 110.07 217.316 112.57C217.297 115.09 215.246 116.848 212.453 116.848C209.68 116.848 207.609 115.09 207.609 112.57C207.609 110.07 209.68 108.293 212.453 108.312ZM212.453 110.188C210.91 110.188 209.758 111.105 209.758 112.57C209.758 114.055 210.91 114.953 212.453 114.953C214.016 114.953 215.188 114.055 215.188 112.57C215.188 111.105 214.016 110.188 212.453 110.188ZM221.438 107.082V124.758H219.27V107.082H221.438ZM206.809 119.289C209.992 119.289 214.406 119.25 218.215 118.703L218.391 120.285C214.426 121.047 210.188 121.066 207.082 121.066L206.809 119.289Z" fill="#242424"/>
<path d="M340.667 117.917L346.333 120.75M346.333 112.25L340.667 115.083M349.167 125C347.602 125 346.333 123.731 346.333 122.167C346.333 120.602 347.602 119.333 349.167 119.333C350.731 119.333 352 120.602 352 122.167C352 123.731 350.731 125 349.167 125ZM337.833 119.333C336.269 119.333 335 118.065 335 116.5C335 114.935 336.269 113.667 337.833 113.667C339.398 113.667 340.667 114.935 340.667 116.5C340.667 118.065 339.398 119.333 337.833 119.333ZM349.167 113.667C347.602 113.667 346.333 112.398 346.333 110.833C346.333 109.269 347.602 108 349.167 108C350.731 108 352 109.269 352 110.833C352 112.398 350.731 113.667 349.167 113.667Z" stroke="#242424" stroke-width="2" stroke-linecap="round" stroke-linejoin="round"/>
<g clip-path="url(#clip2_1195_1067)">
<rect width="360" height="52" transform="translate(16 40)" fill="white"/>
<path d="M55.8815 67.8317H57.1898" stroke="#76C0FF" stroke-miterlimit="10" stroke-linecap="round"/>
<path d="M55.2179 64.9625L56.4198 64.4822" stroke="#76C0FF" stroke-miterlimit="10" stroke-linecap="round"/>
<path d="M55.2179 70.6692L56.4198 71.1495" stroke="#76C0FF" stroke-miterlimit="10" stroke-linecap="round"/>
<path d="M42.9168 57.2967C41.8025 55.8432 39.7304 55.5714 38.2843 56.6963C36.8382 57.8213 36.5753 59.9131 37.6896 61.373C37.8586 61.5942 38.1716 61.6321 38.3907 61.4615L42.8292 57.9982C43.0483 57.8276 43.0858 57.5116 42.9168 57.2904V57.2967Z" fill="#76C0FF"/>
<path d="M53.0832 57.2966C54.1975 55.8367 56.2696 55.5713 57.7156 56.6962C59.1617 57.8211 59.4246 59.913 58.3103 61.3728C58.1413 61.594 57.8283 61.6319 57.6092 61.4613L53.1708 57.9981C52.9517 57.8274 52.9141 57.5114 53.0832 57.2902V57.2966Z" fill="#76C0FF"/>
<g style="mix-blend-mode:multiply">
<path d="M40.6067 74.2273C40.35 74.4485 39.9619 74.4169 39.749 74.1515C38.2216 72.1923 37.4703 69.7466 37.6519 67.2755C37.8522 64.6023 39.1293 62.1123 41.2014 60.3617C43.2735 58.6111 45.9716 57.7326 48.7072 57.9286C51.2238 58.1055 53.5713 59.1799 55.3242 60.9305C55.5746 61.1833 55.5433 61.594 55.2741 61.8216L53.8906 62.9907C53.6339 63.2119 53.2458 63.1803 53.0017 62.9465C51.7872 61.7836 50.1846 61.0758 48.4819 60.9557C46.5663 60.8167 44.682 61.4297 43.2296 62.6558C41.7773 63.8818 40.8821 65.6261 40.7444 67.4967C40.6192 69.1525 41.0949 70.7957 42.0778 72.1355C42.2906 72.4198 42.2593 72.8306 41.9901 73.0581L40.6067 74.2273Z" fill="#76C0FF"/>
</g>
<g style="mix-blend-mode:multiply">
<path d="M56.0692 73.1782C56.3697 73.3678 56.4511 73.7723 56.2382 74.0503C55.5622 74.9414 54.7358 75.7188 53.7968 76.3444C52.6762 77.0965 51.418 77.621 50.0908 77.8991C48.7637 78.1772 47.3927 78.1898 46.0593 77.9496C44.7259 77.7095 43.4551 77.2102 42.3158 76.4835C41.1764 75.7567 40.1999 74.8214 39.4299 73.728C38.6599 72.6347 38.1215 71.4023 37.8398 70.1005C37.5581 68.7986 37.5393 67.4588 37.7897 66.1569C38.0026 65.051 38.3969 63.9892 38.9604 63.016C39.1294 62.719 39.5112 62.6431 39.7992 62.8264L41.3392 63.806C41.6397 63.9955 41.7211 64.3937 41.552 64.7097C41.214 65.3417 40.9698 66.0179 40.8384 66.7194C40.6631 67.6357 40.6756 68.5711 40.8759 69.4811C41.07 70.3912 41.4519 71.2507 41.9902 72.0217C42.5286 72.7864 43.211 73.4436 44.0123 73.9492C44.8073 74.4548 45.6962 74.8024 46.629 74.973C47.5617 75.1437 48.5195 75.131 49.4523 74.9414C50.3788 74.7518 51.2615 74.379 52.044 73.8544C52.6575 73.4436 53.1958 72.9444 53.6528 72.3756C53.8657 72.1102 54.2413 72.028 54.5292 72.2113L56.0692 73.1908V73.1782Z" fill="#30A0FF"/>
</g>
<path d="M47.8622 63.9576C47.8622 64.2546 47.6243 64.4948 47.3301 64.4948C47.0359 64.4948 46.798 64.2546 46.798 63.9576C46.798 63.6606 47.0359 63.4204 47.3301 63.4204C47.6243 63.4204 47.8622 63.6606 47.8622 63.9576Z" fill="#242424" stroke="#242424"/>
<path d="M47.6432 68.3246L55.1553 62.0048L47.6432 68.3246Z" fill="#242424"/>
<path d="M47.6432 68.3688L52.4322 71.1495L47.6432 68.3688Z" fill="#242424"/>
<path fill-rule="evenodd" clip-rule="evenodd" d="M55.7565 62.7331C56.1549 62.398 56.2087 61.8002 55.8767 61.398C55.5447 60.9958 54.9526 60.9415 54.5542 61.2766L47.042 67.5964C46.8144 67.788 46.6992 68.0652 46.7043 68.3428C46.6954 68.6797 46.8653 69.0107 47.175 69.1906L51.964 71.9713C52.4135 72.2323 52.9876 72.076 53.2461 71.6222C53.5047 71.1683 53.3499 70.5888 52.9003 70.3278L49.249 68.2077L55.7565 62.7331Z" fill="#242424"/>
<path d="M42.3973 75.9526L40.2062 78.1645C39.8181 78.5564 39.8494 79.2262 40.2751 79.656C40.7008 80.0857 41.3644 80.1173 41.7525 79.7255L43.9435 77.5136C44.3316 77.1218 44.3003 76.4519 43.8747 76.0221C43.449 75.5924 42.7854 75.5608 42.3973 75.9526Z" fill="#76C0FF"/>
<path d="M51.5807 77.3745L53.7718 79.5865C54.1599 79.9783 54.8235 79.9467 55.2492 79.517C55.6748 79.0872 55.7062 78.4173 55.318 78.0255L53.127 75.8136C52.7389 75.4217 52.0753 75.4533 51.6496 75.8831C51.2239 76.3128 51.1926 76.9827 51.5807 77.3745Z" fill="#76C0FF"/>
<rect x="335" y="62" width="18" height="2" rx="1" fill="#242424"/>
<rect x="335" y="67" width="18" height="2" rx="1" fill="#242424"/>
<rect x="335" y="72" width="18" height="2" rx="1" fill="#242424"/>
<rect width="360" height="24" transform="translate(16 16)" fill="white"/>
<path d="M35.9736 23.6816C37.6621 23.6943 39.4395 24.71 39.4395 28.0742C39.4395 31.2988 38.0557 33.127 35.8467 33.127C34.1582 33.127 32.9648 32.0859 32.749 30.5879H34.1328C34.3232 31.3623 34.9199 31.9082 35.8467 31.9082C37.2686 31.9082 38.0938 30.6641 38.1064 28.5693H37.9922C37.4971 29.3438 36.6338 29.8135 35.6436 29.8135C33.9932 29.8135 32.6729 28.5566 32.6729 26.792C32.6729 25.04 33.9805 23.6689 35.9736 23.6816ZM35.9736 24.8496C34.8564 24.8496 34.0312 25.7129 34.0312 26.7666C34.0312 27.833 34.8311 28.6709 35.9482 28.6709C37.0527 28.6709 37.916 27.7695 37.916 26.7539C37.916 25.7637 37.1035 24.8496 35.9736 24.8496ZM41.4885 31.8193C40.9934 31.8193 40.5744 31.4131 40.5871 30.918C40.5744 30.4229 40.9934 30.0166 41.4885 30.0166C41.9709 30.0166 42.3898 30.4229 42.3898 30.918C42.3898 31.4131 41.9709 31.8193 41.4885 31.8193ZM41.4885 26.8047C40.9934 26.8047 40.5744 26.3984 40.5871 25.9033C40.5744 25.4082 40.9934 25.002 41.4885 25.002C41.9709 25.002 42.3898 25.4082 42.3898 25.9033C42.3898 26.3984 41.9709 26.8047 41.4885 26.8047ZM43.4867 31.21V30.0801L47.5492 23.8086H49.2758V30.0293H50.5326V31.21H49.2758V33H47.9555V31.21H43.4867ZM44.9594 30.0293H47.9555V25.4717H47.8539L44.9594 29.9531V30.0293ZM54.816 33.127C52.6832 33.127 51.4391 31.4131 51.4391 28.4043C51.4391 25.4209 52.7086 23.6816 54.816 23.6816C56.9234 23.6816 58.193 25.4209 58.193 28.4043C58.193 31.4131 56.9361 33.127 54.816 33.127ZM54.816 31.9209C56.0602 31.9209 56.7965 30.7021 56.7965 28.4043C56.7965 26.1191 56.0475 24.8623 54.816 24.8623C53.5846 24.8623 52.8355 26.1191 52.8355 28.4043C52.8355 30.7021 53.5719 31.9209 54.816 31.9209Z" fill="#444444"/>
<path d="M357.333 32.1133L357.333 31L358.667 31L358.667 27L357.333 27L357.333 25.8867C357.333 25.6515 357.24 25.426 357.074 25.2597C356.907 25.0934 356.682 25 356.447 25L346.22 25C345.733 25 345.333 25.4 345.333 25.8867L345.333 32.1133C345.333 32.3485 345.427 32.574 345.593 32.7403C345.759 32.9066 345.985 33 346.22 33L356.447 33C356.933 33 357.333 32.6 357.333 32.1133Z" fill="#444444"/>
<path fill-rule="evenodd" clip-rule="evenodd" d="M338.245 24.5556C338.245 24.1138 337.886 23.7556 337.445 23.7556C337.003 23.7556 336.645 24.1138 336.645 24.5556V33.4445C336.645 33.8863 337.003 34.2445 337.445 34.2445C337.886 34.2445 338.245 33.8863 338.245 33.4445V24.5556ZM332.289 29.2666C332.289 28.8247 331.931 28.4666 331.489 28.4666C331.047 28.4666 330.689 28.8247 330.689 29.2666V33.4443C330.689 33.8862 331.047 34.2443 331.489 34.2443C331.931 34.2443 332.289 33.8862 332.289 33.4443V29.2666ZM328.556 30.8667C328.997 30.8667 329.356 31.2249 329.356 31.6667V33.4445C329.356 33.8863 328.997 34.2445 328.556 34.2445C328.114 34.2445 327.756 33.8863 327.756 33.4445V31.6667C327.756 31.2249 328.114 30.8667 328.556 30.8667ZM335.311 26.9556C335.311 26.5137 334.953 26.1556 334.511 26.1556C334.069 26.1556 333.711 26.5137 333.711 26.9556V33.4445C333.711 33.8863 334.069 34.2445 334.511 34.2445C334.953 34.2445 335.311 33.8863 335.311 33.4445V26.9556Z" fill="#222227"/>
<path fill-rule="evenodd" clip-rule="evenodd" d="M311.866 25.6511C312.833 25.2493 313.871 25.0431 314.918 25.0444L314.919 25.0444C317.122 25.0444 319.115 25.939 320.557 27.3864C320.834 27.6647 321.284 27.6657 321.562 27.3885C321.84 27.1114 321.841 26.6612 321.564 26.3829C319.867 24.6784 317.516 23.6223 314.92 23.6222L314.92 23.6222L314.919 24.3333V23.6222L314.92 23.6222C313.684 23.6207 312.461 23.8638 311.32 24.3377C310.179 24.8117 309.144 25.507 308.273 26.3835C307.996 26.6622 307.998 27.1124 308.277 27.3892C308.555 27.6659 309.006 27.6644 309.282 27.3858C310.02 26.6426 310.899 26.053 311.866 25.6511ZM312.842 28.1344C313.498 27.8542 314.205 27.7102 314.918 27.7111H314.92C315.634 27.7102 316.34 27.8542 316.996 28.1344C317.653 28.4146 318.245 28.8252 318.738 29.3412C319.01 29.6252 319.46 29.6355 319.744 29.3642C320.028 29.0929 320.038 28.6427 319.767 28.3588C319.141 27.7035 318.388 27.1822 317.555 26.8264C316.722 26.4707 315.825 26.2879 314.919 26.2889L314.92 26.2889L314.919 27L314.918 26.2889L314.919 26.2889C314.013 26.2879 313.117 26.4707 312.283 26.8264C311.45 27.1822 310.698 27.7035 310.072 28.3588C309.8 28.6427 309.811 29.0929 310.095 29.3642C310.379 29.6355 310.829 29.6252 311.1 29.3412C311.593 28.8252 312.186 28.4146 312.842 28.1344ZM313.836 30.6109C314.176 30.4568 314.545 30.3773 314.918 30.3778L314.919 30.3778C315.705 30.3778 316.41 30.7229 316.891 31.2716C317.15 31.5669 317.6 31.5962 317.895 31.3372C318.19 31.0782 318.219 30.6289 317.96 30.3336C317.22 29.4905 316.132 28.9556 314.919 28.9555L314.92 28.9555L314.919 29.6666V28.9555H314.919C314.343 28.9549 313.774 29.0777 313.249 29.3155C312.724 29.5533 312.257 29.9008 311.877 30.3345C311.619 30.6301 311.649 31.0793 311.944 31.3379C312.24 31.5965 312.689 31.5664 312.948 31.2708C313.193 30.9899 313.496 30.7649 313.836 30.6109ZM315.889 32.7333C315.889 33.2242 315.491 33.6222 315 33.6222C314.509 33.6222 314.111 33.2242 314.111 32.7333C314.111 32.2424 314.509 31.8444 315 31.8444C315.491 31.8444 315.889 32.2424 315.889 32.7333Z" fill="#222227"/>
</g>
</g>
</g>
<defs>
<filter id="filter0_ii_1195_1067" x="0" y="-4" width="392" height="836" filterUnits="userSpaceOnUse" color-interpolation-filters="sRGB">
<feFlood flood-opacity="0" result="BackgroundImageFix"/>
<feBlend mode="normal" in="SourceGraphic" in2="BackgroundImageFix" result="shape"/>
<feColorMatrix in="SourceAlpha" type="matrix" values="0 0 0 0 0 0 0 0 0 0 0 0 0 0 0 0 0 0 127 0" result="hardAlpha"/>
<feMorphology radius="2" operator="erode" in="SourceAlpha" result="effect1_innerShadow_1195_1067"/>
<feOffset dy="-4"/>
<feGaussianBlur stdDeviation="8"/>
<feComposite in2="hardAlpha" operator="arithmetic" k2="-1" k3="1"/>
<feColorMatrix type="matrix" values="0 0 0 0 0.716667 0 0 0 0 0.716667 0 0 0 0 0.716667 0 0 0 0.72 0"/>
<feBlend mode="normal" in2="shape" result="effect1_innerShadow_1195_1067"/>
<feColorMatrix in="SourceAlpha" type="matrix" values="0 0 0 0 0 0 0 0 0 0 0 0 0 0 0 0 0 0 127 0" result="hardAlpha"/>
<feOffset dy="-2"/>
<feGaussianBlur stdDeviation="1"/>
<feComposite in2="hardAlpha" operator="arithmetic" k2="-1" k3="1"/>
<feColorMatrix type="matrix" values="0 0 0 0 0.841667 0 0 0 0 0.841667 0 0 0 0 0.841667 0 0 0 0.72 0"/>
<feBlend mode="normal" in2="effect1_innerShadow_1195_1067" result="effect2_innerShadow_1195_1067"/>
</filter>
<clipPath id="clip0_1195_1067">
<rect x="16" y="16" width="360" height="800" rx="34" fill="white"/>
</clipPath>
<clipPath id="clip1_1195_1067">
<rect width="360" height="878" fill="white" transform="translate(16 16)"/>
</clipPath>
<clipPath id="clip2_1195_1067">
<rect width="360" height="76" fill="white" transform="translate(16 16)"/>
</clipPath>
</defs>
</svg>
