<svg width="395" height="832" viewBox="0 0 395 832" fill="none" xmlns="http://www.w3.org/2000/svg">
<rect x="386" y="350" width="9" height="52" rx="3" fill="white"/>
<rect x="386" y="206" width="9" height="102" rx="3" fill="white"/>
<g filter="url(#filter0_ii_1078_745)">
<rect width="392" height="832" rx="48" fill="white"/>
</g>
<g clip-path="url(#clip0_1078_745)">
<rect x="16" y="16" width="360" height="800" rx="34" fill="white"/>
<rect width="360" height="800" transform="translate(16 16)" fill="white"/>
<path fill-rule="evenodd" clip-rule="evenodd" d="M349.293 82.7071C349.683 83.0976 350.317 83.0976 350.707 82.7071C351.098 82.3166 351.098 81.6834 350.707 81.2929L345.414 76L350.707 70.7071C351.098 70.3166 351.098 69.6834 350.707 69.2929C350.317 68.9024 349.683 68.9024 349.293 69.2929L344 74.5858L338.707 69.2929C338.317 68.9024 337.683 68.9024 337.293 69.2929C336.902 69.6834 336.902 70.3166 337.293 70.7071L342.586 76L337.293 81.2929C336.902 81.6834 336.902 82.3166 337.293 82.7071C337.683 83.0976 338.317 83.0976 338.707 82.7071L344 77.4142L349.293 82.7071Z" fill="#242424"/>
<path d="M56.7188 116.812V118.59H40.5859V116.812H47.5391V112.965H42.3633V104.449H54.8633V112.965H49.6875V116.812H56.7188ZM44.4922 106.188V111.266H52.7148V106.188H44.4922ZM73.4844 111.871V113.609H57.3711V111.871H73.4844ZM71.6875 108.512V110.27H59.3438V103.785H71.5312V105.504H61.5117V108.512H71.6875ZM71.8047 118.609V120.367H59.3633V115.152H61.4922V118.609H71.8047ZM86.3516 114.117C90.1797 114.137 92.6016 115.348 92.6211 117.438C92.6016 119.488 90.1797 120.719 86.3516 120.719C82.543 120.719 80.1016 119.488 80.1016 117.438C80.1016 115.348 82.543 114.137 86.3516 114.117ZM86.3516 115.758C83.8125 115.758 82.2695 116.363 82.2891 117.438C82.2695 118.473 83.8125 119.039 86.3516 119.039C88.9102 119.039 90.4531 118.473 90.4727 117.438C90.4531 116.363 88.9102 115.758 86.3516 115.758ZM92.5039 103.922V105.387C92.5039 106.773 92.5039 108.258 92.0156 110.074L89.8672 109.879C90.3066 108.16 90.3359 106.92 90.3359 105.641H80.2773V103.922H92.5039ZM94.457 111.09V112.848H78.4414V111.09H84.6523V107.887H86.8008V111.09H94.457ZM111.301 112.984V114.742H107.375V120.738H105.168V114.742H101.262V120.738H99.0352V114.742H95.168V112.984H111.301ZM103.195 103.707C106.945 103.727 109.562 105.25 109.562 107.652C109.562 110.016 106.945 111.52 103.195 111.52C99.4258 111.52 96.8477 110.016 96.8672 107.652C96.8477 105.25 99.4258 103.727 103.195 103.707ZM103.195 105.465C100.695 105.465 99.0742 106.266 99.0938 107.652C99.0742 109 100.695 109.801 103.195 109.801C105.695 109.801 107.316 109 107.316 107.652C107.316 106.266 105.695 105.465 103.195 105.465ZM124.07 104.078C124.07 108.375 122 111.344 117.254 113.082L116.297 111.578C118.396 110.826 119.842 109.859 120.75 108.688L116.609 109.156L116.316 107.398L121.609 107.125C121.756 106.715 121.854 106.285 121.922 105.836H117.098V104.078H124.07ZM131.316 103.102V112.242H129.246V108.629H127.391V112.145H125.34V103.434H127.391V106.871H129.246V103.102H131.316ZM131.316 112.926V117.438H121.551V118.824H131.941V120.523H119.383V115.855H129.168V114.625H119.363V112.926H131.316ZM147.672 103.102V116.09H145.523V103.102H147.672ZM148.16 118.629V120.387H135.914V115.035H138.102V118.629H148.16ZM142.047 104.293V109.742H136.07V111.969C139.264 111.959 141.363 111.861 143.805 111.422L144.039 113.16C141.383 113.648 139.059 113.746 135.445 113.746H133.941V108.102H139.898V106.031H133.902V104.293H142.047ZM158.715 104.684V106.461H152.836V114.684C155.59 114.664 157.533 114.547 159.73 114.137L159.965 115.895C157.484 116.383 155.355 116.48 152.055 116.48H150.648V104.684H158.715ZM164.613 103.082V120.758H162.445V111.07H157.777V109.293H162.445V103.082H164.613Z" fill="#242424"/>
<path d="M48.2793 154.965C50.0977 154.979 52.0117 156.072 52.0117 159.695C52.0117 163.168 50.5215 165.137 48.1426 165.137C46.3242 165.137 45.0391 164.016 44.8066 162.402H46.2969C46.502 163.236 47.1445 163.824 48.1426 163.824C49.6738 163.824 50.5625 162.484 50.5762 160.229H50.4531C49.9199 161.062 48.9902 161.568 47.9238 161.568C46.1465 161.568 44.7246 160.215 44.7246 158.314C44.7246 156.428 46.1328 154.951 48.2793 154.965ZM48.2793 156.223C47.0762 156.223 46.1875 157.152 46.1875 158.287C46.1875 159.436 47.0488 160.338 48.252 160.338C49.4414 160.338 50.3711 159.367 50.3711 158.273C50.3711 157.207 49.4961 156.223 48.2793 156.223ZM63.0094 153.926V161.104H61.7105V160.516H59.318V159.695H61.7105V153.926H63.0094ZM52.7965 158.438C55.1617 158.451 58.1695 158.424 60.8082 158.137L60.8766 158.971C59.7213 159.128 58.525 159.224 57.3492 159.285V161.131H56.0641V159.34C54.9566 159.367 53.9039 159.374 52.9469 159.367L52.7965 158.438ZM63.0094 161.514V164.152H55.9547V165.096H63.3785V166.039H54.6832V163.291H61.7242V162.416H54.6285V161.514H63.0094ZM56.775 154.131C58.5934 154.131 59.8238 154.855 59.8375 155.977C59.8238 157.125 58.5934 157.809 56.775 157.809C54.9156 157.809 53.6988 157.125 53.7125 155.977C53.6988 154.855 54.9156 154.131 56.775 154.131ZM56.775 155.006C55.6402 155.006 54.9293 155.389 54.9293 155.977C54.9293 156.564 55.6402 156.934 56.775 156.934C57.8824 156.934 58.607 156.564 58.607 155.977C58.607 155.389 57.8824 155.006 56.775 155.006ZM78.825 159.873V160.912H67.6414V159.873H72.6043V158.574H69.0359V154.473H77.4441V155.498H70.3211V157.535H77.5262V158.574H73.8621V159.873H78.825ZM73.2195 161.705C75.8582 161.705 77.4441 162.512 77.4441 163.934C77.4441 165.355 75.8582 166.148 73.2195 166.162C70.5672 166.148 68.9676 165.355 68.9676 163.934C68.9676 162.512 70.5672 161.705 73.2195 161.705ZM73.2195 162.717C71.3465 162.717 70.2801 163.154 70.2801 163.934C70.2801 164.713 71.3465 165.15 73.2195 165.137C75.0652 165.15 76.1453 164.713 76.1453 163.934C76.1453 163.154 75.0652 162.717 73.2195 162.717ZM82.6723 154.828C84.5043 154.828 85.8031 156.496 85.8168 159.121C85.8031 161.76 84.5043 163.428 82.6723 163.428C80.8402 163.428 79.5277 161.76 79.5414 159.121C79.5277 156.496 80.8402 154.828 82.6723 154.828ZM82.6723 155.99C81.5512 155.99 80.7855 157.193 80.7855 159.121C80.7855 161.062 81.5512 162.266 82.6723 162.266C83.807 162.266 84.5727 161.062 84.5727 159.121C84.5727 157.193 83.807 155.99 82.6723 155.99ZM88.934 153.912V158.711H90.9027V159.805H88.934V166.162H87.6352V153.912H88.934ZM101.312 153.912V166.189H100.014V153.912H101.312ZM97.5664 155.02V159.49H93.1641V162.17C95.1465 162.163 96.8828 162.074 98.9336 161.732L99.0566 162.799C96.8828 163.168 95.0371 163.25 92.877 163.25H91.8379V158.451H96.2402V156.072H91.8242V155.02H97.5664ZM116.171 153.912V161.199H114.872V158.096H112.589V157.029H114.872V153.912H116.171ZM112.07 161.541C114.64 161.541 116.212 162.389 116.212 163.852C116.212 165.314 114.64 166.148 112.07 166.162C109.499 166.148 107.913 165.314 107.927 163.852C107.913 162.389 109.499 161.541 112.07 161.541ZM112.07 162.553C110.279 162.553 109.212 163.018 109.212 163.852C109.212 164.672 110.279 165.15 112.07 165.137C113.861 165.15 114.927 164.672 114.927 163.852C114.927 163.018 113.861 162.553 112.07 162.553ZM110.347 156.072C110.347 157.631 111.454 159.135 113.3 159.764L112.63 160.789C111.256 160.311 110.244 159.333 109.718 158.123C109.178 159.497 108.105 160.598 106.642 161.131L105.958 160.092C107.859 159.436 109.021 157.781 109.021 156.086V155.812H106.368V154.76H112.972V155.812H110.347V156.072ZM127.893 153.912V166.162H126.581V153.912H127.893ZM124.243 155.225C124.243 158.807 122.712 161.924 118.514 163.934L117.831 162.881C121.092 161.329 122.678 159.121 122.93 156.264H118.419V155.225H124.243ZM139.588 153.912V166.162H138.289V153.912H139.588ZM129.526 162.826C130.531 162.819 131.686 162.812 132.889 162.771V161.555C131.454 161.37 130.524 160.529 130.537 159.326C130.524 157.945 131.727 157.029 133.504 157.029C135.295 157.029 136.526 157.945 136.526 159.326C136.526 160.516 135.596 161.35 134.174 161.541V162.73C135.309 162.683 136.457 162.594 137.537 162.457L137.633 163.428C134.912 163.879 131.946 163.906 129.704 163.906L129.526 162.826ZM137.264 155.375V156.414H129.786V155.375H132.889V153.939H134.188V155.375H137.264ZM133.504 158.041C132.479 158.041 131.754 158.547 131.768 159.326C131.754 160.105 132.479 160.584 133.504 160.584C134.557 160.584 135.282 160.105 135.282 159.326C135.282 158.547 134.557 158.041 133.504 158.041ZM145.199 154.787C147.141 154.773 148.521 155.977 148.535 157.699C148.521 159.422 147.141 160.625 145.199 160.625C143.271 160.625 141.85 159.422 141.863 157.699C141.85 155.977 143.271 154.773 145.199 154.787ZM145.199 155.908C144.01 155.908 143.135 156.619 143.148 157.699C143.135 158.779 144.01 159.49 145.199 159.49C146.389 159.49 147.264 158.779 147.264 157.699C147.264 156.619 146.389 155.908 145.199 155.908ZM151.338 153.912V166.189H150.039V153.912H151.338ZM141.275 162.471C143.504 162.471 146.594 162.443 149.273 162.061L149.369 163.004C146.594 163.537 143.627 163.551 141.439 163.551L141.275 162.471Z" fill="#444444"/>
<path d="M295.328 164L299.113 156.688V156.617H294.742V155.516H300.449V156.664L296.676 164H295.328Z" fill="#D9282B"/>
<path d="M305.367 154.918C306.926 154.93 308.062 155.867 308.062 157.227C308.062 158.586 306.926 159.523 305.367 159.523C303.785 159.523 302.66 158.586 302.66 157.227C302.66 155.867 303.785 154.93 305.367 154.918ZM305.367 155.691C304.324 155.691 303.551 156.324 303.562 157.227C303.551 158.141 304.324 158.773 305.367 158.773C306.398 158.773 307.172 158.141 307.172 157.227C307.172 156.324 306.398 155.691 305.367 155.691ZM311.016 154.531V159.887H310.102V154.531H311.016ZM311.016 160.391V162.898H305.168V164.07H311.391V164.809H304.266V162.207H310.102V161.129H304.242V160.391H311.016ZM324.138 155.727V156.488H315.689V155.727H319.486V154.473H320.388V155.727H324.138ZM324.736 161.281V162.043H320.388V164.973H319.486V162.043H315.197V161.281H324.736ZM319.943 157.086C322.064 157.086 323.341 157.707 323.341 158.832C323.341 159.934 322.064 160.555 319.943 160.566C317.81 160.555 316.533 159.934 316.545 158.832C316.533 157.707 317.81 157.086 319.943 157.086ZM319.943 157.789C318.384 157.789 317.482 158.176 317.494 158.832C317.482 159.477 318.384 159.852 319.943 159.852C321.478 159.852 322.38 159.477 322.392 158.832C322.38 158.176 321.478 157.789 319.943 157.789ZM331.484 156.207C331.472 157.625 332.55 158.926 334.085 159.453L333.605 160.18C332.427 159.758 331.507 158.873 331.05 157.766C330.611 158.99 329.673 159.934 328.437 160.391L327.956 159.652C329.527 159.09 330.57 157.73 330.581 156.148V155.07H331.484V156.207ZM336.124 154.531V157.297H337.695V158.082H336.124V160.848H335.21V154.531H336.124ZM336.124 161.363V164.949H335.21V162.113H329.304V161.363H336.124ZM346.957 154.531V164.949H346.078V154.531H346.957ZM344.848 154.789V164.41H343.98V159.043H342.223V158.293H343.98V154.789H344.848ZM341.109 157.508C341.109 159.312 341.918 161.105 343.359 161.938L342.797 162.617C341.771 162.002 341.045 160.877 340.688 159.547C340.307 160.982 339.551 162.207 338.508 162.863L337.922 162.172C339.375 161.305 340.219 159.406 340.219 157.508V156.523H338.215V155.762H343.02V156.523H341.109V157.508Z" fill="#767676"/>
<line x1="44" y1="179.5" x2="348" y2="179.5" stroke="#F2F2F2"/>
<path d="M55.6621 207.537V208.631H44.4512V207.537H55.6621ZM54.6367 199.088V200.154H52.7637V204.242H54.5957V205.281H45.4355V204.242H47.2676V200.154H45.4082V199.088H54.6367ZM48.5527 204.242H51.4922V200.154H48.5527V204.242ZM67.4117 207.605V208.699H56.2008V207.605H61.1363V205.459H57.568V201.562H64.7594V199.84H57.5406V198.773H66.0445V202.602H58.8531V204.393H66.3316V205.459H62.4215V207.605H67.4117ZM75.9895 198.172V205.295H74.759V202.082H73.05V201.029H74.759V198.172H75.9895ZM71.6555 200.537C71.6555 201.863 72.4621 203.244 74.0207 203.887L73.3645 204.885C72.2502 204.427 71.4846 203.579 71.0539 202.574C70.6164 203.702 69.8098 204.652 68.6203 205.158L67.923 204.133C69.55 203.477 70.3977 201.959 70.3977 200.537V199.936H68.2238V198.883H73.7062V199.936H71.6555V200.537ZM78.3957 197.912V205.391H77.1652V197.912H78.3957ZM78.3957 205.896V210.162H77.1105V206.949H70.0695V205.896H78.3957ZM89.6395 204.434V205.473H81.1082V198.924H89.5164V199.977H82.4207V201.631H89.2566V202.656H82.4207V204.434H89.6395ZM90.9109 207.551V208.617H79.7V207.551H90.9109ZM94.9414 209V207.906L98.373 204.447C99.4531 203.312 100 202.684 100 201.822C100 200.852 99.207 200.223 98.168 200.223C97.0742 200.223 96.3633 200.92 96.3633 201.973H94.9414C94.9277 200.168 96.3086 198.965 98.1953 198.965C100.109 198.965 101.422 200.168 101.436 201.781C101.422 202.889 100.902 203.764 99.043 205.596L97.0332 207.633V207.715H101.6V209H94.9414ZM106.691 201.85C106.691 203.736 107.839 205.732 109.671 206.607L108.933 207.592C107.6 206.963 106.595 205.685 106.076 204.188C105.536 205.808 104.469 207.161 103.068 207.811L102.343 206.812C104.203 205.965 105.42 203.873 105.42 201.85V201.043H102.713V200.004H105.406V198.158H106.718V200.004H109.384V201.043H106.691V201.85ZM112.037 197.912V202.848H114.005V203.941H112.037V210.162H110.738V197.912H112.037ZM127.442 197.912V210.162H126.143V197.912H127.442ZM117.38 206.826C118.385 206.819 119.54 206.812 120.743 206.771V205.555C119.307 205.37 118.378 204.529 118.391 203.326C118.378 201.945 119.581 201.029 121.358 201.029C123.149 201.029 124.38 201.945 124.38 203.326C124.38 204.516 123.45 205.35 122.028 205.541V206.73C123.163 206.683 124.311 206.594 125.391 206.457L125.487 207.428C122.766 207.879 119.8 207.906 117.557 207.906L117.38 206.826ZM125.118 199.375V200.414H117.639V199.375H120.743V197.939H122.042V199.375H125.118ZM121.358 202.041C120.333 202.041 119.608 202.547 119.622 203.326C119.608 204.105 120.333 204.584 121.358 204.584C122.411 204.584 123.136 204.105 123.136 203.326C123.136 202.547 122.411 202.041 121.358 202.041ZM133.053 198.787C134.995 198.773 136.375 199.977 136.389 201.699C136.375 203.422 134.995 204.625 133.053 204.625C131.125 204.625 129.704 203.422 129.717 201.699C129.704 199.977 131.125 198.773 133.053 198.787ZM133.053 199.908C131.864 199.908 130.989 200.619 131.002 201.699C130.989 202.779 131.864 203.49 133.053 203.49C134.243 203.49 135.118 202.779 135.118 201.699C135.118 200.619 134.243 199.908 133.053 199.908ZM139.192 197.912V210.189H137.893V197.912H139.192ZM129.129 206.471C131.358 206.471 134.448 206.443 137.127 206.061L137.223 207.004C134.448 207.537 131.481 207.551 129.293 207.551L129.129 206.471Z" fill="#444444"/>
<path d="M293.945 206.348V205.305L297.695 199.516H299.289V205.258H300.449V206.348H299.289V208H298.07V206.348H293.945ZM295.305 205.258H298.07V201.051H297.977L295.305 205.188V205.258Z" fill="#D9282B"/>
<path d="M305.367 198.918C306.926 198.93 308.062 199.867 308.062 201.227C308.062 202.586 306.926 203.523 305.367 203.523C303.785 203.523 302.66 202.586 302.66 201.227C302.66 199.867 303.785 198.93 305.367 198.918ZM305.367 199.691C304.324 199.691 303.551 200.324 303.562 201.227C303.551 202.141 304.324 202.773 305.367 202.773C306.398 202.773 307.172 202.141 307.172 201.227C307.172 200.324 306.398 199.691 305.367 199.691ZM311.016 198.531V203.887H310.102V198.531H311.016ZM311.016 204.391V206.898H305.168V208.07H311.391V208.809H304.266V206.207H310.102V205.129H304.242V204.391H311.016ZM324.138 199.727V200.488H315.689V199.727H319.486V198.473H320.388V199.727H324.138ZM324.736 205.281V206.043H320.388V208.973H319.486V206.043H315.197V205.281H324.736ZM319.943 201.086C322.064 201.086 323.341 201.707 323.341 202.832C323.341 203.934 322.064 204.555 319.943 204.566C317.81 204.555 316.533 203.934 316.545 202.832C316.533 201.707 317.81 201.086 319.943 201.086ZM319.943 201.789C318.384 201.789 317.482 202.176 317.494 202.832C317.482 203.477 318.384 203.852 319.943 203.852C321.478 203.852 322.38 203.477 322.392 202.832C322.38 202.176 321.478 201.789 319.943 201.789ZM331.484 200.207C331.472 201.625 332.55 202.926 334.085 203.453L333.605 204.18C332.427 203.758 331.507 202.873 331.05 201.766C330.611 202.99 329.673 203.934 328.437 204.391L327.956 203.652C329.527 203.09 330.57 201.73 330.581 200.148V199.07H331.484V200.207ZM336.124 198.531V201.297H337.695V202.082H336.124V204.848H335.21V198.531H336.124ZM336.124 205.363V208.949H335.21V206.113H329.304V205.363H336.124ZM346.957 198.531V208.949H346.078V198.531H346.957ZM344.848 198.789V208.41H343.98V203.043H342.223V202.293H343.98V198.789H344.848ZM341.109 201.508C341.109 203.312 341.918 205.105 343.359 205.938L342.797 206.617C341.771 206.002 341.045 204.877 340.688 203.547C340.307 204.982 339.551 206.207 338.508 206.863L337.922 206.172C339.375 205.305 340.219 203.406 340.219 201.508V200.523H338.215V199.762H343.02V200.523H341.109V201.508Z" fill="#767676"/>
<line x1="44" y1="223.5" x2="348" y2="223.5" stroke="#F2F2F2"/>
<path d="M47.8418 242.623C48.8604 242.616 49.7285 242.999 50.3027 243.635H53.3652V241.912H54.6641V249.145H53.3652V247.49H50.2891C49.7217 248.119 48.8535 248.495 47.8418 248.488C45.9961 248.502 44.6289 247.271 44.6289 245.562C44.6289 243.84 45.9961 242.609 47.8418 242.623ZM47.8418 243.744C46.6934 243.73 45.873 244.469 45.873 245.562C45.873 246.629 46.6934 247.395 47.8418 247.381C48.9629 247.395 49.7832 246.629 49.7832 245.562C49.7832 244.469 48.9629 243.73 47.8418 243.744ZM50.5625 249.418C53.1055 249.418 54.7051 250.279 54.7051 251.783C54.7051 253.273 53.1055 254.148 50.5625 254.135C48.0059 254.148 46.4062 253.273 46.4199 251.783C46.4062 250.279 48.0059 249.418 50.5625 249.418ZM50.5625 250.416C48.7715 250.416 47.6777 250.908 47.6914 251.783C47.6777 252.631 48.7715 253.109 50.5625 253.109C52.3672 253.109 53.4336 252.631 53.4336 251.783C53.4336 250.908 52.3672 250.416 50.5625 250.416ZM50.8906 244.674C50.9795 244.947 51.0273 245.248 51.0273 245.562C51.0273 245.863 50.9795 246.157 50.9043 246.424H53.3652V244.674H50.8906ZM59.523 242.828C61.1842 242.828 62.401 244.236 62.5992 246.506H65.1285V241.912H66.4137V254.189H65.1285V247.559H62.6129C62.4693 249.944 61.2252 251.428 59.523 251.428C57.691 251.428 56.4059 249.76 56.4195 247.121C56.4059 244.496 57.691 242.828 59.523 242.828ZM59.523 243.99C58.4156 243.99 57.65 245.193 57.65 247.121C57.65 249.062 58.4156 250.266 59.523 250.266C60.6305 250.266 61.3961 249.062 61.3961 247.121C61.3961 245.193 60.6305 243.99 59.523 243.99ZM77.2391 243.648C77.2391 245.645 79.3719 247.531 81.7234 247.955L81.1219 249.035C79.1668 248.611 77.3621 247.326 76.5691 245.604C75.7625 247.312 73.9646 248.598 72.0027 249.035L71.4285 247.955C73.7527 247.518 75.8719 245.645 75.8719 243.648V242.719H77.2391V243.648ZM82.2293 251.469V252.549H71.0184V251.469H82.2293ZM92.9809 241.912V254.189H91.6957V247.504H89.2621V246.438H91.6957V241.912H92.9809ZM89.057 243.006V244.059H84.641V246.438H88.5375V247.477H84.641V250.211C86.6918 250.204 88.1137 250.156 89.7406 249.869L89.8773 250.922C88.1 251.209 86.5551 251.277 84.2855 251.291H83.3285V243.006H89.057ZM104.662 241.912V254.189H103.363V241.912H104.662ZM101.162 243.047V244.127H96.6094V250.074C98.9336 250.067 100.417 250.006 102.146 249.691L102.283 250.771C100.451 251.1 98.8516 251.182 96.3086 251.182H95.2969V243.047H101.162Z" fill="#444444"/>
<path d="M294.613 252V251.062L297.555 248.098C298.48 247.125 298.949 246.586 298.949 245.848C298.949 245.016 298.27 244.477 297.379 244.477C296.441 244.477 295.832 245.074 295.832 245.977H294.613C294.602 244.43 295.785 243.398 297.402 243.398C299.043 243.398 300.168 244.43 300.18 245.812C300.168 246.762 299.723 247.512 298.129 249.082L296.406 250.828V250.898H300.32V252H294.613Z" fill="#D9282B"/>
<path d="M305.367 242.918C306.926 242.93 308.062 243.867 308.062 245.227C308.062 246.586 306.926 247.523 305.367 247.523C303.785 247.523 302.66 246.586 302.66 245.227C302.66 243.867 303.785 242.93 305.367 242.918ZM305.367 243.691C304.324 243.691 303.551 244.324 303.562 245.227C303.551 246.141 304.324 246.773 305.367 246.773C306.398 246.773 307.172 246.141 307.172 245.227C307.172 244.324 306.398 243.691 305.367 243.691ZM311.016 242.531V247.887H310.102V242.531H311.016ZM311.016 248.391V250.898H305.168V252.07H311.391V252.809H304.266V250.207H310.102V249.129H304.242V248.391H311.016ZM324.138 243.727V244.488H315.689V243.727H319.486V242.473H320.388V243.727H324.138ZM324.736 249.281V250.043H320.388V252.973H319.486V250.043H315.197V249.281H324.736ZM319.943 245.086C322.064 245.086 323.341 245.707 323.341 246.832C323.341 247.934 322.064 248.555 319.943 248.566C317.81 248.555 316.533 247.934 316.545 246.832C316.533 245.707 317.81 245.086 319.943 245.086ZM319.943 245.789C318.384 245.789 317.482 246.176 317.494 246.832C317.482 247.477 318.384 247.852 319.943 247.852C321.478 247.852 322.38 247.477 322.392 246.832C322.38 246.176 321.478 245.789 319.943 245.789ZM331.484 244.207C331.472 245.625 332.55 246.926 334.085 247.453L333.605 248.18C332.427 247.758 331.507 246.873 331.05 245.766C330.611 246.99 329.673 247.934 328.437 248.391L327.956 247.652C329.527 247.09 330.57 245.73 330.581 244.148V243.07H331.484V244.207ZM336.124 242.531V245.297H337.695V246.082H336.124V248.848H335.21V242.531H336.124ZM336.124 249.363V252.949H335.21V250.113H329.304V249.363H336.124ZM346.957 242.531V252.949H346.078V242.531H346.957ZM344.848 242.789V252.41H343.98V247.043H342.223V246.293H343.98V242.789H344.848ZM341.109 245.508C341.109 247.312 341.918 249.105 343.359 249.938L342.797 250.617C341.771 250.002 341.045 248.877 340.688 247.547C340.307 248.982 339.551 250.207 338.508 250.863L337.922 250.172C339.375 249.305 340.219 247.406 340.219 245.508V244.523H338.215V243.762H343.02V244.523H341.109V245.508Z" fill="#767676"/>
<line x1="44" y1="267.5" x2="348" y2="267.5" stroke="#F2F2F2"/>
<path d="M55.8203 319.082V336.738H53.75V319.082H55.8203ZM52.168 319.512V335.898H50.0977V330H47.3438V328.223H50.0977V325.605H47.6562C46.8262 328.535 44.9805 331.055 41.6797 333.008L40.4102 331.465C44.0723 329.307 45.752 326.543 46.0742 322.988H41.3477V321.23H48.2227C48.2227 322.119 48.1641 322.988 48.0469 323.828H50.0977V319.512H52.168ZM72.1562 319.082V329.57H69.9883V325.254H66.9805V323.477H69.9883V319.082H72.1562ZM66.1797 330.02C69.9297 330.02 72.2148 331.25 72.2148 333.379C72.2148 335.508 69.9297 336.738 66.1797 336.738C62.4492 336.738 60.1641 335.508 60.1836 333.379C60.1641 331.25 62.4492 330.02 66.1797 330.02ZM66.1797 331.68C63.7188 331.68 62.332 332.266 62.332 333.379C62.332 334.473 63.7188 335.059 66.1797 335.059C68.6406 335.059 70.0469 334.473 70.0469 333.379C70.0469 332.266 68.6406 331.68 66.1797 331.68ZM63.8555 322.109C63.8555 324.258 65.2812 326.426 68.0156 327.344L66.9219 329.062C64.959 328.398 63.5625 327.051 62.8008 325.391C62.0195 327.275 60.5449 328.779 58.4453 329.531L57.3125 327.812C60.1445 326.836 61.6484 324.453 61.6484 322.129V321.992H57.9766V320.234H67.5078V321.992H63.8555V322.109ZM88.2656 320.391V321.445C88.2461 322.656 88.2461 324.395 87.8359 326.641L85.6875 326.445C86.0293 324.619 86.0977 323.271 86.1367 322.188H79.2617V320.391H88.2656ZM83.8125 324.414V327.93C85.6387 327.861 87.5137 327.725 89.2227 327.48L89.3398 329.043C85.668 329.707 81.5078 329.766 78.4023 329.785L78.207 328.047C79.252 328.037 80.4238 328.027 81.6641 328.008V324.414H83.8125ZM92.4844 319.082V324.59H94.7695V326.406H92.4844V332.305H90.2578V319.082H92.4844ZM93.0508 334.629V336.387H80.8438V331.133H83.0312V334.629H93.0508ZM109.895 319.082V336.758H107.746V319.082H109.895ZM104.465 320.625V327.246H98.3906V330.801C101.174 330.781 103.576 330.645 106.32 330.176L106.516 331.953C103.508 332.48 100.871 332.578 97.707 332.578H96.1641V325.527H102.258V322.383H96.1445V320.625H104.465Z" fill="#242424"/>
<path d="M60.637 382.518C59.4977 381.245 57.8424 380.444 56 380.444C54.1576 380.444 52.5022 381.245 51.3628 382.518M56 384C51.5817 384 48 380.418 48 376C48 371.582 51.5817 368 56 368C60.4183 368 64 371.582 64 376C64 380.418 60.4183 384 56 384ZM56 377.778C54.5272 377.778 53.3333 376.584 53.3333 375.111C53.3333 373.638 54.5272 372.444 56 372.444C57.4728 372.444 58.6667 373.638 58.6667 375.111C58.6667 376.584 57.4728 377.778 56 377.778Z" stroke="#444444" stroke-linecap="round" stroke-linejoin="round"/>
<path d="M82.9375 369.912V382.162H81.6934V375.805H80.1758V381.574H78.959V370.24H80.1758V374.752H81.6934V369.912H82.9375ZM77.7422 371.471C77.7285 374.697 76.6621 377.582 73.1621 379.564L72.4102 378.662C75.1309 377.124 76.2793 375.039 76.4844 372.537H72.9297V371.471H77.7422ZM94.359 369.926V378.826H93.0602V369.926H94.359ZM94.7281 380.85V381.902H86.3473V377.924H87.6598V380.85H94.7281ZM87.7145 370.746C89.5602 370.746 90.9684 372.004 90.9684 373.781C90.9684 375.586 89.5602 376.83 87.7145 376.83C85.8687 376.83 84.4469 375.586 84.4469 373.781C84.4469 372.004 85.8687 370.746 87.7145 370.746ZM87.7145 371.881C86.566 371.881 85.7184 372.66 85.7184 373.781C85.7184 374.93 86.566 375.695 87.7145 375.695C88.8355 375.695 89.6969 374.93 89.6969 373.781C89.6969 372.66 88.8355 371.881 87.7145 371.881ZM106.163 369.912V377.199H104.864V374.096H102.581V373.029H104.864V369.912H106.163ZM102.062 377.541C104.632 377.541 106.204 378.389 106.204 379.852C106.204 381.314 104.632 382.148 102.062 382.162C99.4914 382.148 97.9055 381.314 97.9191 379.852C97.9055 378.389 99.4914 377.541 102.062 377.541ZM102.062 378.553C100.271 378.553 99.2043 379.018 99.2043 379.852C99.2043 380.672 100.271 381.15 102.062 381.137C103.853 381.15 104.919 380.672 104.919 379.852C104.919 379.018 103.853 378.553 102.062 378.553ZM100.339 372.072C100.339 373.631 101.446 375.135 103.292 375.764L102.622 376.789C101.248 376.311 100.237 375.333 99.7102 374.123C99.1701 375.497 98.0969 376.598 96.634 377.131L95.9504 376.092C97.8508 375.436 99.0129 373.781 99.0129 372.086V371.812H96.3605V370.76H102.964V371.812H100.339V372.072ZM118.911 379.564V380.645H107.7V379.564H112.636V377.049H108.985V370.746H110.284V372.852H116.3V370.746H117.585V377.049H113.921V379.564H118.911ZM110.284 375.996H116.3V373.904H110.284V375.996ZM128.793 370.992C128.779 372.619 130.775 374.15 133.182 374.465L132.676 375.531C130.673 375.21 128.909 374.171 128.123 372.729C127.316 374.178 125.56 375.21 123.57 375.531L123.051 374.465C125.457 374.15 127.426 372.633 127.439 370.992V370.322H128.793V370.992ZM133.688 376.734V377.801H128.711V382.162H127.439V377.801H122.518V376.734H133.688ZM144.48 369.912V377.199H143.181V374.096H140.898V373.029H143.181V369.912H144.48ZM140.379 377.541C142.949 377.541 144.521 378.389 144.521 379.852C144.521 381.314 142.949 382.148 140.379 382.162C137.808 382.148 136.222 381.314 136.236 379.852C136.222 378.389 137.808 377.541 140.379 377.541ZM140.379 378.553C138.588 378.553 137.521 379.018 137.521 379.852C137.521 380.672 138.588 381.15 140.379 381.137C142.17 381.15 143.236 380.672 143.236 379.852C143.236 379.018 142.17 378.553 140.379 378.553ZM138.656 372.072C138.656 373.631 139.763 375.135 141.609 375.764L140.939 376.789C139.565 376.311 138.553 375.333 138.027 374.123C137.487 375.497 136.414 376.598 134.951 377.131L134.267 376.092C136.168 375.436 137.33 373.781 137.33 372.086V371.812H134.677V370.76H141.281V371.812H138.656V372.072Z" fill="#444444"/>
<line x1="44" y1="395.5" x2="348" y2="395.5" stroke="#F2F2F2"/>
<path d="M53.3333 417.333L55.9999 420M55.9999 420L58.6666 422.667M55.9999 420L53.3333 422.667M55.9999 420L58.6666 417.333M56 428C51.5817 428 48 424.418 48 420C48 415.582 51.5817 412 56 412C60.4183 412 64 415.582 64 420C64 424.418 60.4183 428 56 428Z" stroke="#444444" stroke-linecap="round" stroke-linejoin="round"/>
<path d="M83.6621 423.605V424.699H72.4512V423.605H77.3867V421.459H73.8184V417.562H81.0098V415.84H73.791V414.773H82.2949V418.602H75.1035V420.393H82.582V421.459H78.6719V423.605H83.6621ZM93.9078 415.156V416.469C93.9078 418.055 93.9078 419.777 93.4566 422.389L92.1305 422.266C92.6227 419.818 92.6227 418.014 92.6227 416.469V416.223H85.4039V415.156H93.9078ZM95.3707 423.346V424.426H84.2008V423.346H95.3707ZM99.2316 414.828C101.064 414.828 102.362 416.496 102.376 419.121C102.362 421.76 101.064 423.428 99.2316 423.428C97.3996 423.428 96.0871 421.76 96.1008 419.121C96.0871 416.496 97.3996 414.828 99.2316 414.828ZM99.2316 415.99C98.1105 415.99 97.3449 417.193 97.3449 419.121C97.3449 421.062 98.1105 422.266 99.2316 422.266C100.366 422.266 101.132 421.062 101.132 419.121C101.132 417.193 100.366 415.99 99.2316 415.99ZM105.493 413.912V418.711H107.462V419.805H105.493V426.162H104.195V413.912H105.493ZM118.897 419.436V420.516H113.907V421.801H112.622V420.516H107.7V419.436H118.897ZM113.921 422.676C113.921 423.906 115.643 424.891 118.022 425.123L117.626 426.107C115.623 425.896 113.989 425.171 113.251 424.057C112.513 425.157 110.892 425.902 108.903 426.107L108.479 425.123C110.831 424.891 112.581 423.879 112.581 422.676V422.334H113.921V422.676ZM113.278 414.09C115.985 414.09 117.653 414.896 117.653 416.359C117.653 417.795 115.985 418.615 113.278 418.615C110.585 418.615 108.903 417.795 108.903 416.359C108.903 414.896 110.585 414.09 113.278 414.09ZM113.278 415.074C111.378 415.061 110.229 415.539 110.243 416.359C110.229 417.152 111.378 417.617 113.278 417.617C115.179 417.617 116.313 417.152 116.313 416.359C116.313 415.539 115.179 415.061 113.278 415.074Z" fill="#444444"/>
<line x1="44" y1="439.5" x2="348" y2="439.5" stroke="#F2F2F2"/>
<rect width="360" height="24" transform="translate(16 16)" fill="white"/>
<path d="M35.9736 23.6816C37.6621 23.6943 39.4395 24.71 39.4395 28.0742C39.4395 31.2988 38.0557 33.127 35.8467 33.127C34.1582 33.127 32.9648 32.0859 32.749 30.5879H34.1328C34.3232 31.3623 34.9199 31.9082 35.8467 31.9082C37.2686 31.9082 38.0938 30.6641 38.1064 28.5693H37.9922C37.4971 29.3438 36.6338 29.8135 35.6436 29.8135C33.9932 29.8135 32.6729 28.5566 32.6729 26.792C32.6729 25.04 33.9805 23.6689 35.9736 23.6816ZM35.9736 24.8496C34.8564 24.8496 34.0312 25.7129 34.0312 26.7666C34.0312 27.833 34.8311 28.6709 35.9482 28.6709C37.0527 28.6709 37.916 27.7695 37.916 26.7539C37.916 25.7637 37.1035 24.8496 35.9736 24.8496ZM41.4885 31.8193C40.9934 31.8193 40.5744 31.4131 40.5871 30.918C40.5744 30.4229 40.9934 30.0166 41.4885 30.0166C41.9709 30.0166 42.3898 30.4229 42.3898 30.918C42.3898 31.4131 41.9709 31.8193 41.4885 31.8193ZM41.4885 26.8047C40.9934 26.8047 40.5744 26.3984 40.5871 25.9033C40.5744 25.4082 40.9934 25.002 41.4885 25.002C41.9709 25.002 42.3898 25.4082 42.3898 25.9033C42.3898 26.3984 41.9709 26.8047 41.4885 26.8047ZM43.4867 31.21V30.0801L47.5492 23.8086H49.2758V30.0293H50.5326V31.21H49.2758V33H47.9555V31.21H43.4867ZM44.9594 30.0293H47.9555V25.4717H47.8539L44.9594 29.9531V30.0293ZM54.816 33.127C52.6832 33.127 51.4391 31.4131 51.4391 28.4043C51.4391 25.4209 52.7086 23.6816 54.816 23.6816C56.9234 23.6816 58.193 25.4209 58.193 28.4043C58.193 31.4131 56.9361 33.127 54.816 33.127ZM54.816 31.9209C56.0602 31.9209 56.7965 30.7021 56.7965 28.4043C56.7965 26.1191 56.0475 24.8623 54.816 24.8623C53.5846 24.8623 52.8355 26.1191 52.8355 28.4043C52.8355 30.7021 53.5719 31.9209 54.816 31.9209Z" fill="#444444"/>
<path d="M357.333 32.1133L357.333 31L358.667 31L358.667 27L357.333 27L357.333 25.8867C357.333 25.6515 357.24 25.426 357.074 25.2597C356.907 25.0934 356.682 25 356.447 25L346.22 25C345.733 25 345.333 25.4 345.333 25.8867L345.333 32.1133C345.333 32.3485 345.427 32.574 345.593 32.7403C345.759 32.9066 345.985 33 346.22 33L356.447 33C356.933 33 357.333 32.6 357.333 32.1133Z" fill="#444444"/>
<path fill-rule="evenodd" clip-rule="evenodd" d="M338.245 24.5556C338.245 24.1138 337.886 23.7556 337.445 23.7556C337.003 23.7556 336.645 24.1138 336.645 24.5556V33.4445C336.645 33.8863 337.003 34.2445 337.445 34.2445C337.886 34.2445 338.245 33.8863 338.245 33.4445V24.5556ZM332.289 29.2666C332.289 28.8247 331.931 28.4666 331.489 28.4666C331.047 28.4666 330.689 28.8247 330.689 29.2666V33.4443C330.689 33.8862 331.047 34.2443 331.489 34.2443C331.931 34.2443 332.289 33.8862 332.289 33.4443V29.2666ZM328.556 30.8667C328.997 30.8667 329.356 31.2249 329.356 31.6667V33.4445C329.356 33.8863 328.997 34.2445 328.556 34.2445C328.114 34.2445 327.756 33.8863 327.756 33.4445V31.6667C327.756 31.2249 328.114 30.8667 328.556 30.8667ZM335.311 26.9556C335.311 26.5137 334.953 26.1556 334.511 26.1556C334.069 26.1556 333.711 26.5137 333.711 26.9556V33.4445C333.711 33.8863 334.069 34.2445 334.511 34.2445C334.953 34.2445 335.311 33.8863 335.311 33.4445V26.9556Z" fill="#222227"/>
<path fill-rule="evenodd" clip-rule="evenodd" d="M311.866 25.6511C312.833 25.2493 313.871 25.0431 314.918 25.0444L314.919 25.0444C317.122 25.0444 319.115 25.939 320.557 27.3864C320.834 27.6647 321.284 27.6657 321.562 27.3885C321.84 27.1114 321.841 26.6612 321.564 26.3829C319.867 24.6784 317.516 23.6223 314.92 23.6222L314.92 23.6222L314.919 24.3333V23.6222L314.92 23.6222C313.684 23.6207 312.461 23.8638 311.32 24.3377C310.179 24.8117 309.144 25.507 308.273 26.3835C307.996 26.6622 307.998 27.1124 308.277 27.3892C308.555 27.6659 309.006 27.6644 309.282 27.3858C310.02 26.6426 310.899 26.053 311.866 25.6511ZM312.842 28.1344C313.498 27.8542 314.205 27.7102 314.918 27.7111H314.92C315.634 27.7102 316.34 27.8542 316.996 28.1344C317.653 28.4146 318.245 28.8252 318.738 29.3412C319.01 29.6252 319.46 29.6355 319.744 29.3642C320.028 29.0929 320.038 28.6427 319.767 28.3588C319.141 27.7035 318.388 27.1822 317.555 26.8264C316.722 26.4707 315.825 26.2879 314.919 26.2889L314.92 26.2889L314.919 27L314.918 26.2889L314.919 26.2889C314.013 26.2879 313.117 26.4707 312.283 26.8264C311.45 27.1822 310.698 27.7035 310.072 28.3588C309.8 28.6427 309.811 29.0929 310.095 29.3642C310.379 29.6355 310.829 29.6252 311.1 29.3412C311.593 28.8252 312.186 28.4146 312.842 28.1344ZM313.836 30.6109C314.176 30.4568 314.545 30.3773 314.918 30.3778L314.919 30.3778C315.705 30.3778 316.41 30.7229 316.891 31.2716C317.15 31.5669 317.6 31.5962 317.895 31.3372C318.19 31.0782 318.219 30.6289 317.96 30.3336C317.22 29.4905 316.132 28.9556 314.919 28.9555L314.92 28.9555L314.919 29.6666V28.9555H314.919C314.343 28.9549 313.774 29.0777 313.249 29.3155C312.724 29.5533 312.257 29.9008 311.877 30.3345C311.619 30.6301 311.649 31.0793 311.944 31.3379C312.24 31.5965 312.689 31.5664 312.948 31.2708C313.193 30.9899 313.496 30.7649 313.836 30.6109ZM315.889 32.7333C315.889 33.2242 315.491 33.6222 315 33.6222C314.509 33.6222 314.111 33.2242 314.111 32.7333C314.111 32.2424 314.509 31.8444 315 31.8444C315.491 31.8444 315.889 32.2424 315.889 32.7333Z" fill="#222227"/>
</g>
<defs>
<filter id="filter0_ii_1078_745" x="0" y="-4" width="392" height="836" filterUnits="userSpaceOnUse" color-interpolation-filters="sRGB">
<feFlood flood-opacity="0" result="BackgroundImageFix"/>
<feBlend mode="normal" in="SourceGraphic" in2="BackgroundImageFix" result="shape"/>
<feColorMatrix in="SourceAlpha" type="matrix" values="0 0 0 0 0 0 0 0 0 0 0 0 0 0 0 0 0 0 127 0" result="hardAlpha"/>
<feMorphology radius="2" operator="erode" in="SourceAlpha" result="effect1_innerShadow_1078_745"/>
<feOffset dy="-4"/>
<feGaussianBlur stdDeviation="8"/>
<feComposite in2="hardAlpha" operator="arithmetic" k2="-1" k3="1"/>
<feColorMatrix type="matrix" values="0 0 0 0 0.716667 0 0 0 0 0.716667 0 0 0 0 0.716667 0 0 0 0.72 0"/>
<feBlend mode="normal" in2="shape" result="effect1_innerShadow_1078_745"/>
<feColorMatrix in="SourceAlpha" type="matrix" values="0 0 0 0 0 0 0 0 0 0 0 0 0 0 0 0 0 0 127 0" result="hardAlpha"/>
<feOffset dy="-2"/>
<feGaussianBlur stdDeviation="1"/>
<feComposite in2="hardAlpha" operator="arithmetic" k2="-1" k3="1"/>
<feColorMatrix type="matrix" values="0 0 0 0 0.841667 0 0 0 0 0.841667 0 0 0 0 0.841667 0 0 0 0.72 0"/>
<feBlend mode="normal" in2="effect1_innerShadow_1078_745" result="effect2_innerShadow_1078_745"/>
</filter>
<clipPath id="clip0_1078_745">
<rect x="16" y="16" width="360" height="800" rx="34" fill="white"/>
</clipPath>
</defs>
</svg>
