<svg width="24" height="24" viewBox="0 0 24 24" fill="none" xmlns="http://www.w3.org/2000/svg">
<path d="M9 13.75L14 16.25M14 8.75L9 11.25M16.5 20C15.1193 20 14 18.8807 14 17.5C14 16.1193 15.1193 15 16.5 15C17.8807 15 19 16.1193 19 17.5C19 18.8807 17.8807 20 16.5 20ZM6.5 15C5.11929 15 4 13.8807 4 12.5C4 11.1193 5.11929 10 6.5 10C7.88071 10 9 11.1193 9 12.5C9 13.8807 7.88071 15 6.5 15ZM16.5 10C15.1193 10 14 8.88071 14 7.5C14 6.11929 15.1193 5 16.5 5C17.8807 5 19 6.11929 19 7.5C19 8.88071 17.8807 10 16.5 10Z" stroke="#242424" stroke-width="1.5" stroke-linecap="round" stroke-linejoin="round"/>
</svg>
