<svg width="16" height="16" viewBox="0 0 16 16" fill="none" xmlns="http://www.w3.org/2000/svg">
<path d="M6.00001 9.99998L10 5.99998M7.33334 3.99998L7.64201 3.64265C8.26721 3.01753 9.11513 2.66638 9.99924 2.66644C10.8834 2.66651 11.7312 3.01778 12.3563 3.64298C12.9815 4.26818 13.3326 5.11611 13.3325 6.00022C13.3325 6.88432 12.9812 7.7322 12.356 8.35731L12 8.66665M8.66667 12L8.40201 12.356C7.76934 12.9811 6.91576 13.3317 6.02634 13.3317C5.13692 13.3317 4.28334 12.9811 3.65067 12.356C3.33875 12.0478 3.0911 11.6808 2.92207 11.2762C2.75305 10.8716 2.66602 10.4375 2.66602 9.99898C2.66602 9.5605 2.75305 9.12637 2.92207 8.72178C3.0911 8.31718 3.33875 7.95015 3.65067 7.64198L4.00001 7.33331" stroke="#242424" stroke-width="1.5" stroke-linecap="round" stroke-linejoin="round"/>
</svg>
