<svg width="165" height="40" viewBox="0 0 165 40" fill="none" xmlns="http://www.w3.org/2000/svg">
<rect width="165" height="40" rx="8" fill="#444444"/>
<path d="M30.9406 13.8711V21.4043H29.4094V13.8711H30.9406ZM26.9758 14.6094V18.2324H22.7922V19.5586C24.9113 19.5518 26.4084 19.4834 28.1789 19.2168L28.3703 20.4336C26.4152 20.748 24.7473 20.8027 22.3547 20.8027H21.302V17.0977H25.4719V15.8535H21.2746V14.6094H26.9758ZM26.7844 21.623C29.4094 21.623 31.009 22.457 31.009 23.9199C31.009 25.3555 29.4094 26.2031 26.7844 26.2031C24.1457 26.2031 22.5598 25.3555 22.5598 23.9199C22.5598 22.457 24.1457 21.623 26.7844 21.623ZM26.7844 22.8125C25.0344 22.8125 24.0637 23.1953 24.0637 23.9199C24.0637 24.6309 25.0344 25.0137 26.7844 25.0137C28.5207 25.0137 29.4914 24.6309 29.4914 23.9199C29.4914 23.1953 28.5207 22.8125 26.7844 22.8125ZM42.4168 15.0059V16.4824C42.4168 18.2734 42.4168 19.9824 41.8699 22.5938L40.3523 22.457C40.6053 21.377 40.7488 20.4268 40.8309 19.5449L33.5437 19.9277L33.3387 18.6973L40.8992 18.4102C40.9266 17.7471 40.9266 17.1113 40.9266 16.4824V16.2363H33.7078V15.0059H42.4168ZM43.6609 23.4004V24.6445H32.3953V23.4004H43.6609ZM53.8246 13.8574V18.6836H55.6566V19.9551H53.8246V26.1895H52.307V13.8574H53.8246ZM50.557 15.1426C50.557 18.7793 49.0531 21.9648 44.9379 23.9883L44.0766 22.8125C47.0844 21.3154 48.7113 19.21 49.0258 16.4004H44.7465V15.1426H50.557ZM70.1324 20.0781V21.2949H58.8668V20.0781H63.7203V18.8887H60.3297V14.1582H61.8336V15.3887H67.1656V14.1582H68.6695V18.8887H65.2516V20.0781H70.1324ZM68.7516 22.2793V26.2168H67.234V23.4824H60.1109V22.2793H68.7516ZM61.8336 17.6719H67.1656V16.5234H61.8336V17.6719ZM75.0324 16.8242C75.0187 19.0254 76.1262 21.2676 78.0402 22.1836L77.1105 23.4004C75.7707 22.7236 74.8068 21.418 74.2805 19.8457C73.7404 21.5273 72.7287 22.9219 71.3137 23.6328L70.384 22.416C72.3664 21.4727 73.5012 19.1074 73.5148 16.8242V14.8555H75.0324V16.8242ZM80.2961 13.8574V18.6973H82.1965V19.9961H80.2961V26.2168H78.7785V13.8574H80.2961ZM89.7215 18.9844V20.2148H87.2195V22.375C88.2996 22.3271 89.3797 22.252 90.4051 22.1426L90.5281 23.2637C87.8074 23.6738 84.95 23.7012 82.6121 23.7012L82.4207 22.4434C83.4393 22.4502 84.5535 22.4502 85.702 22.416V20.2148H83.282V14.9922H89.6668V16.1953H84.7859V18.9844H89.7215ZM92.6609 13.8574V26.2305H91.1434V13.8574H92.6609ZM98.641 21.8691C98.6273 22.915 99.1059 23.9951 100.172 24.6855C101.239 23.9404 101.717 22.7988 101.731 21.8691V21.2949H103.221V21.8691C103.221 23.1543 103.973 24.3984 105.627 24.918L104.862 26.0527C103.665 25.6289 102.872 24.8359 102.455 23.8379C102.045 24.8223 101.307 25.6973 100.172 26.1484C99.0238 25.7178 98.2924 24.877 97.8891 23.8789C97.4516 24.8359 96.6654 25.6221 95.5238 26.0527L94.7856 24.918C96.3852 24.3711 97.1508 23.0859 97.1645 21.8691V21.2949H98.641V21.8691ZM97.5473 14.5137C99.1264 14.5137 100.398 15.4434 100.719 16.8105H102.948V13.8574H104.465V20.8301H102.948V18.041H100.733C100.439 19.4492 99.1537 20.3926 97.5473 20.3926C95.6742 20.3926 94.2797 19.1758 94.2797 17.4531C94.2797 15.7441 95.6742 14.5137 97.5473 14.5137ZM97.5473 15.7852C96.5082 15.7852 95.7426 16.4414 95.7426 17.4531C95.7426 18.4512 96.5082 19.1348 97.5473 19.1348C98.559 19.1348 99.3246 18.4512 99.3246 17.4531C99.3246 16.4414 98.559 15.7852 97.5473 15.7852ZM108.723 21.2676V22.4434H114.164V21.2676H115.682V26.0664H107.219V21.2676H108.723ZM108.723 24.8633H114.164V23.6055H108.723V24.8633ZM117.131 19.3262V20.5703H105.865V19.3262H117.131ZM112.277 14.459C112.277 15.7852 113.973 17.1797 116.529 17.4805L115.996 18.6836C113.925 18.4033 112.291 17.4873 111.498 16.2363C110.698 17.4941 109.058 18.4033 107 18.6836L106.439 17.4805C109.023 17.166 110.705 15.8262 110.719 14.459V13.9941H112.277V14.459ZM127.923 13.8574V26.2168H126.42V13.8574H127.923ZM119.83 15.0605V21.8145C121.566 21.7871 123.412 21.6299 125.312 21.2539L125.504 22.5254C123.33 22.9766 121.306 23.1133 119.392 23.1133H118.326V15.0605H119.83ZM139.044 13.8574V18.5469H140.945V19.791H139.044V26.2305H137.527V13.8574H139.044ZM135.654 15.0332V16.2637H131.388V21.9375C133.309 21.9375 134.826 21.8418 136.529 21.541L136.706 22.8262C134.792 23.1543 133.124 23.209 130.896 23.209H129.87V15.0332H135.654ZM143.657 15.1016L143.507 22.0879H141.962L141.798 15.1016H143.657ZM142.741 25.1094C142.153 25.1094 141.675 24.6309 141.675 24.043C141.675 23.4688 142.153 22.9902 142.741 22.9902C143.302 22.9902 143.794 23.4688 143.794 24.043C143.794 24.6309 143.302 25.1094 142.741 25.1094Z" fill="white"/>
</svg>
