<svg width="24" height="24" viewBox="0 0 24 24" fill="none" xmlns="http://www.w3.org/2000/svg">
<g id="UserCircle">
<path id="Vector" d="M16.637 18.5176C15.4977 17.2452 13.8424 16.4444 12 16.4444C10.1576 16.4444 8.50215 17.2452 7.36285 18.5176M12 20C7.58172 20 4 16.4183 4 12C4 7.58172 7.58172 4 12 4C16.4183 4 20 7.58172 20 12C20 16.4183 16.4183 20 12 20ZM12 13.7778C10.5272 13.7778 9.33333 12.5839 9.33333 11.1111C9.33333 9.63835 10.5272 8.44444 12 8.44444C13.4728 8.44444 14.6667 9.63835 14.6667 11.1111C14.6667 12.5839 13.4728 13.7778 12 13.7778Z" stroke="#444444" stroke-linecap="round" stroke-linejoin="round"/>
</g>
</svg>
