<svg width="24" height="24" viewBox="0 0 24 24" fill="none" xmlns="http://www.w3.org/2000/svg">
<path d="M19.8815 11.8317H21.1898" stroke="#76C0FF" stroke-miterlimit="10" stroke-linecap="round"/>
<path d="M19.2178 8.96248L20.4198 8.48218" stroke="#76C0FF" stroke-miterlimit="10" stroke-linecap="round"/>
<path d="M19.2178 14.6692L20.4198 15.1495" stroke="#76C0FF" stroke-miterlimit="10" stroke-linecap="round"/>
<path d="M6.91676 1.29672C5.80247 -0.156832 3.73037 -0.428583 2.28429 0.696339C0.838203 1.82126 0.575279 3.91311 1.68958 5.37298C1.8586 5.59418 2.17161 5.6321 2.39071 5.46146L6.82912 1.99822C7.04823 1.82758 7.08579 1.51159 6.91676 1.2904V1.29672Z" fill="#76C0FF"/>
<path d="M17.0831 1.29656C18.1974 -0.163309 20.2695 -0.42874 21.7156 0.696183C23.1617 1.82111 23.4246 3.91296 22.3103 5.37283C22.1413 5.59402 21.8283 5.63194 21.6092 5.46131L17.1708 1.99806C16.9517 1.82743 16.9141 1.51144 17.0831 1.29024V1.29656Z" fill="#76C0FF"/>
<g style="mix-blend-mode:multiply">
<path d="M4.60669 18.2273C4.35003 18.4485 3.9619 18.4169 3.74906 18.1515C2.22159 16.1923 1.47038 13.7466 1.65192 11.2755C1.85224 8.60226 3.12931 6.11226 5.2014 4.36168C7.2735 2.6111 9.9716 1.73265 12.7073 1.92856C15.2238 2.10551 17.5714 3.17988 19.3242 4.93046C19.5746 5.18325 19.5433 5.59404 19.2741 5.82155L17.8906 6.99071C17.634 7.21191 17.2458 7.18031 17.0017 6.94647C15.7872 5.78363 14.1847 5.07582 12.4819 4.95574C10.5663 4.81671 8.68202 5.42972 7.22967 6.65576C5.77733 7.8818 4.88214 9.62607 4.74441 11.4967C4.61921 13.1525 5.09498 14.7957 6.07782 16.1355C6.29066 16.4198 6.25936 16.8306 5.99017 17.0581L4.60669 18.2273Z" fill="#76C0FF"/>
</g>
<g style="mix-blend-mode:multiply">
<path d="M20.0692 17.1782C20.3697 17.3678 20.4511 17.7723 20.2382 18.0503C19.5622 18.9414 18.7358 19.7188 17.7968 20.3444C16.6762 21.0965 15.418 21.621 14.0908 21.8991C12.7637 22.1772 11.3927 22.1898 10.0593 21.9496C8.72591 21.7095 7.45511 21.2102 6.31577 20.4835C5.17643 19.7567 4.19986 18.8214 3.42986 17.728C2.65987 16.6347 2.1215 15.4023 1.8398 14.1005C1.55809 12.7986 1.53931 11.4588 1.78972 10.1569C2.00256 9.05095 2.39695 7.98923 2.96036 7.01598C3.12938 6.71895 3.51124 6.64311 3.79921 6.82639L5.3392 7.80596C5.63968 7.99555 5.72106 8.3937 5.55204 8.70969C5.21399 9.34166 4.96985 10.0179 4.83839 10.7194C4.6631 11.6357 4.67562 12.5711 4.87595 13.4811C5.07001 14.3912 5.45188 15.2507 5.99025 16.0217C6.52861 16.7864 7.21097 17.4436 8.01226 17.9492C8.80729 18.4548 9.69623 18.8024 10.629 18.973C11.5617 19.1437 12.5195 19.131 13.4523 18.9414C14.3788 18.7518 15.2615 18.379 16.044 17.8544C16.6575 17.4436 17.1958 16.9444 17.6528 16.3756C17.8657 16.1102 18.2413 16.028 18.5292 16.2113L20.0692 17.1908V17.1782Z" fill="#30A0FF"/>
</g>
<path d="M11.8622 7.95759C11.8622 8.25462 11.6243 8.49477 11.3301 8.49477C11.0359 8.49477 10.798 8.25462 10.798 7.95759C10.798 7.66056 11.0359 7.42041 11.3301 7.42041C11.6243 7.42041 11.8622 7.66056 11.8622 7.95759Z" fill="#242424" stroke="#242424"/>
<path d="M11.6431 12.3246L19.1553 6.00476L11.6431 12.3246Z" fill="#242424"/>
<path d="M11.6431 12.3688L16.4321 15.1495L11.6431 12.3688Z" fill="#242424"/>
<path fill-rule="evenodd" clip-rule="evenodd" d="M19.7565 6.73313C20.1549 6.39796 20.2087 5.8002 19.8767 5.398C19.5447 4.9958 18.9526 4.94146 18.5542 5.27663L11.042 11.5964C10.8144 11.788 10.6992 12.0652 10.7043 12.3428C10.6954 12.6797 10.8653 13.0107 11.175 13.1906L15.964 15.9713C16.4135 16.2323 16.9876 16.076 17.2461 15.6222C17.5047 15.1683 17.3499 14.5888 16.9003 14.3278L13.249 12.2077L19.7565 6.73313Z" fill="#242424"/>
<path d="M6.39724 19.9526L4.2062 22.1645C3.81807 22.5564 3.84937 23.2262 4.27506 23.656C4.70075 24.0857 5.36432 24.1173 5.75245 23.7255L7.94348 21.5136C8.33161 21.1218 8.30031 20.4519 7.87462 20.0221C7.44893 19.5924 6.78536 19.5608 6.39724 19.9526Z" fill="#76C0FF"/>
<path d="M15.5807 21.3745L17.7717 23.5865C18.1598 23.9783 18.8234 23.9467 19.2491 23.517C19.6748 23.0872 19.7061 22.4173 19.318 22.0255L17.1269 19.8136C16.7388 19.4217 16.0752 19.4533 15.6495 19.8831C15.2239 20.3128 15.1926 20.9827 15.5807 21.3745Z" fill="#76C0FF"/>
</svg>
